<?xml version="1.0" encoding="UTF-8" standalone="no"?>
<!-- Generator: Adobe Illustrator 19.1.0, SVG Export Plug-In . SVG Version: 6.00 Build 0)  -->

<svg
   xmlns:dc="http://purl.org/dc/elements/1.1/"
   xmlns:cc="http://creativecommons.org/ns#"
   xmlns:rdf="http://www.w3.org/1999/02/22-rdf-syntax-ns#"
   xmlns:svg="http://www.w3.org/2000/svg"
   xmlns="http://www.w3.org/2000/svg"
   xmlns:sodipodi="http://sodipodi.sourceforge.net/DTD/sodipodi-0.dtd"
   xmlns:inkscape="http://www.inkscape.org/namespaces/inkscape"
   version="1.1"
   id="Layer_1"
   x="0px"
   y="0px"
   viewBox="0 0 130 130"
   xml:space="preserve"
   sodipodi:docname="fairdom-seek-logo.svg"
   inkscape:version="0.92.3 (2405546, 2018-03-11)"
   width="130"
   height="130"
   inkscape:export-filename="/home/finn/Pictures/fairdom-seek-logo.png"
   inkscape:export-xdpi="147.69"
   inkscape:export-ydpi="147.69"><metadata
   id="metadata105"><rdf:RDF><cc:Work
       rdf:about=""><dc:format>image/svg+xml</dc:format><dc:type
         rdf:resource="http://purl.org/dc/dcmitype/StillImage" /><dc:title /></cc:Work></rdf:RDF></metadata><defs
   id="defs103" /><sodipodi:namedview
   pagecolor="#ffffff"
   bordercolor="#666666"
   borderopacity="1"
   objecttolerance="10"
   gridtolerance="10"
   guidetolerance="10"
   inkscape:pageopacity="0"
   inkscape:pageshadow="2"
   inkscape:window-width="1920"
   inkscape:window-height="924"
   id="namedview101"
   showgrid="false"
   inkscape:snap-object-midpoints="true"
   inkscape:snap-center="true"
   inkscape:snap-smooth-nodes="true"
   showguides="true"
   inkscape:snap-intersection-paths="true"
   inkscape:object-paths="true"
   inkscape:snap-midpoints="true"
   inkscape:zoom="5.769472"
   inkscape:cx="35.567844"
   inkscape:cy="66.88064"
   inkscape:window-x="0"
   inkscape:window-y="0"
   inkscape:window-maximized="1"
   inkscape:current-layer="Layer_1" />
<g
   id="g88"
   transform="matrix(1.0053485,0,0,0.99786822,-0.34764913,-4.7152486)">
	<g
   id="g70">
		<path
   style="fill:#2c3e50"
   d="m 94.766,65.926 c -11.01,0 -19.968,-8.958 -19.968,-19.968 0,-11.01 8.958,-19.968 19.968,-19.968 11.01,0 19.968,8.958 19.968,19.968 0,11.01 -8.957,19.968 -19.968,19.968 z m 0,-34.853 c -8.208,0 -14.886,6.677 -14.886,14.886 0,8.209 6.677,14.886 14.886,14.886 8.209,0 14.886,-6.677 14.886,-14.886 0,-8.209 -6.677,-14.886 -14.886,-14.886 z"
   id="path68"
   inkscape:connector-curvature="0" />
	</g>
	<path
   style="fill:#2c3e50"
   d="m 102.178,27.745 c 0,0 -18.665,-7.835 -30.777,-7.987 -5.166,-0.065 -5.91,4.901 -5.91,4.901 0,0 0.324,11.765 0.018,16.156 -0.658,9.44 17.246,21.058 17.246,21.058 0,0 -6.535,-18.698 -2.905,-24.929 4.078,-7.002 22.328,-9.199 22.328,-9.199 z"
   id="path72"
   inkscape:connector-curvature="0" />
	<path
   style="fill:#46c8f5"
   d="m 94.867,50.972 c 3.662,0 7.075,-0.591 9.954,-1.607 -1.101,4.532 -5.174,7.901 -10.044,7.901 -4.896,0 -8.988,-3.404 -10.063,-7.972 2.919,1.059 6.405,1.678 10.153,1.678 z"
   id="path74"
   inkscape:connector-curvature="0" />
	<path
   style="fill:#2c3e50"
   d="m 68.757,42.68 h -6.532 c -0.55,0 -1,-0.45 -1,-1 V 25.659 c 0,-0.55 0.45,-1 1,-1 h 6.532 c 0.55,0 1,0.45 1,1 V 41.68 c 0,0.55 -0.45,1 -1,1 z"
   id="path76"
   inkscape:connector-curvature="0" />
	<g
   id="g80">
		<path
   style="fill:#2c3e50"
   d="m 35.234,65.926 c -11.01,0 -19.968,-8.958 -19.968,-19.968 0,-11.01 8.957,-19.968 19.968,-19.968 11.011,0 19.968,8.958 19.968,19.968 0,11.01 -8.958,19.968 -19.968,19.968 z m 0,-34.853 c -8.208,0 -14.886,6.677 -14.886,14.886 0,8.209 6.677,14.886 14.886,14.886 8.209,0 14.886,-6.677 14.886,-14.886 0,-8.209 -6.678,-14.886 -14.886,-14.886 z"
   id="path78"
   inkscape:connector-curvature="0" />
	</g>
	<path
   style="fill:#2c3e50"
   d="m 27.823,27.745 c 0,0 18.665,-7.835 30.777,-7.987 5.166,-0.065 5.91,4.901 5.91,4.901 0,0 -0.324,11.765 -0.018,16.156 0.658,9.44 -17.246,21.058 -17.246,21.058 0,0 6.535,-18.698 2.905,-24.929 -4.078,-7.002 -22.328,-9.199 -22.328,-9.199 z"
   id="path82"
   inkscape:connector-curvature="0" />
	<path
   style="fill:#46c8f5"
   d="m 35.134,50.972 c -3.662,0 -7.075,-0.591 -9.954,-1.607 1.101,4.532 5.174,7.901 10.044,7.901 4.896,0 8.988,-3.404 10.063,-7.972 -2.92,1.059 -6.406,1.678 -10.153,1.678 z"
   id="path84"
   inkscape:connector-curvature="0" />
	<circle
   style="fill:#46c8f5"
   cx="65.037003"
   cy="29.561001"
   r="2.723"
   id="circle86" />
</g>
<g
   id="g98"
   transform="matrix(1.0234053,0,0,0.99786822,-1.5218544,9.2549069)">
	<path
   style="fill:#2c3e50"
   d="m 37.664,83.084 -2.412,5.002 c -2.662,-1.547 -6.01,-2.627 -8.061,-2.627 -1.656,0 -2.771,0.611 -2.771,1.834 0,4.355 13.316,1.872 13.316,10.977 0,5.039 -4.463,7.701 -10.076,7.701 -4.211,0 -8.53,-1.582 -11.516,-4.031 l 2.482,-4.93 c 2.592,2.268 6.479,3.779 9.106,3.779 2.015,0 3.275,-0.755 3.275,-2.195 0,-4.463 -13.316,-1.799 -13.316,-10.725 0,-4.642 3.994,-7.593 10.041,-7.593 3.633,0.001 7.34,1.116 9.932,2.808 z"
   id="path90"
   inkscape:connector-curvature="0" />
	<path
   style="fill:#2c3e50"
   d="m 47.646,85.603 v 5.002 h 12.019 v 5.039 H 47.646 v 5.074 h 13.711 v 5.039 H 41.239 V 80.564 h 19.723 v 5.039 z"
   id="path92"
   inkscape:connector-curvature="0" />
	<path
   style="fill:#2c3e50"
   d="m 71.916,85.603 v 5.002 h 12.019 v 5.039 H 71.916 v 5.074 h 13.711 v 5.039 H 65.508 V 80.564 h 19.723 v 5.039 z"
   id="path94"
   inkscape:connector-curvature="0" />
	<path
   style="fill:#2c3e50"
   d="m 99.531,95.859 -3.346,3.707 v 6.19 H 89.778 V 80.564 h 6.407 V 91.47 l 9.645,-10.905 h 7.414 l -9.358,10.436 9.971,14.756 h -7.666 z"
   id="path96"
   inkscape:connector-curvature="0" />
</g>
<g
   id="g363"
   transform="matrix(1.048088,0,0,0.99786822,-2.8176725,-0.04045774)"><g
     id="g306"
     transform="matrix(0.95221915,0,0,0.95221915,-25.976866,53.455157)"><path
       id="path290"
       d="m 47.728069,19.991372 v 4.441678 h 6.991399 v 2.30807 H 47.728069 V 33.05 H 45.133554 V 17.659727 H 55.46682 l -0.02122,2.330467 h -7.717533 z"
       style="fill:#3b97d3;stroke-width:1.17878926"
       inkscape:connector-curvature="0" /><path
       id="path292"
       d="M 59.34268,29.576108 57.870372,33.05 H 55.166229 L 61.958413,17.659727 H 64.61894 L 71.34747,33.05 h -2.770155 l -1.473487,-3.473892 z m 3.869965,-9.146226 -2.902179,6.836978 h 5.804358 z"
       style="fill:#3b97d3;stroke-width:1.17878926"
       inkscape:connector-curvature="0" /><path
       id="path294"
       d="M 73.40092,33.05 V 17.659727 h 2.594516 V 33.05 Z"
       style="fill:#3b97d3;stroke-width:1.17878926"
       inkscape:connector-curvature="0" /><path
       id="path296"
       d="m 86.992361,28.389067 c -0.220434,0.02122 -0.462085,0.02122 -0.703737,0.02122 H 82.637913 V 33.05 H 80.043398 V 17.659727 h 6.244047 c 3.934799,0 6.199253,1.913175 6.199253,5.255043 0,2.462491 -1.143426,4.198847 -3.187446,4.989815 L 92.750747,33.05 h -2.945795 z m -0.703737,-2.308069 c 2.374081,0 3.736762,-1.011401 3.736762,-3.100216 0,-2.021624 -1.362681,-2.98941 -3.736762,-2.98941 h -3.650711 v 6.089626 z"
       style="fill:#3b97d3;stroke-width:1.17878926"
       inkscape:connector-curvature="0" /><g
       transform="matrix(1.1787893,0,0,1.1787893,-18.911247,1.1637499)"
       style="fill:#2c3e50"
       id="g304"><path
         id="path298"
         d="m 102.277,14.05 c 3.873,0 6.675,2.71 6.675,6.454 0,3.725 -2.821,6.454 -6.731,6.454 H 96.984 V 14.05 Z m -3.116,10.954 h 3.171 c 2.508,0 4.426,-1.863 4.426,-4.482 0,-2.636 -1.973,-4.518 -4.518,-4.518 h -3.079 z"
         style="fill:#2c3e50"
         inkscape:connector-curvature="0" /><path
         id="path300"
         d="m 123.368,20.504 c 0,3.688 -2.986,6.546 -6.841,6.546 -3.854,0 -6.841,-2.858 -6.841,-6.546 0,-3.707 2.987,-6.51 6.841,-6.51 3.855,0 6.841,2.822 6.841,6.51 z m -11.469,0 c 0,2.563 2.121,4.592 4.648,4.592 2.527,0 4.592,-2.028 4.592,-4.592 0,-2.564 -2.065,-4.555 -4.592,-4.555 -2.546,10e-4 -4.648,1.992 -4.648,4.555 z"
         style="fill:#2c3e50"
         inkscape:connector-curvature="0" /><path
         id="path302"
         d="m 137.323,26.958 -0.018,-9.644 -4.076,8.298 h -1.42 l -4.075,-8.298 v 9.644 h -2.047 V 14.05 h 2.581 l 4.261,8.574 4.241,-8.574 h 2.563 v 12.908 z"
         style="fill:#2c3e50"
         inkscape:connector-curvature="0" /></g></g></g></svg>