<?xml version="1.0" encoding="iso-8859-1"?>
<!-- Generator: Adobe Illustrator 19.1.0, SVG Export Plug-In . SVG Version: 6.00 Build 0)  -->
<svg version="1.1" id="Layer_1" xmlns="http://www.w3.org/2000/svg" xmlns:xlink="http://www.w3.org/1999/xlink" x="0px" y="0px"
	 viewBox="0 0 120.552 88.083" style="enable-background:new 0 0 120.552 88.083;" xml:space="preserve">
<g>
	<g>
		<path style="fill:#2C3E50;" d="M90.042,68.298c-11.01,0-19.968-8.958-19.968-19.968s8.958-19.968,19.968-19.968
			s19.968,8.958,19.968,19.968S101.053,68.298,90.042,68.298z M90.042,33.444c-8.208,0-14.886,6.677-14.886,14.886
			s6.677,14.886,14.886,14.886s14.886-6.677,14.886-14.886S98.25,33.444,90.042,33.444z"/>
	</g>
	<path style="fill:#2C3E50;" d="M97.454,30.117c0,0-18.665-7.835-30.777-7.987c-5.166-0.065-5.91,4.901-5.91,4.901
		s0.324,11.765,0.018,16.156c-0.658,9.44,17.246,21.058,17.246,21.058s-6.535-18.698-2.905-24.929
		C79.204,32.314,97.454,30.117,97.454,30.117z"/>
	<path style="fill:#46C8F5;" d="M90.142,53.344c3.662,0,7.075-0.591,9.954-1.607c-1.101,4.532-5.174,7.901-10.044,7.901
		c-4.896,0-8.988-3.404-10.063-7.972C82.909,52.725,86.395,53.344,90.142,53.344z"/>
	<path style="fill:#2C3E50;" d="M64.032,45.052H57.5c-0.55,0-1-0.45-1-1V28.031c0-0.55,0.45-1,1-1h6.532c0.55,0,1,0.45,1,1v16.021
		C65.032,44.602,64.582,45.052,64.032,45.052z"/>
	<g>
		<path style="fill:#2C3E50;" d="M30.509,68.298c-11.01,0-19.968-8.958-19.968-19.968s8.958-19.968,19.968-19.968
			S50.478,37.32,50.478,48.33S41.52,68.298,30.509,68.298z M30.509,33.444c-8.208,0-14.886,6.677-14.886,14.886
			s6.677,14.886,14.886,14.886s14.886-6.677,14.886-14.886S38.718,33.444,30.509,33.444z"/>
	</g>
	<path style="fill:#2C3E50;" d="M23.099,30.117c0,0,18.665-7.835,30.777-7.987c5.166-0.065,5.91,4.901,5.91,4.901
		s-0.324,11.765-0.018,16.156c0.658,9.44-17.246,21.058-17.246,21.058s6.535-18.698,2.905-24.929
		C41.349,32.314,23.099,30.117,23.099,30.117z"/>
	<path style="fill:#46C8F5;" d="M30.41,53.344c-3.662,0-7.075-0.591-9.954-1.607c1.101,4.532,5.174,7.901,10.044,7.901
		c4.896,0,8.988-3.404,10.063-7.972C37.643,52.725,34.157,53.344,30.41,53.344z"/>
	<circle style="fill:#46C8F5;" cx="60.313" cy="31.933" r="2.723"/>
</g>
</svg>
