<?xml version="1.0" encoding="iso-8859-1"?>
<!-- Generator: Adobe Illustrator 19.1.0, SVG Export Plug-In . SVG Version: 6.00 Build 0)  -->
<svg version="1.1" id="Layer_1" xmlns="http://www.w3.org/2000/svg" xmlns:xlink="http://www.w3.org/1999/xlink" x="0px" y="0px"
	 viewBox="0 0 130 127.568" style="enable-background:new 0 0 130 127.568;" xml:space="preserve">
<g>
	<g>
		<path style="fill:#2C3E50;" d="M94.766,65.926c-11.01,0-19.968-8.958-19.968-19.968S83.756,25.99,94.766,25.99
			s19.968,8.958,19.968,19.968S105.777,65.926,94.766,65.926z M94.766,31.073c-8.208,0-14.886,6.677-14.886,14.886
			s6.677,14.886,14.886,14.886s14.886-6.677,14.886-14.886S102.975,31.073,94.766,31.073z"/>
	</g>
	<path style="fill:#2C3E50;" d="M102.178,27.745c0,0-18.665-7.835-30.777-7.987c-5.166-0.065-5.91,4.901-5.91,4.901
		s0.324,11.765,0.018,16.156c-0.658,9.44,17.246,21.058,17.246,21.058s-6.535-18.698-2.905-24.929
		C83.928,29.942,102.178,27.745,102.178,27.745z"/>
	<path style="fill:#46C8F5;" d="M94.867,50.972c3.662,0,7.075-0.591,9.954-1.607c-1.101,4.532-5.174,7.901-10.044,7.901
		c-4.896,0-8.988-3.404-10.063-7.972C87.633,50.353,91.119,50.972,94.867,50.972z"/>
	<path style="fill:#2C3E50;" d="M68.757,42.68h-6.532c-0.55,0-1-0.45-1-1V25.659c0-0.55,0.45-1,1-1h6.532c0.55,0,1,0.45,1,1V41.68
		C69.757,42.23,69.307,42.68,68.757,42.68z"/>
	<g>
		<path style="fill:#2C3E50;" d="M35.234,65.926c-11.01,0-19.968-8.958-19.968-19.968S24.223,25.99,35.234,25.99
			s19.968,8.958,19.968,19.968S46.244,65.926,35.234,65.926z M35.234,31.073c-8.208,0-14.886,6.677-14.886,14.886
			s6.677,14.886,14.886,14.886s14.886-6.677,14.886-14.886S43.442,31.073,35.234,31.073z"/>
	</g>
	<path style="fill:#2C3E50;" d="M27.823,27.745c0,0,18.665-7.835,30.777-7.987c5.166-0.065,5.91,4.901,5.91,4.901
		s-0.324,11.765-0.018,16.156c0.658,9.44-17.246,21.058-17.246,21.058s6.535-18.698,2.905-24.929
		C46.073,29.942,27.823,27.745,27.823,27.745z"/>
	<path style="fill:#46C8F5;" d="M35.134,50.972c-3.662,0-7.075-0.591-9.954-1.607c1.101,4.532,5.174,7.901,10.044,7.901
		c4.896,0,8.988-3.404,10.063-7.972C42.367,50.353,38.881,50.972,35.134,50.972z"/>
	<circle style="fill:#46C8F5;" cx="65.037" cy="29.561" r="2.723"/>
</g>
<g>
	<path style="fill:#2C3E50;" d="M37.664,83.084l-2.412,5.002c-2.662-1.547-6.01-2.627-8.061-2.627c-1.656,0-2.771,0.611-2.771,1.834
		c0,4.355,13.316,1.872,13.316,10.977c0,5.039-4.463,7.701-10.076,7.701c-4.211,0-8.53-1.582-11.516-4.031l2.482-4.93
		c2.592,2.268,6.479,3.779,9.106,3.779c2.015,0,3.275-0.755,3.275-2.195c0-4.463-13.316-1.799-13.316-10.725
		c0-4.642,3.994-7.593,10.041-7.593C31.365,80.277,35.072,81.392,37.664,83.084z"/>
	<path style="fill:#2C3E50;" d="M47.646,85.603v5.002h12.019v5.039H47.646v5.074h13.711v5.039H41.239V80.564h19.723v5.039H47.646z"
		/>
	<path style="fill:#2C3E50;" d="M71.916,85.603v5.002h12.019v5.039H71.916v5.074h13.711v5.039H65.508V80.564h19.723v5.039H71.916z"
		/>
	<path style="fill:#2C3E50;" d="M99.531,95.859l-3.346,3.707v6.19h-6.407V80.564h6.407V91.47l9.645-10.905h7.414l-9.358,10.436
		l9.971,14.756h-7.666L99.531,95.859z"/>
</g>
</svg>
