<?xml version="1.0" encoding="iso-8859-1"?>
<!-- Generator: Adobe Illustrator 19.1.0, SVG Export Plug-In . SVG Version: 6.00 Build 0)  -->
<svg version="1.1" id="Layer_1" xmlns="http://www.w3.org/2000/svg" xmlns:xlink="http://www.w3.org/1999/xlink" x="0px" y="0px"
	 viewBox="0 0 200 88.083" style="enable-background:new 0 0 200 88.083;" xml:space="preserve">
<g>
	<g>
		<path style="fill:#ECF0F0;" d="M155.918,77.663c-17.972,0-32.593-14.621-32.593-32.592c0-17.972,14.621-32.593,32.593-32.593
			s32.593,14.621,32.593,32.593C188.511,63.042,173.89,77.663,155.918,77.663z M155.918,14.765
			c-16.711,0-30.306,13.595-30.306,30.306c0,16.71,13.595,30.305,30.306,30.305s30.306-13.595,30.306-30.305
			C186.224,28.36,172.629,14.765,155.918,14.765z"/>
	</g>
	<g>
		<g>
			<path style="fill:#3B96D2;" d="M155.23,62.831c-9.027,0-16.371-7.344-16.371-16.371s7.344-16.371,16.371-16.371
				s16.371,7.344,16.371,16.371S164.258,62.831,155.23,62.831z M155.23,31.231c-8.396,0-15.229,6.832-15.229,15.229
				s6.832,15.229,15.229,15.229s15.229-6.832,15.229-15.229S163.627,31.231,155.23,31.231z"/>
		</g>
		<g>

				<rect x="154.659" y="16.075" transform="matrix(0.7071 0.7071 -0.7071 0.7071 78.318 -96.1568)" style="fill:#3B96D2;" width="1.144" height="60.77"/>
		</g>
		<g>

				<rect x="124.174" y="45.888" transform="matrix(0.7071 0.7071 -0.7071 0.7071 78.318 -96.1568)" style="fill:#3B96D2;" width="62.112" height="1.144"/>
		</g>
		<g>
			<rect x="124.675" y="45.889" style="fill:#3B96D2;" width="61.111" height="1.143"/>
		</g>
		<g>
			<rect x="154.659" y="15.841" style="fill:#3B96D2;" width="1.143" height="61.237"/>
		</g>
	</g>
	<g>
		<circle style="fill:#3B97D2;" cx="123.784" cy="45.041" r="4.376"/>
		<path style="fill:#40586E;" d="M123.784,50.561c-3.043,0-5.52-2.477-5.52-5.52s2.477-5.52,5.52-5.52s5.52,2.477,5.52,5.52
			S126.827,50.561,123.784,50.561z M123.784,41.809c-1.782,0-3.232,1.45-3.232,3.232s1.45,3.232,3.232,3.232s3.232-1.45,3.232-3.232
			S125.566,41.809,123.784,41.809z"/>
	</g>
	<g>
		<circle style="fill:#3B97D2;" cx="186.635" cy="45.396" r="4.376"/>
		<path style="fill:#40586E;" d="M186.635,50.916c-3.043,0-5.52-2.477-5.52-5.52s2.477-5.52,5.52-5.52s5.52,2.477,5.52,5.52
			S189.678,50.916,186.635,50.916z M186.635,42.164c-1.782,0-3.232,1.45-3.232,3.232s1.45,3.232,3.232,3.232s3.232-1.45,3.232-3.232
			S188.417,42.164,186.635,42.164z"/>
	</g>
	<g>
		<circle style="fill:#3B97D2;" cx="177.351" cy="22.953" r="4.376"/>
		<path style="fill:#40586E;" d="M177.352,28.472c-3.043,0-5.52-2.477-5.52-5.52s2.477-5.52,5.52-5.52s5.52,2.477,5.52,5.52
			S180.395,28.472,177.352,28.472z M177.352,19.721c-1.782,0-3.232,1.45-3.232,3.232s1.45,3.232,3.232,3.232s3.232-1.45,3.232-3.232
			S179.134,19.721,177.352,19.721z"/>
	</g>
	<g>
		<circle style="fill:#3B97D2;" cx="133.174" cy="67.185" r="4.376"/>
		<path style="fill:#40586E;" d="M133.174,72.705c-3.043,0-5.52-2.477-5.52-5.52s2.477-5.52,5.52-5.52s5.52,2.477,5.52,5.52
			S136.217,72.705,133.174,72.705z M133.174,63.953c-1.782,0-3.232,1.45-3.232,3.232s1.45,3.232,3.232,3.232s3.232-1.45,3.232-3.232
			S134.956,63.953,133.174,63.953z"/>
	</g>
	<g>
		<circle style="fill:#3B97D2;" cx="177.351" cy="67.185" r="4.376"/>
		<path style="fill:#40586E;" d="M177.352,72.705c-3.043,0-5.52-2.477-5.52-5.52s2.477-5.52,5.52-5.52s5.52,2.477,5.52,5.52
			S180.395,72.705,177.352,72.705z M177.352,63.953c-1.782,0-3.232,1.45-3.232,3.232s1.45,3.232,3.232,3.232s3.232-1.45,3.232-3.232
			S179.134,63.953,177.352,63.953z"/>
	</g>
	<g>
		<circle style="fill:#3B97D2;" cx="133.174" cy="22.953" r="4.376"/>
		<path style="fill:#40586E;" d="M133.174,28.472c-3.043,0-5.52-2.477-5.52-5.52s2.477-5.52,5.52-5.52s5.52,2.477,5.52,5.52
			S136.217,28.472,133.174,28.472z M133.174,19.721c-1.782,0-3.232,1.45-3.232,3.232s1.45,3.232,3.232,3.232s3.232-1.45,3.232-3.232
			S134.956,19.721,133.174,19.721z"/>
	</g>
	<g>
		<circle style="fill:#3B97D2;" cx="155.23" cy="13.563" r="4.376"/>
		<path style="fill:#40586E;" d="M155.23,19.083c-3.043,0-5.52-2.477-5.52-5.52s2.477-5.52,5.52-5.52s5.52,2.477,5.52,5.52
			S158.273,19.083,155.23,19.083z M155.23,10.331c-1.782,0-3.232,1.45-3.232,3.232s1.45,3.232,3.232,3.232s3.232-1.45,3.232-3.232
			S157.013,10.331,155.23,10.331z"/>
	</g>
	<g>
		<circle style="fill:#3B97D2;" cx="155.23" cy="76.52" r="4.376"/>
		<path style="fill:#40586E;" d="M155.23,82.039c-3.043,0-5.52-2.477-5.52-5.52s2.477-5.52,5.52-5.52s5.52,2.477,5.52,5.52
			S158.273,82.039,155.23,82.039z M155.23,73.287c-1.782,0-3.232,1.45-3.232,3.232s1.45,3.232,3.232,3.232s3.232-1.45,3.232-3.232
			S157.013,73.287,155.23,73.287z"/>
	</g>
</g>
<g>
	<path style="fill:#3B97D2;" d="M14.2,40.472v3.508h6.8v3.031h-6.8v5.587h-3.855V37.44h11.24v3.032H14.2z"/>
	<path style="fill:#3B97D2;" d="M26.133,49.805l-1.105,2.794h-3.963l6.54-15.159h3.963l6.388,15.159h-4.115l-1.083-2.794H26.133z
		 M29.468,41.273l-2.209,5.609h4.375L29.468,41.273z"/>
	<path style="fill:#3B97D2;" d="M39.366,52.599V37.44h3.855v15.159H39.366z"/>
	<path style="fill:#3B97D2;" d="M53.141,48.333h-0.109h-2.923v4.266h-3.855V37.44h6.779c4.007,0,6.302,1.906,6.302,5.284
		c0,2.317-0.975,3.985-2.75,4.873l3.183,5.002h-4.375L53.141,48.333z M53.032,45.301c1.668,0,2.642-0.844,2.642-2.448
		c0-1.581-0.975-2.382-2.642-2.382h-2.923v4.829H53.032z"/>
	<path style="fill:#ECF0F0;" d="M68.453,37.44c4.765,0,8.056,3.075,8.056,7.58c0,4.483-3.335,7.58-8.207,7.58h-6.367V37.44H68.453z
		 M65.79,49.524h2.75c2.361,0,4.049-1.82,4.049-4.483c0-2.685-1.776-4.526-4.222-4.526H65.79V49.524z"/>
	<path style="fill:#ECF0F0;" d="M93.664,44.998c0,4.418-3.508,7.775-8.208,7.775c-4.677,0-8.186-3.335-8.186-7.775
		c0-4.418,3.508-7.688,8.186-7.688C90.155,37.31,93.664,40.602,93.664,44.998z M81.211,45.02c0,2.555,1.97,4.526,4.288,4.526
		c2.339,0,4.201-1.97,4.201-4.526s-1.862-4.483-4.201-4.483C83.16,40.537,81.211,42.464,81.211,45.02z"/>
	<path style="fill:#ECF0F0;" d="M108.954,52.599l-0.022-9.853l-3.638,8.338h-2.512l-3.638-8.338v9.853h-3.444V37.418h4.223
		l4.115,9.031l4.115-9.031h4.201v15.181H108.954z"/>
</g>
<g>
	<path style="fill:#ECF0F0;" d="M143.55,51.657v-5.2h-5.544v5.2h-3.403V38.273h3.403v5.507h5.544v-5.507h3.403v13.383H143.55z"/>
	<path style="fill:#ECF0F0;" d="M161.672,46.036c0,3.537-2.351,5.773-6.099,5.773c-3.766,0-6.175-2.237-6.175-5.773v-7.762h3.403
		v7.762c0,1.816,1.167,2.926,2.792,2.926c1.606,0,2.696-1.11,2.696-2.926v-7.762h3.384V46.036z"/>
	<path style="fill:#ECF0F0;" d="M170.445,38.273c3.001,0,4.914,1.3,4.914,3.347c0,1.414-0.88,2.542-2.294,2.944
		c1.683,0.324,2.753,1.644,2.753,3.384c0,2.274-1.988,3.708-5.143,3.708h-6.557V38.273H170.445z M167.501,43.628h2.753
		c0.994,0,1.625-0.536,1.625-1.397c0-0.86-0.631-1.358-1.625-1.358h-2.753V43.628z M167.501,49.038h2.753
		c1.262,0,2.046-0.555,2.046-1.51c0-0.899-0.784-1.453-2.046-1.453h-2.753V49.038z"/>
</g>
</svg>
