<?xml version="1.0" encoding="UTF-8" standalone="no"?>
<!-- Created with Inkscape (http://www.inkscape.org/) -->

<svg
   xmlns:dc="http://purl.org/dc/elements/1.1/"
   xmlns:cc="http://creativecommons.org/ns#"
   xmlns:rdf="http://www.w3.org/1999/02/22-rdf-syntax-ns#"
   xmlns:svg="http://www.w3.org/2000/svg"
   xmlns="http://www.w3.org/2000/svg"
   xmlns:sodipodi="http://sodipodi.sourceforge.net/DTD/sodipodi-0.dtd"
   xmlns:inkscape="http://www.inkscape.org/namespaces/inkscape"
   width="197.5"
   height="179.75"
   id="svg2"
   version="1.1"
   inkscape:version="0.48.4 r9939"
   sodipodi:docname="logo3.svg">
  <defs
     id="defs4" />
  <sodipodi:namedview
     id="base"
     pagecolor="#ffffff"
     bordercolor="#666666"
     borderopacity="1.0"
     inkscape:pageopacity="0.0"
     inkscape:pageshadow="2"
     inkscape:zoom="0.5"
     inkscape:cx="-155.09063"
     inkscape:cy="308.05933"
     inkscape:document-units="px"
     inkscape:current-layer="layer1"
     showgrid="false"
     inkscape:window-width="1440"
     inkscape:window-height="876"
     inkscape:window-x="0"
     inkscape:window-y="24"
     inkscape:window-maximized="1"
     showguides="true"
     inkscape:guide-bbox="true"
     fit-margin-top="0"
     fit-margin-left="0"
     fit-margin-right="0"
     fit-margin-bottom="0" />
  <metadata
     id="metadata7">
    <rdf:RDF>
      <cc:Work
         rdf:about="">
        <dc:format>image/svg+xml</dc:format>
        <dc:type
           rdf:resource="http://purl.org/dc/dcmitype/StillImage" />
        <dc:title></dc:title>
      </cc:Work>
    </rdf:RDF>
  </metadata>
  <g
     inkscape:label="Layer 1"
     inkscape:groupmode="layer"
     id="layer1"
     transform="translate(14.75,-778.15625)">
    <g
       id="g3856"
       transform="translate(-43,2)">
      <g
         transform="translate(51.000005,24)"
         id="g3851">
        <path
           inkscape:connector-curvature="0"
           style="font-size:medium;font-style:normal;font-variant:normal;font-weight:normal;font-stretch:normal;text-indent:0;text-align:start;text-decoration:none;line-height:normal;letter-spacing:normal;word-spacing:normal;text-transform:none;direction:ltr;block-progression:tb;writing-mode:lr-tb;text-anchor:start;baseline-shift:baseline;color:#000000;fill:#ffffff;fill-opacity:1;stroke:#000000;stroke-width:1;stroke-miterlimit:4;stroke-opacity:1;stroke-dasharray:none;marker:none;visibility:visible;display:inline;overflow:visible;enable-background:accumulate;font-family:Sans;-inkscape-font-specification:Sans"
           d="m 130.34416,754.08091 0,23.8125 -85.90625,-0.0312 c -0.0107,0 -0.0206,-3e-5 -0.0312,0 -16.24286,0.0464 -27.15993,2.86879 -33.03125,10.5 -5.10515,6.63538 -5.41432,14.21207 -5.40625,20.65625 5e-5,0.0407 -7e-5,0.0844 0,0.125 l -0.0625,63.84375 -27.65625,0 0.0937,15.53125 37.22243,0.0808 c 3.691946,0.0159 5.225793,-2.7942 5.40257,-6.14331 l 0,-73.9375 c 0.1626,-5.1967 0.76286,-9.01712 2.3125,-11.03125 1.60766,-2.08955 5.41043,-4.16637 15.4375,-4.59375 l 131.84375,0 -0.0312,-0.0312 -40.1875,-38.78125 z"
           id="path2985-7-2-4"
           sodipodi:nodetypes="ccccsccccccccsccccc" />
        <path
           style="font-size:medium;font-style:normal;font-variant:normal;font-weight:normal;font-stretch:normal;text-indent:0;text-align:start;text-decoration:none;line-height:normal;letter-spacing:normal;word-spacing:normal;text-transform:none;direction:ltr;block-progression:tb;writing-mode:lr-tb;text-anchor:start;baseline-shift:baseline;color:#000000;fill:#ffffff;fill-opacity:1;stroke:#000000;stroke-width:1;stroke-miterlimit:4;stroke-opacity:1;stroke-dasharray:none;marker:none;visibility:visible;display:inline;overflow:visible;enable-background:accumulate;font-family:Sans;-inkscape-font-specification:Sans"
           d="m 95.78586,807.42875 0,66.21429 -15.5625,0 0,-66.34726 -15,-0.005 0,66.35268 -16.28125,0 0,-66.20982 -15,0 0,73.70982 0,7.5 7.5,0 61.84375,0 c 3.70574,0.029 7.375,-4.22088 7.5,-7.5 l 0,-73.625 z"
           id="path2987-1-7-1"
           inkscape:connector-curvature="0"
           sodipodi:nodetypes="cccccccccccccccc" />
        <path
           style="font-size:medium;font-style:normal;font-variant:normal;font-weight:normal;font-stretch:normal;text-indent:0;text-align:start;text-decoration:none;line-height:normal;letter-spacing:normal;word-spacing:normal;text-transform:none;direction:ltr;block-progression:tb;writing-mode:lr-tb;text-anchor:start;baseline-shift:baseline;color:#000000;fill:#ffffff;fill-opacity:1;stroke:#000000;stroke-width:1;stroke-linecap:butt;stroke-linejoin:round;stroke-miterlimit:4;stroke-opacity:1;stroke-dasharray:none;marker:none;visibility:visible;display:inline;overflow:visible;enable-background:accumulate;font-family:Sans;-inkscape-font-specification:Sans"
           d="m 121.28078,814.4814 0,32.98123 0,7.31562 7.5,0 29.96875,0 0,18.52687 -37.34375,0 0,15.33834 44.84375,0 7.5,0 0,-7.31562 0,-33.86521 c -0.11744,-4.4717 -3.45463,-7.13883 -7.5,-7.31561 l -29.96875,0 0,-18.35001 37.3125,0 0,-14.63123 -44.8125,0 c -5.73873,-0.0148 -7.32322,3.93832 -7.5,7.31562 z"
           id="path2991-1-7-2"
           inkscape:connector-curvature="0"
           sodipodi:nodetypes="ccccccccccccccccccc" />
      </g>
      <g
         transform="translate(51,24)"
         id="g3843">
        <path
           style="fill:#ffffff;fill-opacity:1;stroke:#000000;stroke-width:1;stroke-miterlimit:4;stroke-opacity:1;stroke-dasharray:none"
           d="m 17.2642,897.33078 0,33.9688 8.5,0 0,-19.7813 15,19.7813 0,0.094 8.5,0 0,-34 -8.5,0 0,19.9375 -15,-19.7812 0,-0.2188 -0.15625,0 -8.34375,0 z"
           id="rect4443-1"
           inkscape:connector-curvature="0" />
        <path
           style="fill:#ffffff;fill-opacity:1;stroke:#000000;stroke-width:1;stroke-miterlimit:4;stroke-opacity:1;stroke-dasharray:none"
           d="m 57.30921,897.33078 0,34 4.5625,0 3.9375,0 17.65625,0 0,-8.5 -17.65625,0 0,-25.5 -8.5,0 z"
           id="rect4443-4-7"
           inkscape:connector-curvature="0" />
        <rect
           style="fill:#ffffff;fill-opacity:1;stroke:#000000;stroke-width:1;stroke-miterlimit:4;stroke-opacity:1;stroke-dasharray:none"
           id="rect4443-4-1-57"
           width="8.4928055"
           height="33.992805"
           x="91.510483"
           y="897.33081" />
        <path
           inkscape:connector-curvature="0"
           style="fill:#ffffff;fill-opacity:1;stroke:#000000;stroke-width:1;stroke-miterlimit:4;stroke-opacity:1;stroke-dasharray:none"
           d="m 108.04829,897.33078 0,33.9688 8.5,0 0,-19.7813 15,19.7813 0,0.094 8.5,0 0,-34 -8.5,0 0,19.9375 -15,-19.7812 0,-0.2188 -0.15625,0 -8.34375,0 z"
           id="rect4443-5-0" />
        <path
           style="fill:#ffffff;fill-opacity:1;stroke:#000000;stroke-width:1;stroke-miterlimit:4;stroke-opacity:1;stroke-dasharray:none"
           d="m 148.0933,897.33098 0,34 0,0.031 4.5625,0 3.9375,0 17.65625,0 0,-8.5 -17.65625,0 0,-4.2812 17.65625,0 0,-8.5 -17.65625,0 0,-4.25 17.65625,0 0,-8.5 -17.65625,0 -3.9375,0 -4.5625,0 z"
           id="rect4443-4-1-5-5"
           inkscape:connector-curvature="0" />
        <path
           style="fill:#ffffff;fill-opacity:1;stroke:#000000;stroke-width:1;stroke-miterlimit:4;stroke-opacity:1;stroke-dasharray:none"
           d="m -22.24955,897.33078 0,34 4.5625,0 3.9375,0 14.46875,0 3.1875,0 5.3125,0 0,-34 -4.5625,0 -3.9375,0 -14.46875,0 -3.1875,0 -5.3125,0 z m 8.5,8.5 14.46875,0 0,17 -14.46875,0 0,-17 z"
           id="rect4443-4-3-3"
           inkscape:connector-curvature="0" />
      </g>
    </g>
  </g>
</svg>
