<?xml version="1.0" encoding="UTF-8" standalone="no"?>
<!-- Created with Inkscape (http://www.inkscape.org/) -->

<svg
   width="11.006mm"
   height="3.350611mm"
   viewBox="0 0 14.006 4.2639157"
   version="1.1"
   id="svg1229"
   inkscape:version="1.2.2 (b0a8486541, 2022-12-01)"
   sodipodi:docname="NeLS_logo_small_bg.svg"
   xmlns:inkscape="http://www.inkscape.org/namespaces/inkscape"
   xmlns:sodipodi="http://sodipodi.sourceforge.net/DTD/sodipodi-0.dtd"
   xmlns="http://www.w3.org/2000/svg"
   xmlns:svg="http://www.w3.org/2000/svg"
   xmlns:rdf="http://www.w3.org/1999/02/22-rdf-syntax-ns#"
   xmlns:cc="http://creativecommons.org/ns#"
   xmlns:dc="http://purl.org/dc/elements/1.1/">
  <defs
     id="defs1223" />
  <sodipodi:namedview
     id="base"
     pagecolor="#ffffff"
     bordercolor="#666666"
     borderopacity="1.0"
     inkscape:pageopacity="0.0"
     inkscape:pageshadow="2"
     inkscape:zoom="13.512769"
     inkscape:cx="2.886159"
     inkscape:cy="-11.285622"
     inkscape:document-units="mm"
     inkscape:current-layer="text1876"
     showgrid="false"
     inkscape:window-width="1720"
     inkscape:window-height="1392"
     inkscape:window-x="3640"
     inkscape:window-y="0"
     inkscape:window-maximized="1"
     fit-margin-top="0"
     fit-margin-left="0"
     fit-margin-right="0"
     fit-margin-bottom="0"
     inkscape:showpageshadow="2"
     inkscape:pagecheckerboard="0"
     inkscape:deskcolor="#d1d1d1" />
  <metadata
     id="metadata1226">
    <rdf:RDF>
      <cc:Work
         rdf:about="">
        <dc:format>image/svg+xml</dc:format>
        <dc:type
           rdf:resource="http://purl.org/dc/dcmitype/StillImage" />
      </cc:Work>
    </rdf:RDF>
  </metadata>
  <g
     inkscape:label="Layer 1"
     inkscape:groupmode="layer"
     id="layer1"
     transform="translate(-88.652102,-24.25611)">
    <g
       id="g2052">
      <g
         aria-label="NeLS"
         style="font-style:normal;font-variant:normal;font-weight:bold;font-stretch:normal;font-size:4.52346px;line-height:1.25;font-family:Arial;-inkscape-font-specification:'Arial Bold';letter-spacing:0px;word-spacing:0px;fill:#000080;fill-opacity:1;stroke:none;stroke-width:0.106019"
         id="text1876">
        <rect
           style="opacity:1;fill:#175d91;fill-opacity:1;stroke:#b3b3b3;stroke-width:3.37875;stroke-linecap:round;stroke-linejoin:round;stroke-opacity:0"
           id="rect784"
           width="13.978227"
           height="4.2284746"
           x="88.668839"
           y="24.279564" />
        <g
           id="g686"
           transform="translate(1.4999695,0.45664334)">
          <path
             d="m 88.652102,27.54932 v -3.237987 h 0.636112 l 1.325233,2.162339 v -2.162339 h 0.607399 V 27.54932 H 90.564855 L 89.2595,25.437781 v 2.111539 z"
             style="fill:#ffffff;fill-opacity:1;stroke-width:0.106019"
             id="path2054"
             inkscape:connector-curvature="0" />
          <path
             d="m 93.266123,26.802772 0.618442,0.10381 q -0.119271,0.340143 -0.377691,0.51905 -0.256212,0.176698 -0.642739,0.176698 -0.611816,0 -0.905576,-0.399779 -0.231916,-0.320265 -0.231916,-0.808393 0,-0.583102 0.304804,-0.912202 0.304804,-0.331308 0.770844,-0.331308 0.523467,0 0.826062,0.346769 0.302595,0.344561 0.289343,1.057978 h -1.554941 q 0.0066,0.27609 0.150193,0.430701 0.143567,0.152402 0.357813,0.152402 0.145776,0 0.245169,-0.07951 0.09939,-0.07951 0.150193,-0.256212 z m 0.03534,-0.627277 q -0.0066,-0.269464 -0.139149,-0.408614 -0.132524,-0.141358 -0.322474,-0.141358 -0.203202,0 -0.335725,0.147984 -0.132524,0.147985 -0.130315,0.401988 z"
             style="fill:#ff0000;fill-opacity:1;stroke-width:0.106019"
             id="path2056"
             inkscape:connector-curvature="0" />
          <path
             d="m 94.445581,27.54932 v -3.211482 h 0.653781 v 2.665928 h 1.62562 v 0.545554 z"
             style="fill:#ffffff;fill-opacity:1;stroke-width:0.106019"
             id="path2058"
             inkscape:connector-curvature="0" />
          <path
             d="m 97.025369,26.49576 0.636112,-0.06185 q 0.05743,0.320265 0.231916,0.470458 0.176697,0.150193 0.474875,0.150193 0.315847,0 0.474875,-0.132523 0.161237,-0.134732 0.161237,-0.313639 0,-0.114853 -0.06847,-0.194367 -0.06626,-0.08172 -0.234125,-0.141358 -0.114853,-0.03976 -0.523467,-0.141359 -0.525676,-0.130314 -0.737713,-0.320264 -0.298178,-0.267256 -0.298178,-0.651574 0,-0.247376 0.139149,-0.461623 0.141359,-0.216454 0.404197,-0.329099 0.265046,-0.112645 0.638321,-0.112645 0.609607,0 0.916619,0.267255 0.309222,0.267256 0.324683,0.713418 l -0.653782,0.02871 q -0.04197,-0.249586 -0.181116,-0.357813 -0.13694,-0.110436 -0.413031,-0.110436 -0.284925,0 -0.446162,0.117062 -0.10381,0.0751 -0.10381,0.200994 0,0.114854 0.09718,0.196576 0.123689,0.10381 0.600773,0.216455 0.477084,0.112645 0.704582,0.234125 0.229707,0.119271 0.357813,0.329099 0.130315,0.20762 0.130315,0.514633 0,0.278299 -0.154611,0.521258 -0.15461,0.24296 -0.437327,0.362231 -0.282716,0.117062 -0.704582,0.117062 -0.614025,0 -0.943125,-0.282716 -0.329099,-0.284926 -0.393152,-0.828271 z"
             style="fill:#ffffff;fill-opacity:1;stroke-width:0.106019"
             id="path2060"
             inkscape:connector-curvature="0" />
        </g>
      </g>
    </g>
  </g>
</svg>
