<?xml version="1.0" encoding="iso-8859-1"?>
<!-- Generator: Adobe Illustrator 19.1.0, SVG Export Plug-In . SVG Version: 6.00 Build 0)  -->
<svg version="1.1" id="Layer_1" xmlns="http://www.w3.org/2000/svg" xmlns:xlink="http://www.w3.org/1999/xlink" x="0px" y="0px"
	 viewBox="0 0 64 64" style="enable-background:new 0 0 64 64;" xml:space="preserve">
<g>
	<polygon style="fill:#7F8C8D;" points="32,32.616 21.709,32.616 21.709,59.08 32,53.291 42.291,59.08 42.291,32.616 	"/>
	<circle style="fill:#BDC3C7;" cx="32" cy="24.478" r="19.558"/>
	<path style="fill:#7F8C8D;" d="M37.489,34.871H24.054c-0.55,0-1-0.45-1-1V15.085c0-0.55,0.45-1,1-1h13.436c0.55,0,1,0.45,1,1
		v18.786C38.489,34.421,38.039,34.871,37.489,34.871z"/>
	<g>
		<g>
			<rect x="25.253" y="17.778" style="fill:#BDC3C7;" width="11.037" height="0.691"/>
		</g>
		<g>
			<rect x="25.253" y="20.899" style="fill:#BDC3C7;" width="5.76" height="0.691"/>
		</g>
		<g>
			<rect x="25.253" y="24.02" style="fill:#BDC3C7;" width="11.037" height="0.691"/>
		</g>
		<g>
			<g>
				<rect x="31.013" y="27.142" style="fill:#BDC3C7;" width="5.277" height="0.691"/>
			</g>
			<g>
				<rect x="25.253" y="27.142" style="fill:#BDC3C7;" width="3.801" height="0.691"/>
			</g>
		</g>
		<g>
			<rect x="25.253" y="30.263" style="fill:#BDC3C7;" width="11.037" height="0.691"/>
		</g>
	</g>
	<g>
		<circle style="fill:#7F8C8D;" cx="38.489" cy="24.794" r="7.556"/>
		<path style="fill:#BDC3C7;" d="M38.49,32.864c-4.45,0-8.07-3.62-8.07-8.07s3.62-8.07,8.07-8.07c4.449,0,8.07,3.62,8.07,8.07
			S42.939,32.864,38.49,32.864z M38.49,17.753c-3.883,0-7.042,3.159-7.042,7.041s3.159,7.041,7.042,7.041
			c3.883,0,7.041-3.159,7.041-7.041S42.372,17.753,38.49,17.753z"/>
	</g>
	<g>
		<path style="fill:#BDC3C7;" d="M42.772,20.761l-4.283,1.224l-4.283-1.224c0,0-0.043,0.494,0,1.224l4.283,1.339l4.283-1.339
			C42.815,21.255,42.772,20.761,42.772,20.761z"/>
		<path style="fill:#95A5A5;" d="M34.285,22.626c0.229,2.396,1.085,6.426,4.204,7.923c3.12-1.498,3.975-5.527,4.204-7.923
			l-4.204,1.581L34.285,22.626z"/>
		<path style="fill:#BDC3C7;" d="M38.509,24.207l-4.204-1.581c0.229,2.396,1.085,6.426,4.204,7.923V24.207z"/>
	</g>
	<g>
		<path style="fill:#7F8C8D;" d="M22.365,33.459h-0.514V13.702c0-0.425,0.346-0.771,0.771-0.771h14.407
			c0.425,0,0.771,0.346,0.771,0.771h-0.514c0-0.142-0.115-0.257-0.257-0.257H22.622c-0.142,0-0.257,0.115-0.257,0.257V33.459z"/>
	</g>
</g>
</svg>
