<?xml version="1.0" encoding="iso-8859-1"?>
<!-- Generator: Adobe Illustrator 19.1.0, SVG Export Plug-In . SVG Version: 6.00 Build 0)  -->
<svg version="1.1" id="Layer_1" xmlns="http://www.w3.org/2000/svg" xmlns:xlink="http://www.w3.org/1999/xlink" x="0px" y="0px"
	 viewBox="0 0 64 64" style="enable-background:new 0 0 64 64;" xml:space="preserve">
<g>
	<polygon style="fill:#35495E;" points="32,32.616 21.709,32.616 21.709,59.08 32,53.291 42.291,59.08 42.291,32.616 	"/>
	<circle style="fill:#2C3E50;" cx="32" cy="24.478" r="19.558"/>
	<path style="fill:#FFFFFF;" d="M39.191,34.97H25.755c-0.55,0-1-0.45-1-1V15.184c0-0.55,0.45-1,1-1h13.436c0.55,0,1,0.45,1,1V33.97
		C40.191,34.52,39.741,34.97,39.191,34.97z"/>
	<g>
		<g>
			<rect x="26.955" y="17.876" style="fill:#35495E;" width="11.037" height="0.691"/>
		</g>
		<g>
			<rect x="26.955" y="20.998" style="fill:#35495E;" width="5.76" height="0.691"/>
		</g>
		<g>
			<rect x="26.955" y="24.119" style="fill:#35495E;" width="11.037" height="0.691"/>
		</g>
		<g>
			<g>
				<rect x="32.714" y="27.24" style="fill:#35495E;" width="5.277" height="0.691"/>
			</g>
			<g>
				<rect x="26.955" y="27.24" style="fill:#35495E;" width="3.801" height="0.691"/>
			</g>
		</g>
		<g>
			<rect x="26.955" y="30.362" style="fill:#35495E;" width="11.037" height="0.691"/>
		</g>
	</g>
	<g>
		<path style="fill:#FFFFFF;" d="M24.066,33.558h-0.514V13.801c0-0.425,0.346-0.771,0.771-0.771h14.408
			c0.425,0,0.771,0.346,0.771,0.771h-0.514c0-0.142-0.115-0.257-0.257-0.257H24.323c-0.142,0-0.257,0.115-0.257,0.257V33.558z"/>
	</g>
	<circle style="fill:#2C3E50;" cx="40.546" cy="24.794" r="7.556"/>
	<g>
		<path style="fill:#FFFFFF;" d="M39.995,26.986L39.995,26.986c-0.215,0.215-0.566,0.215-0.781,0l-2.136-2.136
			c-0.215-0.215-0.215-0.566,0-0.781l0,0c0.215-0.215,0.566-0.215,0.781,0l2.136,2.136C40.21,26.42,40.21,26.772,39.995,26.986z"/>
		<path style="fill:#FFFFFF;" d="M39.215,26.986L39.215,26.986c-0.215-0.215-0.215-0.566,0-0.781l4.151-4.151
			c0.215-0.215,0.566-0.215,0.781,0l0,0c0.215,0.215,0.215,0.566,0,0.781l-4.151,4.151C39.781,27.201,39.429,27.201,39.215,26.986z"
			/>
	</g>
</g>
</svg>
