<?xml version="1.0" encoding="iso-8859-1"?>
<!-- Generator: Adobe Illustrator 19.1.0, SVG Export Plug-In . SVG Version: 6.00 Build 0)  -->
<svg version="1.1" id="Layer_1" xmlns="http://www.w3.org/2000/svg" xmlns:xlink="http://www.w3.org/1999/xlink" x="0px" y="0px"
	 viewBox="0 0 64 64" style="enable-background:new 0 0 64 64;" xml:space="preserve">
<g>
	<polygon style="fill:#26B99A;" points="32,32.616 21.709,32.616 21.709,59.08 32,53.291 42.291,59.08 42.291,32.616 	"/>
	<circle style="fill:#14A085;" cx="32" cy="24.478" r="19.558"/>
	<path style="fill:#FFFFFF;" d="M31.035,16.988l-2.598-2.598h-9.093v16.886h20.783V16.988H31.035z"/>
	<g>
		<circle style="fill:#14A085;" cx="40.001" cy="30.844" r="5.434"/>
		<path style="fill:#14A085;" d="M40.001,36.793c-3.28,0-5.948-2.668-5.948-5.948c0-3.28,2.668-5.948,5.948-5.948
			s5.948,2.668,5.948,5.948C45.949,34.124,43.281,36.793,40.001,36.793z M40.001,25.924c-2.713,0-4.92,2.207-4.92,4.92
			c0,2.713,2.207,4.92,4.92,4.92s4.92-2.207,4.92-4.92C44.921,28.132,42.714,25.924,40.001,25.924z"/>
	</g>
	<polygon style="fill:#FFFFFF;" points="43.051,31.861 41.018,31.861 41.018,33.895 38.984,33.895 38.984,31.861 36.951,31.861 
		36.951,29.828 38.984,29.828 38.984,27.794 41.018,27.794 41.018,29.828 43.051,29.828 	"/>
</g>
</svg>
