<?xml version="1.0" encoding="iso-8859-1"?>
<!-- Generator: Adobe Illustrator 19.1.0, SVG Export Plug-In . SVG Version: 6.00 Build 0)  -->
<svg version="1.1" id="Layer_1" xmlns="http://www.w3.org/2000/svg" xmlns:xlink="http://www.w3.org/1999/xlink" x="0px" y="0px"
	 viewBox="0 0 64 64" style="enable-background:new 0 0 64 64;" xml:space="preserve">
<g>
	<polygon style="fill:#CCA72C;" points="32,32.616 21.709,32.616 21.709,59.08 32,53.291 42.291,59.08 42.291,32.616 	"/>
	<circle style="fill:#F0C419;" cx="32" cy="24.478" r="19.558"/>
	<g>
		<path style="fill:#CCA72C;" d="M42.507,13.62L32,16.622L21.493,13.62c0,0-0.105,1.213,0,3.002L32,19.908l10.507-3.286
			C42.612,14.833,42.507,13.62,42.507,13.62z"/>
		<path style="fill:#9D822F;" d="M21.685,18.197c0.563,5.88,2.661,15.767,10.315,19.44c7.654-3.675,9.752-13.56,10.315-19.44
			L32,22.075L21.685,18.197z"/>
		<path style="fill:#CCA72C;" d="M32.048,22.075l-10.315-3.879c0.563,5.88,2.661,15.767,10.315,19.44V22.075z"/>
	</g>
</g>
</svg>
