<?xml version="1.0" encoding="iso-8859-1"?>
<!-- Generator: Adobe Illustrator 19.1.0, SVG Export Plug-In . SVG Version: 6.00 Build 0)  -->
<svg version="1.1" id="Layer_1" xmlns="http://www.w3.org/2000/svg" xmlns:xlink="http://www.w3.org/1999/xlink" x="0px" y="0px"
	 viewBox="0 0 64 64" style="enable-background:new 0 0 64 64;" xml:space="preserve">
<g>
	<polygon style="fill:#2980BA;" points="32,32.616 21.709,32.616 21.709,59.08 32,53.291 42.291,59.08 42.291,32.616 	"/>
	<circle style="fill:#3B97D3;" cx="32" cy="24.478" r="19.558"/>
	<g>
		<defs>
			<circle id="SVGID_53_" cx="32" cy="23.45" r="14.043"/>
		</defs>
		<clipPath id="SVGID_2_">
			<use xlink:href="#SVGID_53_"  style="overflow:visible;"/>
		</clipPath>
		<path style="clip-path:url(#SVGID_2_);fill:#2980BA;" d="M43.166,35.584c0,1.269-0.386,2.271-1.158,3.006
			c-0.772,0.735-1.798,1.102-3.077,1.102H25.069c-1.28,0-2.305-0.367-3.077-1.102c-0.772-0.735-1.158-1.737-1.158-3.006
			c0-0.56,0.019-1.108,0.056-1.641s0.111-1.11,0.222-1.729c0.111-0.619,0.251-1.192,0.42-1.721c0.169-0.529,0.397-1.044,0.682-1.546
			c0.286-0.502,0.613-0.931,0.984-1.285c0.37-0.355,0.822-0.638,1.356-0.849s1.123-0.317,1.768-0.318
			c0.095,0,0.317,0.114,0.666,0.341c0.349,0.227,0.742,0.481,1.182,0.761c0.439,0.28,1.01,0.534,1.713,0.761S31.291,28.7,32,28.7
			c0.709,0,1.415-0.114,2.118-0.341s1.273-0.481,1.713-0.761c0.439-0.28,0.833-0.534,1.182-0.761
			c0.349-0.227,0.571-0.341,0.666-0.341c0.645,0,1.234,0.106,1.768,0.318s0.986,0.495,1.356,0.849
			c0.37,0.354,0.698,0.782,0.984,1.285c0.286,0.503,0.513,1.018,0.682,1.546c0.169,0.528,0.309,1.101,0.42,1.721
			s0.185,1.195,0.222,1.729C43.148,34.475,43.166,35.023,43.166,35.584z M38.091,21.419c0,1.681-0.595,3.116-1.785,4.306
			c-1.19,1.19-2.625,1.785-4.306,1.785c-1.681,0-3.116-0.595-4.306-1.785c-1.19-1.19-1.785-2.625-1.785-4.306
			c0-1.681,0.595-3.116,1.785-4.306s2.625-1.785,4.306-1.785s3.116,0.595,4.306,1.785C37.496,18.303,38.091,19.738,38.091,21.419z"
			/>
	</g>
</g>
</svg>
