<?xml version="1.0" encoding="iso-8859-1"?>
<!-- Generator: Adobe Illustrator 19.1.0, SVG Export Plug-In . SVG Version: 6.00 Build 0)  -->
<svg version="1.1" id="Layer_1" xmlns="http://www.w3.org/2000/svg" xmlns:xlink="http://www.w3.org/1999/xlink" x="0px" y="0px"
	 viewBox="0 0 64 64" style="enable-background:new 0 0 64 64;" xml:space="preserve">
<g>
	<polygon style="fill:#E57E25;" points="32,32.616 21.709,32.616 21.709,59.08 32,53.291 42.291,59.08 42.291,32.616 	"/>
	<circle style="fill:#D25627;" cx="32" cy="24.478" r="19.558"/>
	<path style="fill:#FFFFFF;" d="M36.846,28.851c0,0.897-0.273,1.605-0.819,2.125c-0.546,0.52-1.271,0.779-2.175,0.779h-9.8
		c-0.905,0-1.63-0.26-2.175-0.779c-0.545-0.52-0.818-1.228-0.819-2.125c0-0.396,0.013-0.783,0.039-1.16
		c0.026-0.377,0.079-0.785,0.157-1.222c0.078-0.437,0.177-0.843,0.297-1.216s0.28-0.738,0.482-1.093s0.434-0.658,0.695-0.909
		s0.581-0.451,0.959-0.6c0.377-0.149,0.794-0.224,1.25-0.225c0.067,0,0.224,0.08,0.471,0.241s0.525,0.34,0.835,0.538
		c0.31,0.198,0.714,0.377,1.211,0.538c0.497,0.161,0.996,0.241,1.497,0.241c0.501,0,1-0.08,1.497-0.241s0.9-0.34,1.211-0.538
		c0.31-0.198,0.589-0.377,0.835-0.538s0.403-0.241,0.471-0.241c0.456,0,0.873,0.075,1.25,0.225c0.377,0.15,0.697,0.35,0.959,0.6
		c0.262,0.25,0.493,0.553,0.695,0.909c0.202,0.355,0.363,0.72,0.482,1.093c0.12,0.373,0.219,0.779,0.297,1.216
		s0.131,0.845,0.157,1.222C36.833,28.067,36.846,28.454,36.846,28.851z M33.258,18.838c0,1.188-0.421,2.203-1.262,3.044
		s-1.856,1.262-3.044,1.262s-2.203-0.421-3.044-1.262c-0.841-0.841-1.262-1.856-1.262-3.044c0-1.188,0.421-2.203,1.262-3.044
		c0.841-0.841,1.856-1.262,3.044-1.262c1.188,0,2.203,0.421,3.044,1.262C32.838,16.635,33.258,17.649,33.258,18.838z"/>
	<circle style="fill:#D25627;" cx="39.989" cy="29.122" r="5.434"/>
	<polygon style="fill:#FFFFFF;" points="43.039,30.139 41.005,30.139 41.005,32.172 38.972,32.172 38.972,30.139 36.938,30.139 
		36.938,28.105 38.972,28.105 38.972,26.072 41.005,26.072 41.005,28.105 43.039,28.105 	"/>
</g>
</svg>
