<?xml version="1.0" encoding="iso-8859-1"?>
<!-- Generator: Adobe Illustrator 19.1.0, SVG Export Plug-In . SVG Version: 6.00 Build 0)  -->
<svg version="1.1" id="Layer_1" xmlns="http://www.w3.org/2000/svg" xmlns:xlink="http://www.w3.org/1999/xlink" x="0px" y="0px"
	 viewBox="0 0 64 64" style="enable-background:new 0 0 64 64;" xml:space="preserve">
<g>
	<g>
		<path style="fill:#2C3E50;" d="M19.849,36.938l-5.34-8.898v-3.604h0.54c0.297,0,0.54-0.243,0.54-0.54s-0.243-0.54-0.54-0.54H9.647
			c-0.297,0-0.54,0.243-0.54,0.54s0.243,0.54,0.54,0.54h0.54v3.604l-5.34,8.898c-1.223,2.038-0.279,3.706,2.098,3.706H17.75
			C20.128,40.644,21.072,38.976,19.849,36.938z M7.773,34.161l3.494-5.823v-3.901h2.161v3.901l3.494,5.823H7.773L7.773,34.161z"/>
		<path style="fill:#2C3E50;" d="M59.153,36.938l-5.34-8.898v-3.604h0.54c0.297,0,0.54-0.243,0.54-0.54s-0.243-0.54-0.54-0.54
			h-5.402c-0.297,0-0.54,0.243-0.54,0.54s0.243,0.54,0.54,0.54h0.54v3.604l-5.34,8.898c-1.223,2.038-0.279,3.706,2.098,3.706h10.805
			C59.431,40.644,60.376,38.976,59.153,36.938z M47.077,34.161l3.494-5.823v-3.901h2.161v3.901l3.494,5.823H47.077L47.077,34.161z"
			/>
	</g>
	<g>
		<g>
			<path style="fill:#3B97D3;" d="M45.635,49.069c0,0.472-0.416,0.852-0.93,0.852H19.294c-0.513,0-0.929-0.381-0.929-0.852V14.932
				c0-0.472,0.416-0.854,0.929-0.854h25.412c0.514,0,0.93,0.382,0.93,0.854V49.069z"/>
			<g>
				<g>
					<g>
						<rect x="29.663" y="21.542" style="fill:#FFFFFF;" width="4.674" height="3.091"/>
					</g>
					<g>
						<rect x="29.663" y="25.998" style="fill:#FFFFFF;" width="4.674" height="3.09"/>
					</g>
					<g>
						<rect x="29.663" y="30.454" style="fill:#FFFFFF;" width="4.674" height="3.091"/>
					</g>
					<g>
						<rect x="29.663" y="34.912" style="fill:#FFFFFF;" width="4.674" height="3.09"/>
					</g>
					<g>
						<rect x="29.663" y="39.368" style="fill:#FFFFFF;" width="4.674" height="3.09"/>
					</g>
				</g>
				<g>
					<g>
						<rect x="22.768" y="21.542" style="fill:#FFFFFF;" width="4.674" height="3.091"/>
					</g>
					<g>
						<rect x="22.768" y="25.998" style="fill:#FFFFFF;" width="4.674" height="3.09"/>
					</g>
					<g>
						<rect x="22.768" y="30.454" style="fill:#FFFFFF;" width="4.674" height="3.091"/>
					</g>
					<g>
						<rect x="22.768" y="34.912" style="fill:#FFFFFF;" width="4.674" height="3.09"/>
					</g>
					<g>
						<rect x="22.768" y="39.368" style="fill:#FFFFFF;" width="4.674" height="3.09"/>
					</g>
				</g>
				<g>
					<g>
						<rect x="36.558" y="21.542" style="fill:#FFFFFF;" width="4.674" height="3.091"/>
					</g>
					<g>
						<rect x="36.558" y="25.998" style="fill:#FFFFFF;" width="4.674" height="3.09"/>
					</g>
					<g>
						<rect x="36.558" y="30.454" style="fill:#FFFFFF;" width="4.674" height="3.091"/>
					</g>
					<g>
						<rect x="36.558" y="34.912" style="fill:#FFFFFF;" width="4.674" height="3.09"/>
					</g>
					<g>
						<rect x="36.558" y="39.368" style="fill:#FFFFFF;" width="4.674" height="3.09"/>
					</g>
				</g>
			</g>
		</g>
	</g>
</g>
</svg>
