<?xml version="1.0" encoding="iso-8859-1"?>
<!-- Generator: Adobe Illustrator 19.1.0, SVG Export Plug-In . SVG Version: 6.00 Build 0)  -->
<svg version="1.1" id="Layer_1" xmlns="http://www.w3.org/2000/svg" xmlns:xlink="http://www.w3.org/1999/xlink" x="0px" y="0px"
	 viewBox="0 0 64 64" style="enable-background:new 0 0 64 64;" xml:space="preserve">
<g>
	<g>
		<path style="fill:#FFFFFF;stroke:#2C3E50;stroke-miterlimit:10;" d="M45.294,49.087c0,0.472-0.416,0.852-0.93,0.852H18.952
			c-0.513,0-0.929-0.381-0.929-0.852V14.95c0-0.472,0.416-0.854,0.929-0.854h25.412c0.514,0,0.93,0.382,0.93,0.854V49.087z"/>
	</g>
</g>
<g>
	<path style="fill:#3B97D3;" d="M24.333,32.427l4.661,1.965v1.182l-5.682-2.47v-1.341l5.682-2.469v1.182L24.333,32.427z"/>
	<path style="fill:#3B97D3;" d="M29.182,38.309l4.209-12.388h1.302l-4.209,12.388H29.182z"/>
	<path style="fill:#3B97D3;" d="M38.984,32.374l-4.661-1.965v-1.182l5.682,2.47v1.341l-5.682,2.47v-1.182L38.984,32.374z"/>
</g>
</svg>
