<?xml version="1.0" encoding="iso-8859-1"?>
<!-- Generator: Adobe Illustrator 19.1.0, SVG Export Plug-In . SVG Version: 6.00 Build 0)  -->
<svg version="1.1" id="Layer_1" xmlns="http://www.w3.org/2000/svg" xmlns:xlink="http://www.w3.org/1999/xlink" x="0px" y="0px"
	 viewBox="0 0 64 64" style="enable-background:new 0 0 64 64;" xml:space="preserve">
<g>
	<path style="fill:#2C3E50;" d="M39.058,22.532h2c0.553,0,1-0.448,1-1v-6c0-0.552-0.447-1-1-1h-2c-0.553,0-1,0.448-1,1v6
		C38.058,22.084,38.505,22.532,39.058,22.532z"/>
	<path style="fill:#2C3E50;" d="M23.058,22.532h2c0.552,0,1-0.448,1-1v-6c0-0.552-0.448-1-1-1h-2c-0.552,0-1,0.448-1,1v6
		C22.058,22.084,22.506,22.532,23.058,22.532z"/>
	<path style="fill:#2C3E50;" d="M46.058,18.532h-2v5c0,0.552-0.447,1-1,1h-6c-0.553,0-1-0.448-1-1v-5h-8v5c0,0.552-0.448,1-1,1h-6
		c-0.552,0-1-0.448-1-1v-5h-2c-1.104,0-2,0.896-2,2v24c0,1.104,0.896,2,2,2h28c1.104,0,2-0.896,2-2v-24
		C48.058,19.428,47.162,18.532,46.058,18.532z M46.058,43.532c0,0.553-0.447,1-1,1h-26c-0.552,0-1-0.447-1-1v-16
		c0-0.552,0.448-1,1-1h26c0.553,0,1,0.448,1,1V43.532z"/>
</g>
<g>
	<path style="fill:#3B97D3;" d="M26.947,41.324v-9.418h-2.17v-1.662h4.037v11.08H26.947z"/>
	<path style="fill:#3B97D3;" d="M34.921,41.324h-1.979l4.305-9.402h-4.305l-0.017,1.552h-1.645v-3.229h8.057v1.425L34.921,41.324z"
		/>
</g>
</svg>
