<?xml version="1.0" encoding="UTF-8" standalone="no"?>
<!-- Generator: Adobe Illustrator 19.1.0, SVG Export Plug-In . SVG Version: 6.00 Build 0)  -->

<svg
   xmlns:dc="http://purl.org/dc/elements/1.1/"
   xmlns:cc="http://creativecommons.org/ns#"
   xmlns:rdf="http://www.w3.org/1999/02/22-rdf-syntax-ns#"
   xmlns:svg="http://www.w3.org/2000/svg"
   xmlns="http://www.w3.org/2000/svg"
   xmlns:sodipodi="http://sodipodi.sourceforge.net/DTD/sodipodi-0.dtd"
   xmlns:inkscape="http://www.inkscape.org/namespaces/inkscape"
   version="1.1"
   id="Layer_1"
   x="0px"
   y="0px"
   viewBox="0 0 64 64"
   style="enable-background:new 0 0 64 64;"
   xml:space="preserve"
   inkscape:version="0.91 r13725"
   sodipodi:docname="avatar-workflow.svg"
   inkscape:export-filename="/home/finn/workspace/seek/app/assets/images/avatars/avatar-workflow.png"
   inkscape:export-xdpi="90"
   inkscape:export-ydpi="90"><metadata
     id="metadata13"><rdf:RDF><cc:Work
         rdf:about=""><dc:format>image/svg+xml</dc:format><dc:type
           rdf:resource="http://purl.org/dc/dcmitype/StillImage" /><dc:title></dc:title></cc:Work></rdf:RDF></metadata><defs
     id="defs11" /><sodipodi:namedview
     pagecolor="#ffffff"
     bordercolor="#666666"
     borderopacity="1"
     objecttolerance="10"
     gridtolerance="10"
     guidetolerance="10"
     inkscape:pageopacity="0"
     inkscape:pageshadow="2"
     inkscape:window-width="1920"
     inkscape:window-height="912"
     id="namedview9"
     showgrid="false"
     inkscape:zoom="10.429825"
     inkscape:cx="42.25343"
     inkscape:cy="31.131162"
     inkscape:window-x="0"
     inkscape:window-y="0"
     inkscape:window-maximized="1"
     inkscape:current-layer="Layer_1" /><path
     style="display:inline;opacity:1;fill:#2c3e50;fill-opacity:1;stroke:none"
     d="m 29.794029,10.720832 -2.19,5.541145 a 16.359494,16.359494 0 0 0 -3.628484,1.498556 l -5.461906,-2.36702 -3.119798,3.119816 2.370212,5.468924 a 16.359494,16.359494 0 0 0 -1.516457,3.627204 l -5.526436,2.184248 0,4.412591 5.541134,2.190005 a 16.359494,16.359494 0 0 0 1.49856,3.628483 l -2.367013,5.461256 3.119798,3.120448 5.468291,-2.37021 a 16.359494,16.359494 0 0 0 3.627851,1.516455 l 2.184248,5.526435 4.412581,0 2.189364,-5.540502 a 16.359494,16.359494 0 0 0 3.628483,-1.499193 l 5.461898,2.367015 3.120448,-3.120448 -2.370211,-5.468282 a 16.359494,16.359494 0 0 0 1.516452,-3.627214 l 5.525796,-2.184248 0,-4.412591 -5.540497,-2.190004 a 16.359494,16.359494 0 0 0 -1.498551,-3.627834 l 2.367011,-5.462538 -3.120449,-3.119816 -5.468286,2.370219 a 16.359494,16.359494 0 0 0 -3.627843,-1.516455 l -2.183615,-5.526445 -4.412582,0 z m 1.847471,11.47019 a 9.815696,9.815696 0 0 1 6.935527,2.522296 9.815696,9.815696 0 0 1 0.709981,13.86339 9.815696,9.815696 0 0 1 -13.863399,0.70998 9.815696,9.815696 0 0 1 -0.709972,-13.863391 9.815696,9.815696 0 0 1 6.927863,-3.232275 z"
     id="path4405"
     inkscape:connector-curvature="0" /></svg>