<?xml version="1.0" encoding="iso-8859-1"?>
<!-- Generator: Adobe Illustrator 19.1.0, SVG Export Plug-In . SVG Version: 6.00 Build 0)  -->
<svg version="1.1" id="Layer_1" xmlns="http://www.w3.org/2000/svg" xmlns:xlink="http://www.w3.org/1999/xlink" x="0px" y="0px"
	 viewBox="0 0 64 64" style="enable-background:new 0 0 64 64;" xml:space="preserve">
<g>
	<g>
		<path style="fill:#FFFFFF;stroke:#2C3E50;stroke-miterlimit:10;" d="M47.287,49.634c0,0.472-0.416,0.852-0.93,0.852H20.945
			c-0.513,0-0.929-0.381-0.929-0.852V15.497c0-0.472,0.416-0.854,0.929-0.854h25.412c0.514,0,0.93,0.382,0.93,0.854V49.634z"/>
		<rect x="31.314" y="22.107" style="fill:#2C3E50;" width="4.674" height="3.091"/>
		<rect x="31.314" y="26.563" style="fill:#3B97D3;" width="4.674" height="3.09"/>
		<rect x="31.314" y="31.019" style="fill:#3B97D3;" width="4.674" height="3.091"/>
		<rect x="31.314" y="35.477" style="fill:#3B97D3;" width="4.674" height="3.09"/>
		<rect x="31.314" y="39.933" style="fill:#3B97D3;" width="4.674" height="3.09"/>
		<rect x="24.419" y="22.107" style="fill:#2C3E50;" width="4.674" height="3.091"/>
		<rect x="24.419" y="26.563" style="fill:#3B97D3;" width="4.674" height="3.09"/>
		<rect x="24.419" y="31.019" style="fill:#3B97D3;" width="4.674" height="3.091"/>
		<rect x="24.419" y="35.477" style="fill:#3B97D3;" width="4.674" height="3.09"/>
		<rect x="24.419" y="39.933" style="fill:#3B97D3;" width="4.674" height="3.09"/>
		<rect x="38.21" y="22.107" style="fill:#2C3E50;" width="4.674" height="3.091"/>
		<rect x="38.21" y="26.563" style="fill:#3B97D3;" width="4.674" height="3.09"/>
		<rect x="38.21" y="31.019" style="fill:#3B97D3;" width="4.674" height="3.091"/>
		<rect x="38.21" y="35.477" style="fill:#3B97D3;" width="4.674" height="3.09"/>
		<rect x="38.21" y="39.933" style="fill:#3B97D3;" width="4.674" height="3.09"/>
	</g>
</g>
</svg>
