<?xml version="1.0" encoding="iso-8859-1"?>
<!-- Generator: Adobe Illustrator 19.1.0, SVG Export Plug-In . SVG Version: 6.00 Build 0)  -->
<svg version="1.1" id="Layer_1" xmlns="http://www.w3.org/2000/svg" xmlns:xlink="http://www.w3.org/1999/xlink" x="0px" y="0px"
	 viewBox="0 0 64 64" style="enable-background:new 0 0 64 64;" xml:space="preserve">
<g>
	<g>
		<g>
			<path style="fill:#FFFFFF;" d="M44.546,49.069c0,0.472-0.416,0.852-0.93,0.852H18.204c-0.513,0-0.929-0.381-0.929-0.852V14.932
				c0-0.472,0.416-0.854,0.929-0.854h25.412c0.514,0,0.93,0.382,0.93,0.854V49.069z"/>
			<path style="fill:#2C3E50;" d="M43.616,50.422H18.204c-0.788,0-1.43-0.607-1.43-1.353V14.932c0-0.747,0.642-1.354,1.43-1.354
				h25.412c0.788,0,1.43,0.607,1.43,1.354v34.137C45.046,49.815,44.404,50.422,43.616,50.422z M18.204,14.578
				c-0.233,0-0.43,0.162-0.43,0.354v34.137c0,0.194,0.192,0.353,0.43,0.353h25.412c0.237,0,0.43-0.158,0.43-0.353V14.932
				c0-0.192-0.196-0.354-0.43-0.354H18.204z"/>
		</g>
	</g>
</g>
<g>
	<rect x="20.812" y="18.521" style="fill:#2C3E50;" width="19.676" height="2"/>
</g>
<g>
	<rect x="20.812" y="25.695" style="fill:#2C3E50;" width="8.128" height="0.927"/>
</g>
<g>
	<rect x="20.812" y="28.514" style="fill:#2C3E50;" width="8.128" height="0.927"/>
</g>
<g>
	<rect x="20.812" y="31.333" style="fill:#2C3E50;" width="8.128" height="0.927"/>
</g>
<g>
	<rect x="20.812" y="22.887" style="fill:#2C3E50;" width="8.129" height="0.905"/>
</g>
<rect x="32.131" y="22.708" style="fill:#3B97D3;" width="8.174" height="8.75"/>
<g>
	<g>
		<rect x="20.812" y="34.162" style="fill:#2C3E50;" width="8.129" height="0.905"/>
	</g>
	<g>
		<rect x="32.112" y="34.115" style="fill:#2C3E50;" width="8.174" height="1"/>
	</g>
</g>
<g>
	<g>
		<rect x="20.812" y="36.98" style="fill:#2C3E50;" width="8.129" height="0.905"/>
	</g>
	<g>
		<rect x="32.112" y="37.108" style="fill:#2C3E50;" width="8.174" height="1"/>
	</g>
</g>
<g>
	<g>
		<rect x="32.112" y="39.752" style="fill:#2C3E50;" width="8.174" height="1"/>
	</g>
	<g>
		<rect x="20.812" y="39.799" style="fill:#2C3E50;" width="8.129" height="0.905"/>
	</g>
</g>
<g>
	<g>
		<rect x="32.112" y="45.464" style="fill:#2C3E50;" width="8.174" height="1"/>
	</g>
	<g>
		<rect x="20.812" y="45.39" style="fill:#2C3E50;" width="8.174" height="1"/>
	</g>
</g>
<g>
	<g>
		<rect x="32.112" y="42.571" style="fill:#2C3E50;" width="8.174" height="1"/>
	</g>
	<g>
		<rect x="20.812" y="42.618" style="fill:#2C3E50;" width="8.174" height="0.905"/>
	</g>
</g>
</svg>
