<?xml version="1.0" encoding="iso-8859-1"?>
<!-- Generator: Adobe Illustrator 19.1.0, SVG Export Plug-In . SVG Version: 6.00 Build 0)  -->
<svg version="1.1" id="Layer_1" xmlns="http://www.w3.org/2000/svg" xmlns:xlink="http://www.w3.org/1999/xlink" x="0px" y="0px"
	 viewBox="0 0 64 64" style="enable-background:new 0 0 64 64;" xml:space="preserve">
<g>
	<path style="fill:#2C3E50;" d="M22.248,37.084l-5.928-9.878v-4.001h0.6c0.33,0,0.6-0.27,0.6-0.6c0-0.33-0.27-0.6-0.6-0.6h-5.997
		c-0.33,0-0.6,0.27-0.6,0.6c0,0.33,0.27,0.6,0.6,0.6h0.6v4.001l-5.928,9.878c-1.358,2.263-0.309,4.114,2.329,4.114h11.995
		C22.557,41.198,23.606,39.347,22.248,37.084z M8.843,34.001l3.879-6.465v-4.331h2.399v4.331L19,34.001H8.843L8.843,34.001z"/>
	<path style="fill:#2C3E50;" d="M58.065,37.084l-5.928-9.878v-4.001h0.6c0.33,0,0.6-0.27,0.6-0.6c0-0.33-0.27-0.6-0.6-0.6h-5.997
		c-0.33,0-0.6,0.27-0.6,0.6c0,0.33,0.27,0.6,0.6,0.6h0.6v4.001l-5.928,9.878c-1.358,2.263-0.309,4.114,2.329,4.114h11.995
		C58.374,41.198,59.422,39.347,58.065,37.084z M44.659,34.001l3.879-6.465v-4.331h2.399v4.331l3.879,6.465H44.659L44.659,34.001z"/>
	<path style="fill:#3B97D3;" d="M44.786,40.033l-9.117-15.192v-6.153h0.922c0.507,0,0.922-0.415,0.922-0.922
		s-0.415-0.922-0.922-0.922h-9.224c-0.507,0-0.922,0.415-0.922,0.922s0.415,0.922,0.922,0.922h0.922v6.153l-9.117,15.192
		c-2.088,3.48-0.476,6.328,3.583,6.328h18.448C45.262,46.361,46.874,43.514,44.786,40.033z M24.169,35.292l5.966-9.943v-6.661h3.69
		v6.661l5.966,9.943H24.169L24.169,35.292z"/>
</g>
</svg>
