<?xml version="1.0" encoding="iso-8859-1"?>
<!-- Generator: Adobe Illustrator 19.1.0, SVG Export Plug-In . SVG Version: 6.00 Build 0)  -->
<svg version="1.1" id="Layer_1" xmlns="http://www.w3.org/2000/svg" xmlns:xlink="http://www.w3.org/1999/xlink" x="0px" y="0px"
	 viewBox="0 0 64 64" style="enable-background:new 0 0 64 64;" xml:space="preserve">
<g>
	<polygon style="fill:#FFFFFF;" points="17.6,27.036 31.66,19.931 46.022,27.036 31.811,34.293 	"/>
	<path style="fill:#2C3E50;" d="M31.811,35.049c-0.118,0-0.235-0.027-0.344-0.083L17.256,27.71c-0.254-0.129-0.413-0.39-0.412-0.675
		s0.161-0.545,0.415-0.673l14.06-7.105c0.214-0.107,0.464-0.108,0.676-0.003l14.362,7.105c0.256,0.127,0.419,0.387,0.421,0.673
		s-0.157,0.548-0.412,0.678l-14.211,7.256C32.046,35.021,31.929,35.049,31.811,35.049z M19.269,27.04l12.542,6.404l12.528-6.397
		l-12.676-6.271L19.269,27.04z"/>
</g>
<g>
	<polygon style="fill:#3B97D3;" points="17.607,43.3 31.666,36.195 46.028,43.3 31.817,50.557 	"/>
	<path style="fill:#2C3E50;" d="M31.818,51.312c-0.118,0-0.235-0.027-0.344-0.083l-14.211-7.256
		c-0.254-0.129-0.413-0.39-0.412-0.675s0.161-0.545,0.415-0.673l14.06-7.105c0.214-0.107,0.464-0.108,0.676-0.003l14.362,7.105
		c0.256,0.127,0.419,0.387,0.421,0.673s-0.157,0.548-0.412,0.678L32.161,51.23C32.053,51.285,31.936,51.312,31.818,51.312z
		 M19.276,43.304l12.542,6.404l12.528-6.397L31.67,37.04L19.276,43.304z"/>
</g>
<g>
	<path style="fill:#2C3E50;" d="M17.607,44.056c-0.417,0-0.756-0.338-0.756-0.756V27.51c0-0.417,0.339-0.756,0.756-0.756
		s0.756,0.338,0.756,0.756V43.3C18.362,43.718,18.024,44.056,17.607,44.056z"/>
</g>
<g>
	<path style="fill:#2C3E50;" d="M31.666,36.951c-0.417,0-0.756-0.338-0.756-0.756V20.404c0-0.417,0.339-0.756,0.756-0.756
		c0.417,0,0.756,0.338,0.756,0.756v15.791C32.422,36.612,32.083,36.951,31.666,36.951z"/>
</g>
<g>
	<path style="fill:#2C3E50;" d="M46.028,44.056c-0.417,0-0.756-0.338-0.756-0.756V27.51c0-0.417,0.339-0.756,0.756-0.756
		s0.756,0.338,0.756,0.756V43.3C46.784,43.718,46.445,44.056,46.028,44.056z"/>
</g>
<g>
	<path style="fill:#2C3E50;" d="M31.818,51.312c-0.417,0-0.756-0.338-0.756-0.756V34.766c0-0.417,0.339-0.756,0.756-0.756
		c0.417,0,0.756,0.338,0.756,0.756v15.791C32.573,50.974,32.234,51.312,31.818,51.312z"/>
</g>
<path style="fill:#2C3E50;" d="M34.045,10.417l-1.946-3.37c-0.178-0.31-0.688-0.31-0.865,0l-1.945,3.37
	c-0.09,0.155-0.09,0.345,0,0.5c0.089,0.155,0.254,0.25,0.433,0.25h1.189v5.547c0,0.417,0.339,0.756,0.756,0.756
	c0.417,0,0.756-0.338,0.756-0.756v-5.547h1.19c0.179,0,0.344-0.095,0.433-0.25C34.135,10.762,34.135,10.572,34.045,10.417z"/>
<path style="fill:#2C3E50;" d="M56.943,50.166l-1.649-3.524c-0.076-0.162-0.232-0.271-0.41-0.286
	c-0.176-0.019-0.352,0.065-0.453,0.212l-0.681,0.975L49.2,44.368c-0.342-0.239-0.812-0.155-1.053,0.187
	c-0.238,0.342-0.155,0.813,0.188,1.052l4.549,3.175l-0.681,0.976c-0.103,0.146-0.118,0.336-0.043,0.498
	c0.076,0.162,0.232,0.271,0.41,0.286l3.876,0.333c0.015,0.001,0.028,0.002,0.043,0.002c0.162,0,0.316-0.079,0.41-0.214
	C57.002,50.518,57.018,50.328,56.943,50.166z"/>
<path style="fill:#2C3E50;" d="M15.285,44.581c-0.225-0.351-0.691-0.454-1.044-0.229l-4.673,2.99l-0.641-1.002
	c-0.096-0.151-0.289-0.245-0.443-0.23c-0.179,0.008-0.339,0.111-0.422,0.27l-1.79,3.455c-0.082,0.159-0.073,0.349,0.023,0.5
	c0.092,0.144,0.251,0.23,0.421,0.23c0.008,0,0.016,0,0.022,0l3.888-0.177c0.179-0.008,0.339-0.111,0.422-0.27
	c0.082-0.159,0.073-0.349-0.023-0.5l-0.641-1.002l4.673-2.989C15.407,45.4,15.51,44.932,15.285,44.581z"/>
</svg>
