<?xml version="1.0" encoding="iso-8859-1"?>
<!-- Generator: Adobe Illustrator 19.1.0, SVG Export Plug-In . SVG Version: 6.00 Build 0)  -->
<svg version="1.1" id="Layer_1" xmlns="http://www.w3.org/2000/svg" xmlns:xlink="http://www.w3.org/1999/xlink" x="0px" y="0px"
	 viewBox="0 0 64 64" style="enable-background:new 0 0 64 64;" xml:space="preserve">
<g>
	<g>
		<g>
			<path style="fill:#2C3E50;" d="M49.107,50H15.558c-0.98,0-1.748-0.602-1.748-1.372V14.587c0-0.77,0.767-1.373,1.748-1.373h33.548
				c0.98,0,1.749,0.603,1.749,1.373v34.041C50.855,49.398,50.087,50,49.107,50z M15.558,14.258c-0.43,0-0.704,0.217-0.704,0.33
				v34.041c0,0.113,0.274,0.328,0.704,0.328h33.548c0.431,0,0.705-0.216,0.705-0.328V14.587c0-0.113-0.274-0.33-0.705-0.33H15.558z"
				/>
		</g>
	</g>
</g>
<g>
	<g>
		<g>
			<path style="fill:#2C3E50;" d="M46.181,42.887H18.76c-0.869,0-1.524-0.478-1.524-1.113V18.083c0-0.635,0.655-1.114,1.524-1.114
				h27.421c0.869,0,1.524,0.479,1.524,1.114v23.691C47.705,42.408,47.05,42.887,46.181,42.887z M18.293,41.766
				c0.048,0,0.211,0.077,0.467,0.077h27.421c0.259,0,0.423-0.079,0.481-0.125V18.083c-0.009,0.033-0.179-0.071-0.481-0.071H18.76
				c-0.299,0-0.471,0.105-0.499,0.144l0.018,23.617C18.28,41.768,18.285,41.766,18.293,41.766z"/>
		</g>
	</g>
</g>
<path style="fill:#3B97D3;" d="M41.862,23.356c0,1.556-1.261,2.817-2.817,2.817c-1.556,0-2.817-1.261-2.817-2.817
	c0-1.556,1.261-2.817,2.817-2.817C40.601,20.539,41.862,21.8,41.862,23.356z"/>
<path style="fill:#3B97D3;" d="M43.74,39.321H21.201v-3.757l6.574-11.27l7.513,9.391h1.878l6.574-5.635V39.321z"/>
<g>
	<rect x="32.471" y="45.235" style="fill:#2C3E50;" width="14.713" height="1.043"/>
</g>
</svg>
