<?xml version="1.0" encoding="iso-8859-1"?>
<!-- Generator: Adobe Illustrator 19.1.0, SVG Export Plug-In . SVG Version: 6.00 Build 0)  -->
<svg version="1.1" id="Layer_1" xmlns="http://www.w3.org/2000/svg" xmlns:xlink="http://www.w3.org/1999/xlink" x="0px" y="0px"
	 viewBox="0 0 64 64" style="enable-background:new 0 0 64 64;" xml:space="preserve">
<g>
	<path style="fill:#2C3E50;" d="M27.188,48.419L20.87,37.892v-4.264h0.639c0.352,0,0.639-0.288,0.639-0.639
		s-0.288-0.639-0.639-0.639h-6.392c-0.352,0-0.639,0.288-0.639,0.639s0.288,0.639,0.639,0.639h0.639v4.264L9.438,48.419
		c-1.447,2.412-0.33,4.385,2.483,4.385h12.784C27.517,52.804,28.635,50.831,27.188,48.419z M12.9,45.134l4.134-6.89v-4.616h2.557
		v4.616l4.134,6.89H12.9L12.9,45.134z"/>
	<path style="fill:#2C3E50;" d="M57.171,48.419l-6.318-10.528v-4.264h0.639c0.352,0,0.639-0.288,0.639-0.639
		s-0.288-0.639-0.639-0.639h-6.392c-0.352,0-0.639,0.288-0.639,0.639s0.288,0.639,0.639,0.639h0.639v4.264l-6.318,10.528
		c-1.447,2.412-0.33,4.385,2.483,4.385h12.784C57.501,52.804,58.618,50.831,57.171,48.419z M42.884,45.134l4.134-6.89v-4.616h2.557
		v4.616l4.134,6.89H42.884L42.884,45.134z"/>
	<circle style="fill:#3B97D3;" cx="32.818" cy="13.863" r="4.132"/>
	<g>
		<polygon style="fill:#3B97D3;" points="48.503,29.829 47.115,29.829 47.115,14.557 18.52,14.557 18.52,29.829 17.131,29.829 
			17.131,13.169 48.503,13.169 		"/>
	</g>
</g>
<g>
	<rect x="32.123" y="13.863" style="fill:#3B97D3;" width="1.388" height="12.158"/>
</g>
<g>
	<path style="fill:#3B97D3;" d="M28.379,29.83c0-0.616,0.416-1.049,0.999-1.049c0.582,0,0.982,0.433,0.982,1.049
		c0,0.599-0.382,1.049-0.999,1.049C28.778,30.878,28.379,30.429,28.379,29.83z"/>
	<path style="fill:#3B97D3;" d="M31.827,29.83c0-0.616,0.416-1.049,0.998-1.049c0.583,0,0.983,0.433,0.983,1.049
		c0,0.599-0.382,1.049-0.999,1.049C32.225,30.878,31.827,30.429,31.827,29.83z"/>
	<path style="fill:#3B97D3;" d="M35.275,29.83c0-0.616,0.416-1.049,0.999-1.049c0.582,0,0.982,0.433,0.982,1.049
		c0,0.599-0.382,1.049-0.999,1.049C35.673,30.878,35.275,30.429,35.275,29.83z"/>
</g>
</svg>
