<svg xmlns="http://www.w3.org/2000/svg" width="64" height="64" style=""><rect id="backgroundrect" width="100%" height="100%" x="0" y="0" fill="none" stroke="none"/>

 <g style="">
  <title>background</title>
  <rect fill="none" id="canvas_background" height="402" width="582" y="-1" x="-1"/>
 </g>
 <g style="" class="currentLayer">
  <title>Layer 1</title>
  <g id="svg_1">
   <g id="svg_2">
    <path id="svg_3" fill="#FFFFFF" stroke="#2C3E50" stroke-width="1.1264" stroke-miterlimit="10" d="m47.104501,51.351999c0,0.531 -0.469,0.96 -1.047,0.96l-28.624,0c-0.578,0 -1.046,-0.429 -1.046,-0.96l0,-38.452c0,-0.531 0.469,-0.962 1.046,-0.962l28.624,0c0.578,0 1.047,0.43 1.047,0.962l0,38.452z"/>
   </g>
  </g>
  <line id="svg_5" fill="none" stroke="#2C3E50" stroke-width="0.9182" stroke-linecap="round" stroke-linejoin="round" stroke-miterlimit="10" y2="21.715999603271484" x2="43.249000549316406" y1="21.715999603271484" x1="27.16699981689453"/>
  <g id="svg_6">
   <line id="svg_7" fill="none" stroke="#2C3E50" stroke-width="0.9182" stroke-linecap="round" stroke-linejoin="round" stroke-miterlimit="10" y2="31.284000396728516" x2="34.90399932861328" y1="31.284000396728516" x1="27.16699981689453"/>
   <line id="svg_8" fill="none" stroke="#2C3E50" stroke-width="0.9182" stroke-linecap="round" stroke-linejoin="round" stroke-miterlimit="10" y2="31.284000396728516" x2="43.957000732421875" y1="31.284000396728516" x1="37.7869987487793"/>
  </g>
  <circle id="svg_9" fill="none" stroke="#2C3E50" stroke-width="0.9182" stroke-linecap="round" stroke-linejoin="round" stroke-miterlimit="10" r="2.5" cy="21.715999603271484" cx="22"/>
  <circle id="svg_10" fill="none" stroke="#2C3E50" stroke-width="0.9182" stroke-linecap="round" stroke-linejoin="round" stroke-miterlimit="10" r="2.5" cy="31.284000396728516" cx="22"/>
  <circle id="svg_11" fill="none" stroke="#2C3E50" stroke-width="0.9182" stroke-linecap="round" stroke-linejoin="round" stroke-miterlimit="10" r="2.5" cy="40.85100173950195" cx="22"/>
  
  
  
  <line stroke="#3b97d3" transform="rotate(0.5579789280891418 35.24556732177958,41.35681152343777) " id="svg_15" fill="none" stroke-width="2.5" stroke-linecap="round" stroke-linejoin="round" stroke-miterlimit="10" y2="41.3568115234375" x2="40.80769348144531" y1="41.3568115234375" x1="29.68343734741211" class="" fill-opacity="1" stroke-opacity="1"/><line stroke="#3b97d3" transform="rotate(-90 35.11977767944337,41.48259735107422) " fill="none" stroke-width="2.5" stroke-linecap="round" stroke-linejoin="round" stroke-miterlimit="10" y2="41.48259735107422" x2="40.68190349638462" y1="41.48259735107422" x1="29.55764926970005" class="" id="svg_4" opacity="1" stroke-opacity="1" fill-opacity="1"/>
 </g>
</svg>