<?xml version="1.0" encoding="iso-8859-1"?>
<!-- Generator: Adobe Illustrator 19.1.0, SVG Export Plug-In . SVG Version: 6.00 Build 0)  -->
<svg version="1.1" id="Layer_1" xmlns="http://www.w3.org/2000/svg" xmlns:xlink="http://www.w3.org/1999/xlink" x="0px" y="0px"
	 viewBox="0 0 64 64" style="enable-background:new 0 0 64 64;" xml:space="preserve">
<path style="fill:#3B97D3;stroke:#2C3E50;stroke-width:0.5;stroke-miterlimit:10;" d="M40.836,19.996l-12.179,2.565
	c-1.096,0.231-1.805,1.317-1.574,2.413l4.842,22.992c0.231,1.096,1.317,1.805,2.413,1.574l19.123-4.027
	c1.096-0.231,1.805-1.317,1.574-2.413l-3.38-16.048L40.836,19.996z"/>
<path style="fill:#FFFFFF;stroke:#2C3E50;stroke-width:0.5;stroke-miterlimit:10;" d="M47.668,19.996H35.222
	c-1.12,0-2.037,0.917-2.037,2.037v23.496c0,1.12,0.917,2.037,2.037,2.037h19.542c1.12,0,2.037-0.917,2.037-2.037v-16.4
	L47.668,19.996z"/>
<rect x="35.967" y="24.688" style="fill:#3B97D3;" width="10.671" height="0.513"/>
<rect x="36.992" y="26.227" style="fill:#2C3E50;" width="4.617" height="0.513"/>
<rect x="39.25" y="28.314" style="fill:#2C3E50;" width="5.848" height="0.512"/>
<rect x="42.396" y="26.227" style="fill:#2C3E50;" width="5.678" height="0.513"/>
<rect x="48.792" y="26.227" style="fill:#2C3E50;" width="4.105" height="0.513"/>
<rect x="46.125" y="28.314" style="fill:#2C3E50;" width="5.848" height="0.512"/>
<rect x="39.25" y="29.75" style="fill:#2C3E50;" width="4.727" height="0.513"/>
<rect x="44.886" y="29.75" style="fill:#2C3E50;" width="4.728" height="0.513"/>
<rect x="39.25" y="31.289" style="fill:#3B97D3;" width="4.727" height="0.513"/>
<rect x="41.196" y="32.537" style="fill:#2C3E50;" width="4.727" height="0.513"/>
<rect x="46.843" y="32.537" style="fill:#3B97D3;" width="4.104" height="0.513"/>
<rect x="42.942" y="34.076" style="fill:#2C3E50;" width="4.727" height="0.512"/>
<rect x="48.585" y="34.076" style="fill:#3B97D3;" width="2.466" height="0.512"/>
<rect x="36.855" y="37.667" style="fill:#3B97D3;" width="4.618" height="0.513"/>
<rect x="39.113" y="39.753" style="fill:#2C3E50;" width="5.848" height="0.513"/>
<rect x="45.097" y="37.667" style="fill:#2C3E50;" width="6.841" height="0.513"/>
<rect x="45.988" y="39.753" style="fill:#2C3E50;" width="5.849" height="0.513"/>
<rect x="39.113" y="41.19" style="fill:#2C3E50;" width="4.728" height="0.513"/>
<rect x="44.75" y="41.19" style="fill:#2C3E50;" width="4.727" height="0.513"/>
<rect x="39.113" y="42.73" style="fill:#2C3E50;" width="4.728" height="0.513"/>
<rect x="41.06" y="43.976" style="fill:#3B97D3;" width="4.727" height="0.513"/>
<rect x="46.706" y="43.976" style="fill:#2C3E50;" width="4.104" height="0.513"/>
<rect x="42.209" y="37.667" style="fill:#2C3E50;" width="1.882" height="0.513"/>
<path style="fill:#3B97D3;stroke:#2C3E50;stroke-width:0.5;stroke-linecap:round;stroke-linejoin:round;stroke-miterlimit:10;" d="
	M49.705,29.129h7.096l-9.134-9.134v7.096C47.668,28.213,48.585,29.129,49.705,29.129z"/>
<g>
	<path style="fill:#FFFFFF;" d="M19.469,39.922c1.362-3.574,2.754-8.344,2.754-10.538c0-3.741-3.132-6.774-6.489-6.774
		c-3.357,0-6.489,3.033-6.489,6.774c0,2.194,1.434,6.964,2.807,10.538H19.469z"/>
	<path style="fill:#2C3E50;" d="M19.737,40.311h-7.951l-0.096-0.249c-1.364-3.552-2.833-8.408-2.833-10.677
		c0-3.816,3.214-7.163,6.877-7.163s6.878,3.347,6.878,7.163c0,2.326-1.441,7.165-2.78,10.676L19.737,40.311z M12.321,39.533h6.879
		c1.325-3.525,2.634-8.07,2.634-10.149c0-3.402-2.85-6.385-6.1-6.385c-3.249,0-6.1,2.984-6.1,6.385
		C9.635,31.503,11.009,36.073,12.321,39.533z"/>
</g>
<g>
	<path style="fill:#3B97D3;" d="M19.293,41.975h-7.39c-0.565,0-1.026-0.462-1.026-1.026l0,0c0-0.565,0.462-1.026,1.026-1.026h7.39
		c0.565,0,1.026,0.462,1.026,1.026l0,0C20.32,41.513,19.858,41.975,19.293,41.975z"/>
	<path style="fill:#2C3E50;" d="M19.499,42.35h-7.801c-0.66,0-1.196-0.537-1.196-1.196v-0.411c0-0.659,0.536-1.196,1.196-1.196
		h7.801c0.66,0,1.196,0.537,1.196,1.196v0.411C20.695,41.813,20.158,42.35,19.499,42.35z M11.698,40.297
		c-0.246,0-0.446,0.2-0.446,0.446v0.411c0,0.246,0.2,0.446,0.446,0.446h7.801c0.246,0,0.446-0.2,0.446-0.446v-0.411
		c0-0.246-0.2-0.446-0.446-0.446H11.698z"/>
</g>
<g>
	<path style="fill:#2C3E50;" d="M18.233,45.533h-5.269c-0.583,0-1.061-0.477-1.061-1.061l0,0c0-0.583,0.477-1.061,1.061-1.061h5.269
		c0.583,0,1.061,0.477,1.061,1.061l0,0C19.293,45.056,18.816,45.533,18.233,45.533z"/>
	<path style="fill:#2C3E50;" d="M18.233,45.922h-5.269c-0.799,0-1.45-0.65-1.45-1.449c0-0.799,0.65-1.45,1.45-1.45h5.269
		c0.799,0,1.449,0.65,1.449,1.45C19.682,45.272,19.032,45.922,18.233,45.922z M12.964,43.801c-0.37,0-0.672,0.301-0.672,0.672
		c0,0.37,0.302,0.672,0.672,0.672h5.269c0.37,0,0.672-0.301,0.672-0.672c0-0.37-0.301-0.672-0.672-0.672H12.964z"/>
</g>
<g>
	<path style="fill:#2C3E50;" d="M18.876,33.429c-0.12,0-0.241-0.022-0.362-0.066c-0.326-0.119-0.614-0.391-0.857-0.715
		c-0.573,0.42-1.265,0.56-2.015,0.404c-0.571-0.118-1.134-0.406-1.609-0.8c-0.454,0.57-1.082,0.984-1.809,1.027l-0.041-0.69
		c0.538-0.032,1.012-0.369,1.355-0.825c-0.198-0.233-0.366-0.487-0.495-0.753c-0.33-0.684-0.281-1.451,0.125-1.955
		c0.377-0.467,0.729-0.405,0.907-0.327c0.603,0.267,0.75,1.495,0.691,1.871c-0.056,0.358-0.177,0.724-0.354,1.066
		c0.402,0.35,0.887,0.61,1.37,0.71c0.399,0.083,0.977,0.092,1.502-0.312c-0.334-0.613-0.519-1.203-0.522-1.214
		c-0.251-0.812-0.275-1.421-0.075-1.861c0.174-0.384,0.601-0.705,1.013-0.762c0.321-0.043,0.602,0.063,0.804,0.301
		c0.224,0.264,0.277,0.602,0.299,0.868c0.046,0.561,0.058,1.849-0.645,2.765c0.189,0.269,0.394,0.481,0.593,0.554
		c0.117,0.042,0.215,0.029,0.328-0.044l0.374,0.582C19.27,33.37,19.074,33.429,18.876,33.429z M17.837,28.909
		c-0.013,0-0.026,0.001-0.042,0.003c-0.197,0.027-0.411,0.213-0.479,0.363c-0.086,0.189-0.137,0.58,0.107,1.37
		c0.07,0.226,0.191,0.533,0.344,0.844c0.284-0.519,0.411-1.237,0.346-2.038c-0.013-0.162-0.04-0.363-0.136-0.476
		C17.947,28.94,17.909,28.909,17.837,28.909z M13.817,29.38c-0.022,0.016-0.059,0.048-0.11,0.111
		c-0.272,0.337-0.216,0.855-0.04,1.219c0.067,0.139,0.148,0.273,0.241,0.403c0.084-0.204,0.144-0.415,0.176-0.62
		C14.13,30.19,13.967,29.528,13.817,29.38z"/>
</g>
<g>
	<path style="fill:#2C3E50;" d="M8.311,30.205H5.3c-0.227,0-0.411-0.184-0.411-0.411c0-0.227,0.184-0.411,0.411-0.411h3.011
		c0.227,0,0.411,0.184,0.411,0.411C8.721,30.021,8.538,30.205,8.311,30.205z"/>
</g>
<g>
	<path style="fill:#2C3E50;" d="M9.714,24.594c-0.105,0-0.21-0.04-0.29-0.12l-2.361-2.361c-0.16-0.16-0.16-0.42,0-0.581
		c0.16-0.16,0.42-0.16,0.581,0l2.361,2.361c0.16,0.16,0.16,0.42,0,0.581C9.924,24.554,9.819,24.594,9.714,24.594z"/>
</g>
<g>
	<path style="fill:#2C3E50;" d="M16.077,21.446c-0.224,0-0.407-0.179-0.411-0.404l-0.069-3.969
		c-0.004-0.227,0.177-0.414,0.403-0.418c0.211,0.006,0.414,0.177,0.418,0.404l0.069,3.969c0.004,0.227-0.177,0.414-0.403,0.418
		H16.077z"/>
</g>
<g>
	<path style="fill:#2C3E50;" d="M21.894,24.32c-0.105,0-0.21-0.04-0.29-0.12c-0.16-0.16-0.16-0.42,0-0.581l2.309-2.309
		c0.16-0.16,0.42-0.16,0.581,0c0.16,0.16,0.16,0.42,0,0.581L22.184,24.2C22.104,24.28,21.999,24.32,21.894,24.32z"/>
</g>
<g>
	<path style="fill:#2C3E50;" d="M26.615,30.205h-3.011c-0.227,0-0.411-0.184-0.411-0.411c0-0.227,0.184-0.411,0.411-0.411h3.011
		c0.227,0,0.411,0.184,0.411,0.411C27.026,30.021,26.842,30.205,26.615,30.205z"/>
</g>
</svg>
