<?xml version="1.0" encoding="iso-8859-1"?>
<!-- Generator: Adobe Illustrator 19.1.0, SVG Export Plug-In . SVG Version: 6.00 Build 0)  -->
<svg version="1.1" id="Layer_1" xmlns="http://www.w3.org/2000/svg" xmlns:xlink="http://www.w3.org/1999/xlink" x="0px" y="0px"
	 viewBox="0 0 64 64" style="enable-background:new 0 0 64 64;" xml:space="preserve">
<path style="fill:#BDC3C7;stroke:#2C3E50;stroke-linecap:round;stroke-linejoin:round;stroke-miterlimit:10;" d="M27.387,17.987
	c0,0.825-0.151,1.612-0.416,2.339l24.596,0c1.465,0,2.87-0.799,3.534-2.17c1.636-3.377-0.656-6.737-3.694-6.737H22.549
	c-0.217,0-0.429,0.023-0.638,0.056C24.997,11.877,27.387,14.636,27.387,17.987z"/>
<path style="fill:#FFFFFF;stroke:#2C3E50;stroke-linecap:round;stroke-linejoin:round;stroke-miterlimit:10;" d="M43.298,54.876
	h-21.63c-2.489,0-4.525-2.036-4.525-4.525V15.945c0-2.489,2.036-4.525,4.525-4.525h28.045c0,0-1.844,1.035-1.889,4.525v34.406
	C47.823,52.84,45.787,54.876,43.298,54.876z"/>
<path style="fill:#BDC3C7;stroke:#2C3E50;stroke-linecap:round;stroke-linejoin:round;stroke-miterlimit:10;" d="M38.016,48.308
	c0-0.825,0.159-1.612,0.437-2.339l-27.815,0c-4.47,3.928-1.746,8.907,2.141,8.907H43.1c0.228,0,0.451-0.023,0.67-0.056
	C40.528,54.418,38.016,51.659,38.016,48.308z"/>
<line style="fill:none;stroke:#2C3E50;stroke-linecap:round;stroke-linejoin:round;stroke-miterlimit:10;" x1="22.631" y1="39.851" x2="40.986" y2="39.851"/>
<line style="fill:none;stroke:#2C3E50;stroke-linecap:round;stroke-linejoin:round;stroke-miterlimit:10;" x1="22.631" y1="35.067" x2="32.973" y2="35.067"/>
<line style="fill:none;stroke:#2C3E50;stroke-linecap:round;stroke-linejoin:round;stroke-miterlimit:10;" x1="22.631" y1="20.716" x2="41.705" y2="20.716"/>
<g>
	
		<line style="fill:none;stroke:#2C3E50;stroke-linecap:round;stroke-linejoin:round;stroke-miterlimit:10;" x1="22.631" y1="30.284" x2="31.808" y2="30.284"/>
	
		<line style="fill:none;stroke:#2C3E50;stroke-linecap:round;stroke-linejoin:round;stroke-miterlimit:10;" x1="35.227" y1="30.284" x2="42.545" y2="30.284"/>
</g>
<line style="fill:none;stroke:#2C3E50;stroke-linecap:round;stroke-linejoin:round;stroke-miterlimit:10;" x1="22.631" y1="25.5" x2="32.973" y2="25.5"/>
<circle style="fill:#3B97D3;stroke:#2C3E50;stroke-linecap:round;stroke-linejoin:round;stroke-miterlimit:10;" cx="17.143" cy="17.837" r="7.168"/>
<g>
	<path style="fill:#FFFFFF;" d="M16.793,20.326L16.793,20.326c-0.217,0.217-0.571,0.217-0.788,0l-2.157-2.157
		c-0.217-0.217-0.217-0.571,0-0.788h0c0.217-0.217,0.571-0.217,0.788,0l2.157,2.157C17.01,19.755,17.01,20.11,16.793,20.326z"/>
	<path style="fill:#FFFFFF;" d="M16.005,20.326L16.005,20.326c-0.217-0.217-0.217-0.571,0-0.788l4.19-4.19
		c0.217-0.217,0.571-0.217,0.788,0l0,0c0.217,0.217,0.217,0.571,0,0.788l-4.19,4.19C16.576,20.543,16.222,20.543,16.005,20.326z"/>
</g>
</svg>
