<?xml version="1.0" encoding="iso-8859-1"?>
<!-- Generator: Adobe Illustrator 19.1.0, SVG Export Plug-In . SVG Version: 6.00 Build 0)  -->
<svg version="1.1" id="Layer_1" xmlns="http://www.w3.org/2000/svg" xmlns:xlink="http://www.w3.org/1999/xlink" x="0px" y="0px"
	 viewBox="0 0 64 64" style="enable-background:new 0 0 64 64;" xml:space="preserve">
<g>
	<path style="fill:#2C3E50;" d="M25.092,32.51c0,0.838-0.255,1.5-0.765,1.986c-0.51,0.486-1.188,0.728-2.033,0.728h-9.158
		c-0.845,0-1.523-0.243-2.033-0.728c-0.51-0.486-0.765-1.147-0.765-1.986c0-0.37,0.012-0.732,0.037-1.084
		c0.025-0.353,0.074-0.733,0.147-1.142c0.073-0.409,0.166-0.788,0.278-1.137c0.112-0.349,0.262-0.69,0.451-1.021
		c0.189-0.332,0.405-0.615,0.65-0.849c0.245-0.234,0.543-0.421,0.896-0.561s0.742-0.209,1.168-0.21c0.063,0,0.21,0.075,0.44,0.225
		c0.23,0.15,0.49,0.318,0.781,0.503c0.29,0.185,0.667,0.353,1.131,0.503s0.93,0.225,1.399,0.225c0.469,0,0.935-0.075,1.399-0.225
		s0.841-0.318,1.131-0.503c0.29-0.185,0.55-0.353,0.781-0.503c0.23-0.15,0.377-0.225,0.44-0.225c0.426,0,0.815,0.07,1.168,0.21
		c0.353,0.14,0.651,0.327,0.896,0.561s0.461,0.517,0.65,0.849c0.189,0.332,0.339,0.673,0.451,1.021s0.204,0.728,0.278,1.137
		c0.073,0.409,0.122,0.79,0.147,1.142C25.079,31.778,25.092,32.14,25.092,32.51z M21.739,23.153c0,1.111-0.393,2.059-1.179,2.845
		c-0.786,0.786-1.734,1.179-2.845,1.179c-1.111,0-2.059-0.393-2.845-1.179c-0.786-0.786-1.179-1.734-1.179-2.845
		s0.393-2.059,1.179-2.845c0.786-0.786,1.734-1.179,2.845-1.179c1.111,0,2.059,0.393,2.845,1.179
		C21.346,21.095,21.739,22.043,21.739,23.153z"/>
</g>
<g>
	<path style="fill:#2C3E50;" d="M55.679,32.51c0,0.838-0.255,1.5-0.765,1.986c-0.51,0.486-1.188,0.728-2.033,0.728h-9.158
		c-0.845,0-1.523-0.243-2.033-0.728c-0.51-0.486-0.765-1.147-0.765-1.986c0-0.37,0.012-0.732,0.037-1.084s0.074-0.733,0.147-1.142
		c0.073-0.409,0.166-0.788,0.278-1.137c0.112-0.349,0.262-0.69,0.451-1.021s0.405-0.615,0.65-0.849
		c0.245-0.234,0.543-0.421,0.896-0.561c0.353-0.139,0.742-0.209,1.168-0.21c0.063,0,0.21,0.075,0.44,0.225
		c0.23,0.15,0.49,0.318,0.781,0.503c0.29,0.185,0.667,0.353,1.131,0.503c0.464,0.15,0.93,0.225,1.399,0.225
		c0.469,0,0.935-0.075,1.399-0.225c0.464-0.15,0.841-0.318,1.131-0.503c0.29-0.185,0.55-0.353,0.781-0.503
		c0.23-0.15,0.377-0.225,0.44-0.225c0.426,0,0.815,0.07,1.168,0.21c0.353,0.14,0.651,0.327,0.896,0.561
		c0.245,0.234,0.461,0.517,0.65,0.849s0.339,0.673,0.451,1.021c0.112,0.349,0.204,0.728,0.278,1.137s0.122,0.79,0.147,1.142
		S55.679,32.14,55.679,32.51z M52.326,23.153c0,1.111-0.393,2.059-1.179,2.845c-0.786,0.786-1.734,1.179-2.845,1.179
		c-1.111,0-2.059-0.393-2.845-1.179c-0.786-0.786-1.179-1.734-1.179-2.845c0-1.111,0.393-2.059,1.179-2.845
		c0.786-0.786,1.734-1.179,2.845-1.179s2.059,0.393,2.845,1.179C51.933,21.095,52.326,22.043,52.326,23.153z"/>
</g>
<g>
	<path style="fill:#3B97D3;" d="M44.279,40.758c0,1.27-0.386,2.273-1.159,3.009c-0.773,0.736-1.8,1.103-3.08,1.103H26.164
		c-1.281,0-2.308-0.368-3.08-1.103c-0.772-0.736-1.159-1.739-1.159-3.009c0-0.561,0.019-1.109,0.056-1.643
		c0.037-0.534,0.111-1.111,0.223-1.73s0.251-1.193,0.421-1.722c0.169-0.529,0.397-1.045,0.683-1.548
		c0.286-0.503,0.614-0.931,0.985-1.286c0.371-0.355,0.823-0.638,1.358-0.849s1.124-0.317,1.77-0.318
		c0.096,0,0.318,0.114,0.667,0.341s0.743,0.482,1.183,0.762c0.44,0.28,1.011,0.534,1.714,0.762c0.703,0.228,1.41,0.341,2.12,0.341
		c0.71,0,1.416-0.114,2.12-0.341c0.703-0.228,1.275-0.482,1.714-0.762c0.44-0.28,0.834-0.534,1.183-0.762
		c0.349-0.228,0.571-0.341,0.667-0.341c0.646,0,1.236,0.106,1.77,0.318s0.987,0.495,1.358,0.849
		c0.371,0.354,0.699,0.783,0.985,1.286c0.286,0.503,0.513,1.019,0.683,1.548c0.169,0.528,0.31,1.102,0.421,1.722
		c0.111,0.62,0.185,1.197,0.223,1.73C44.26,39.649,44.279,40.196,44.279,40.758z M39.199,26.58c0,1.683-0.595,3.119-1.786,4.31
		s-2.628,1.786-4.31,1.786c-1.683,0-3.119-0.595-4.31-1.786s-1.786-2.628-1.786-4.31s0.595-3.119,1.786-4.31
		c1.191-1.191,2.628-1.786,4.31-1.786c1.683,0,3.119,0.595,4.31,1.786C38.603,23.461,39.199,24.898,39.199,26.58z"/>
</g>
</svg>
