<?xml version="1.0" encoding="iso-8859-1"?>
<!-- Generator: Adobe Illustrator 19.1.0, SVG Export Plug-In . SVG Version: 6.00 Build 0)  -->
<svg version="1.1" id="Layer_1" xmlns="http://www.w3.org/2000/svg" xmlns:xlink="http://www.w3.org/1999/xlink" x="0px" y="0px"
	 viewBox="0 0 64 64" style="enable-background:new 0 0 64 64;" xml:space="preserve">
<g>
	<g>
		<path style="fill:#FFFFFF;stroke:#2C3E50;stroke-width:1.1264;stroke-miterlimit:10;" d="M47.167,51.227
			c0,0.531-0.469,0.96-1.047,0.96H17.496c-0.578,0-1.046-0.429-1.046-0.96V12.775c0-0.531,0.469-0.962,1.046-0.962H46.12
			c0.578,0,1.047,0.43,1.047,0.962V51.227z"/>
	</g>
</g>
<line style="fill:none;stroke:#2C3E50;stroke-width:0.9182;stroke-linecap:round;stroke-linejoin:round;stroke-miterlimit:10;" x1="27.167" y1="40.851" x2="42.642" y2="40.851"/>
<line style="fill:none;stroke:#2C3E50;stroke-width:0.9182;stroke-linecap:round;stroke-linejoin:round;stroke-miterlimit:10;" x1="27.167" y1="21.716" x2="43.249" y2="21.716"/>
<g>
	
		<line style="fill:none;stroke:#2C3E50;stroke-width:0.9182;stroke-linecap:round;stroke-linejoin:round;stroke-miterlimit:10;" x1="27.167" y1="31.284" x2="34.904" y2="31.284"/>
	
		<line style="fill:none;stroke:#2C3E50;stroke-width:0.9182;stroke-linecap:round;stroke-linejoin:round;stroke-miterlimit:10;" x1="37.787" y1="31.284" x2="43.957" y2="31.284"/>
</g>
<circle style="fill:none;stroke:#2C3E50;stroke-width:0.9182;stroke-linecap:round;stroke-linejoin:round;stroke-miterlimit:10;" cx="22" cy="21.716" r="2.5"/>
<circle style="fill:none;stroke:#2C3E50;stroke-width:0.9182;stroke-linecap:round;stroke-linejoin:round;stroke-miterlimit:10;" cx="22" cy="31.284" r="2.5"/>
<circle style="fill:none;stroke:#2C3E50;stroke-width:0.9182;stroke-linecap:round;stroke-linejoin:round;stroke-miterlimit:10;" cx="22" cy="40.851" r="2.5"/>
<rect x="19.593" y="20.524" transform="matrix(0.7071 0.7071 -0.7071 0.7071 21.2194 -8.6794)" style="fill:#3B97D3;" width="2.988" height="1.5"/>
<rect x="22.723" y="18.082" transform="matrix(0.7071 0.7071 -0.7071 0.7071 21.6059 -10.4963)" style="fill:#3B97D3;" width="1.5" height="5.5"/>
</svg>
