<?xml version="1.0" encoding="iso-8859-1"?>
<!-- Generator: Adobe Illustrator 19.1.0, SVG Export Plug-In . SVG Version: 6.00 Build 0)  -->
<svg version="1.1" id="Layer_1" xmlns="http://www.w3.org/2000/svg" xmlns:xlink="http://www.w3.org/1999/xlink" x="0px" y="0px"
	 viewBox="0 0 64 64" style="enable-background:new 0 0 64 64;" xml:space="preserve">
<g>
	<circle style="fill:#FFFFFF;stroke:#2C3E50;stroke-width:0.9425;stroke-miterlimit:10;" cx="26.222" cy="33.413" r="1.728"/>
	<circle style="fill:#FFFFFF;stroke:#2C3E50;stroke-width:0.9425;stroke-miterlimit:10;" cx="8.551" cy="33.413" r="1.728"/>
	
		<path style="fill:#FFFFFF;stroke:#2C3E50;stroke-width:0.9425;stroke-linecap:round;stroke-linejoin:round;stroke-miterlimit:10;" d="
		M17.622,44.252L17.622,44.252c-4.73,0-8.6-3.87-8.6-8.6v-7.548c0-0.795,0.65-1.445,1.445-1.445h14.311
		c0.795,0,1.445,0.65,1.445,1.445v7.548C26.222,40.381,22.352,44.252,17.622,44.252z"/>
	
		<path style="fill:#35495E;stroke:#2C3E50;stroke-width:0.9425;stroke-linecap:round;stroke-linejoin:round;stroke-miterlimit:10;" d="
		M8.135,32.942L8.135,32.942c-0.497,0-0.9-0.403-0.9-0.9v-6.682c0-0.497,0.403-0.9,0.9-0.9h1.897c0.886,0,1.749-0.285,2.461-0.814
		c0,0,4.59-1.826,17.022,0.255c0.724,0.121,0.025,0.128,0.025,0.625v1.939c0,0.497-0.403,0.9-0.9,0.9H10.261
		c-0.468,0-0.858,0.358-0.897,0.825l-0.332,3.927C8.993,32.583,8.603,32.942,8.135,32.942z"/>
</g>
<g>
	<circle style="fill:#FFFFFF;stroke:#2C3E50;stroke-width:0.9536;stroke-miterlimit:10;" cx="54.435" cy="34.668" r="1.748"/>
	<circle style="fill:#FFFFFF;stroke:#2C3E50;stroke-width:0.9536;stroke-miterlimit:10;" cx="36.556" cy="34.668" r="1.748"/>
	
		<path style="fill:#FFFFFF;stroke:#2C3E50;stroke-width:0.9536;stroke-linecap:round;stroke-linejoin:round;stroke-miterlimit:10;" d="
		M45.734,45.634L45.734,45.634c-4.786,0-8.701-3.916-8.701-8.701v-7.637c0-0.804,0.658-1.462,1.462-1.462h14.48
		c0.804,0,1.462,0.658,1.462,1.462l0,7.637C54.435,41.719,50.52,45.634,45.734,45.634z"/>
	
		<circle style="fill:#2C3E50;stroke:#2C3E50;stroke-width:1.0187;stroke-linecap:round;stroke-linejoin:round;stroke-miterlimit:10;" cx="45.178" cy="21.437" r="2.463"/>
	
		<path style="fill:#2C3E50;stroke:#2C3E50;stroke-width:1.0187;stroke-linecap:round;stroke-linejoin:round;stroke-miterlimit:10;" d="
		M37.032,30.138c0-4.806,3.896-8.701,8.701-8.701s8.701,3.896,8.701,8.701h-3.814l-0.953-1.43l-1.067,1.43H37.032z"/>
</g>
<g>
	<circle style="fill:#FFFFFF;stroke:#2C3E50;stroke-width:1.1401;stroke-miterlimit:10;" cx="41.648" cy="34.976" r="2.09"/>
	<circle style="fill:#FFFFFF;stroke:#2C3E50;stroke-width:1.1401;stroke-miterlimit:10;" cx="20.272" cy="34.976" r="2.09"/>
	
		<path style="fill:#FFFFFF;stroke:#2C3E50;stroke-width:1.1401;stroke-linecap:round;stroke-linejoin:round;stroke-miterlimit:10;" d="
		M31.245,48.087L31.245,48.087c-5.722,0-10.403-4.681-10.403-10.403v-9.131c0-0.961,0.786-1.747,1.747-1.747H39.9
		c0.961,0,1.747,0.786,1.747,1.747v9.131C41.648,43.406,36.966,48.087,31.245,48.087z"/>
	
		<path style="fill:#3B97D3;stroke:#2C3E50;stroke-width:1.1401;stroke-linecap:round;stroke-linejoin:round;stroke-miterlimit:10;" d="
		M19.769,34.406L19.769,34.406c-0.602,0-1.089-0.488-1.089-1.089v-8.082c0-0.602,0.488-1.089,1.089-1.089h2.295
		c1.072,0,2.116-0.345,2.977-0.985c0,0,4.494-6.473,19.532-3.956c0.875,0.147,1.089,0.488,1.089,1.089v6.277
		c0,0.602-0.488,1.089-1.089,1.089H22.341c-0.566,0-1.038,0.433-1.085,0.997l-0.401,4.751
		C20.807,33.973,20.335,34.406,19.769,34.406z"/>
</g>
</svg>
