<?xml version="1.0" standalone="no"?><!-- Generator: Gravit.io --><svg xmlns="http://www.w3.org/2000/svg" xmlns:xlink="http://www.w3.org/1999/xlink" style="isolation:isolate" viewBox="42.464 704.009 1166 258" width="1166" height="258"><rect x="-29.047" y="1611.57" width="1294.205" height="304" transform="matrix(1,0,0,1,0,0)" fill="rgb(11,121,75)"/><rect x="-29.047" y="986.753" width="1294.205" height="304" transform="matrix(1,0,0,1,0,0)" fill="rgb(11,121,75)"/><path d=" M 934.476 316.11 Q 969.522 340.907 989.65 352.528 Q 1009.778 364.149 1048.776 382.101 L 1048.776 382.101 Q 1048.776 382.101 1048.776 382.101 Q 1048.776 382.101 1048.776 382.101 L 1048.776 382.101 Q 1044.824 424.85 1044.824 448.092 Q 1044.824 471.334 1048.776 514.083 L 1048.776 514.083 Q 1048.776 514.083 1048.776 514.083 Q 1048.776 514.083 1048.776 514.083 L 1048.776 514.083 Q 1009.778 532.035 989.65 543.656 Q 969.522 555.277 934.476 580.074 Q 934.476 580.074 934.476 580.074 Q 934.476 580.074 934.476 580.074 L 934.476 580.074 Q 899.431 555.277 879.302 543.656 Q 859.174 532.035 820.177 514.083 L 820.177 514.083 Q 820.177 514.083 820.177 514.083 Q 820.177 514.083 820.177 514.083 L 820.177 514.083 Q 824.129 471.334 824.129 448.092 Q 824.129 424.85 820.177 382.101 L 820.177 382.101 Q 820.177 382.101 820.177 382.101 Q 820.177 382.101 820.177 382.101 L 820.177 382.101 Q 859.174 364.149 879.302 352.528 Q 899.431 340.907 934.476 316.11 Q 934.476 316.11 934.476 316.11 Q 934.476 316.11 934.476 316.11 L 934.476 316.11 Z  M 934.476 448.123" fill-rule="evenodd" fill="rgb(191,76,76)"/><path d=" M 654.564 569.644 L 549.297 508.868 L 654.564 448.092 L 654.564 569.644 Z " fill="rgb(43,181,115)"/><path d=" M 663.628 569.621 L 768.856 508.868 L 663.628 448.114 L 663.628 569.621 Z " fill="rgb(11,121,75)"/><path d=" M 773.392 501.047 L 773.392 379.505 L 668.133 440.276 L 773.392 501.047 Z " fill="rgb(43,181,115)"/><path d=" M 768.856 371.666 L 663.604 310.899 L 663.604 432.433 L 768.856 371.666 Z " fill="rgb(11,121,75)"/><path d=" M 549.289 371.671 L 654.564 310.89 L 654.564 432.451 L 549.289 371.671 Z " fill="rgb(43,181,115)"/><path d=" M 544.784 501.034 L 544.784 379.509 L 650.028 440.272 L 544.784 501.034 Z " fill="rgb(11,121,75)"/><path d=" M 318.146 1465.554 L 354.471 1465.554 C 367.862 1465.554 380.417 1469.906 380.417 1485.474 C 380.417 1498.531 371.712 1506.901 357.986 1506.901 L 318.146 1506.901 L 318.146 1465.554 Z  M 302.243 1520.293 L 359.995 1520.293 C 383.765 1520.293 396.32 1503.553 396.32 1485.976 C 396.32 1471.245 388.285 1460.197 373.554 1457.184 L 373.554 1456.849 C 384.602 1452.329 391.298 1442.788 391.298 1430.066 C 391.298 1418.348 385.104 1409.811 377.237 1405.124 C 370.038 1400.771 356.145 1400.771 345.599 1400.771 L 302.243 1400.771 L 302.243 1520.293 Z  M 318.146 1414.163 L 349.951 1414.163 C 363.677 1414.163 375.395 1416.507 375.395 1433.079 C 375.395 1445.634 368.03 1452.162 349.951 1452.162 L 318.146 1452.162 L 318.146 1414.163 Z  M 415.403 1520.293 L 429.632 1520.293 L 429.632 1433.748 L 415.403 1433.748 L 415.403 1520.293 Z  M 429.632 1400.771 L 415.403 1400.771 L 415.403 1418.181 L 429.632 1418.181 L 429.632 1400.771 Z  M 447.041 1477.104 C 447.041 1502.381 461.604 1522.301 489.058 1522.301 C 516.511 1522.301 531.074 1502.381 531.074 1477.104 C 531.074 1451.66 516.511 1431.74 489.058 1431.74 C 461.604 1431.74 447.041 1451.66 447.041 1477.104 Z  M 462.107 1477.104 C 462.107 1456.012 474.159 1444.294 489.058 1444.294 C 503.956 1444.294 516.008 1456.012 516.008 1477.104 C 516.008 1498.029 503.956 1509.747 489.058 1509.747 C 474.159 1509.747 462.107 1498.029 462.107 1477.104 Z  M 542.29 1493.007 C 543.127 1514.434 559.532 1522.301 578.95 1522.301 C 596.526 1522.301 615.777 1515.605 615.777 1495.016 C 615.777 1478.276 601.716 1473.589 587.487 1470.408 C 574.262 1467.228 559.197 1465.554 559.197 1455.343 C 559.197 1446.638 569.073 1444.294 577.61 1444.294 C 586.985 1444.294 596.694 1447.81 597.698 1458.858 L 611.927 1458.858 C 610.755 1437.766 595.522 1431.74 576.439 1431.74 C 561.373 1431.74 544.131 1438.938 544.131 1456.347 C 544.131 1472.919 558.36 1477.606 572.421 1480.787 C 586.65 1483.967 600.711 1485.809 600.711 1496.857 C 600.711 1507.738 588.659 1509.747 579.787 1509.747 C 568.069 1509.747 557.021 1505.729 556.518 1493.007 L 542.29 1493.007 Z  M 704.999 1461.536 C 702.991 1440.946 687.255 1431.74 667.67 1431.74 C 640.217 1431.74 626.825 1452.162 626.825 1478.109 C 626.825 1503.888 640.886 1522.301 667.335 1522.301 C 689.097 1522.301 702.321 1509.747 705.501 1488.655 L 690.938 1488.655 C 689.097 1501.711 680.894 1509.747 667.168 1509.747 C 649.089 1509.747 641.891 1494.011 641.891 1478.109 C 641.891 1460.532 648.252 1444.294 668.842 1444.294 C 680.559 1444.294 688.092 1450.655 690.268 1461.536 L 704.999 1461.536 Z  M 721.404 1520.293 L 735.633 1520.293 L 735.633 1471.413 C 735.633 1455.845 744.003 1444.294 761.245 1444.294 C 772.125 1444.294 778.821 1451.158 778.821 1461.704 L 778.821 1520.293 L 793.05 1520.293 L 793.05 1463.378 C 793.05 1444.797 786.019 1431.74 763.253 1431.74 C 752.875 1431.74 740.655 1436.092 735.968 1446.471 L 735.633 1446.471 L 735.633 1400.771 L 721.404 1400.771 L 721.404 1520.293 Z  M 874.237 1492.839 C 871.726 1504.055 863.524 1509.747 851.806 1509.747 C 832.89 1509.747 824.353 1496.355 824.855 1481.289 L 889.638 1481.289 C 890.475 1460.365 881.101 1431.74 850.467 1431.74 C 826.864 1431.74 809.79 1450.823 809.79 1476.769 C 810.627 1503.218 823.683 1522.301 851.304 1522.301 C 870.722 1522.301 884.448 1511.923 888.299 1492.839 L 874.237 1492.839 Z  M 824.855 1468.734 C 825.86 1455.51 834.732 1444.294 849.63 1444.294 C 863.691 1444.294 873.902 1455.175 874.572 1468.734 L 824.855 1468.734 Z  M 904.369 1520.293 L 918.597 1520.293 L 918.597 1466.391 C 918.597 1459.862 924.791 1444.294 941.698 1444.294 C 954.42 1444.294 957.936 1452.329 957.936 1463.545 L 957.936 1520.293 L 972.164 1520.293 L 972.164 1466.391 C 972.164 1452.999 981.036 1444.294 994.763 1444.294 C 1008.657 1444.294 1011.503 1452.832 1011.503 1463.545 L 1011.503 1520.293 L 1025.731 1520.293 L 1025.731 1456.849 C 1025.731 1438.938 1014.181 1431.74 996.939 1431.74 C 985.891 1431.74 975.68 1437.264 969.821 1446.471 C 966.306 1435.925 956.597 1431.74 946.051 1431.74 C 934.165 1431.74 924.456 1436.762 918.095 1446.471 L 917.76 1446.471 L 917.76 1433.748 L 904.369 1433.748 L 904.369 1520.293 Z  M 1100.725 1490.161 C 1100.725 1498.029 1093.025 1509.747 1074.276 1509.747 C 1065.572 1509.747 1057.537 1506.399 1057.537 1497.024 C 1057.537 1486.478 1065.572 1483.13 1074.946 1481.456 C 1084.488 1479.783 1095.201 1479.615 1100.725 1475.598 L 1100.725 1490.161 Z  M 1123.826 1508.91 C 1121.984 1509.579 1120.645 1509.747 1119.474 1509.747 C 1114.954 1509.747 1114.954 1506.733 1114.954 1500.038 L 1114.954 1455.51 C 1114.954 1435.255 1098.047 1431.74 1082.479 1431.74 C 1063.228 1431.74 1046.656 1439.273 1045.819 1460.699 L 1060.048 1460.699 C 1060.717 1447.977 1069.589 1444.294 1081.642 1444.294 C 1090.681 1444.294 1100.892 1446.303 1100.892 1458.691 C 1100.892 1469.404 1087.501 1468.4 1071.765 1471.413 C 1057.035 1474.258 1042.471 1478.443 1042.471 1498.029 C 1042.471 1515.271 1055.361 1522.301 1071.096 1522.301 C 1083.148 1522.301 1093.694 1518.116 1101.562 1508.91 C 1101.562 1518.284 1106.249 1522.301 1113.615 1522.301 C 1118.134 1522.301 1121.315 1521.464 1123.826 1519.958 L 1123.826 1508.91 Z  M 1131.526 1493.007 C 1132.363 1514.434 1148.768 1522.301 1168.186 1522.301 C 1185.763 1522.301 1205.013 1515.605 1205.013 1495.016 C 1205.013 1478.276 1190.952 1473.589 1176.723 1470.408 C 1163.499 1467.228 1148.433 1465.554 1148.433 1455.343 C 1148.433 1446.638 1158.309 1444.294 1166.847 1444.294 C 1176.221 1444.294 1185.93 1447.81 1186.934 1458.858 L 1201.163 1458.858 C 1199.991 1437.766 1184.758 1431.74 1165.675 1431.74 C 1150.609 1431.74 1133.367 1438.938 1133.367 1456.347 C 1133.367 1472.919 1147.596 1477.606 1161.657 1480.787 C 1175.886 1483.967 1189.947 1485.809 1189.947 1496.857 C 1189.947 1507.738 1177.895 1509.747 1169.023 1509.747 C 1157.305 1509.747 1146.257 1505.729 1145.755 1493.007 L 1131.526 1493.007 Z " fill-rule="evenodd" fill="rgb(69,70,71)"/><path d=" M 318.146 1767.554 L 354.471 1767.554 C 367.862 1767.554 380.417 1771.906 380.417 1787.474 C 380.417 1800.531 371.712 1808.901 357.986 1808.901 L 318.146 1808.901 L 318.146 1767.554 Z  M 302.243 1822.293 L 359.995 1822.293 C 383.765 1822.293 396.32 1805.553 396.32 1787.976 C 396.32 1773.245 388.285 1762.197 373.554 1759.184 L 373.554 1758.849 C 384.602 1754.329 391.298 1744.788 391.298 1732.066 C 391.298 1720.348 385.104 1711.811 377.237 1707.124 C 370.038 1702.771 356.145 1702.771 345.599 1702.771 L 302.243 1702.771 L 302.243 1822.293 Z  M 318.146 1716.163 L 349.951 1716.163 C 363.677 1716.163 375.395 1718.507 375.395 1735.079 C 375.395 1747.634 368.03 1754.162 349.951 1754.162 L 318.146 1754.162 L 318.146 1716.163 Z  M 415.403 1822.293 L 429.632 1822.293 L 429.632 1735.748 L 415.403 1735.748 L 415.403 1822.293 Z  M 429.632 1702.771 L 415.403 1702.771 L 415.403 1720.181 L 429.632 1720.181 L 429.632 1702.771 Z  M 447.041 1779.104 C 447.041 1804.381 461.604 1824.301 489.058 1824.301 C 516.511 1824.301 531.074 1804.381 531.074 1779.104 C 531.074 1753.66 516.511 1733.74 489.058 1733.74 C 461.604 1733.74 447.041 1753.66 447.041 1779.104 Z  M 462.107 1779.104 C 462.107 1758.012 474.159 1746.294 489.058 1746.294 C 503.956 1746.294 516.008 1758.012 516.008 1779.104 C 516.008 1800.029 503.956 1811.747 489.058 1811.747 C 474.159 1811.747 462.107 1800.029 462.107 1779.104 Z  M 542.29 1795.007 C 543.127 1816.434 559.532 1824.301 578.95 1824.301 C 596.526 1824.301 615.777 1817.605 615.777 1797.016 C 615.777 1780.276 601.716 1775.589 587.487 1772.408 C 574.262 1769.228 559.197 1767.554 559.197 1757.343 C 559.197 1748.638 569.073 1746.294 577.61 1746.294 C 586.985 1746.294 596.694 1749.81 597.698 1760.858 L 611.927 1760.858 C 610.755 1739.766 595.522 1733.74 576.439 1733.74 C 561.373 1733.74 544.131 1740.938 544.131 1758.347 C 544.131 1774.919 558.36 1779.606 572.421 1782.787 C 586.65 1785.967 600.711 1787.809 600.711 1798.857 C 600.711 1809.738 588.659 1811.747 579.787 1811.747 C 568.069 1811.747 557.021 1807.729 556.518 1795.007 L 542.29 1795.007 Z  M 704.999 1763.536 C 702.991 1742.946 687.255 1733.74 667.67 1733.74 C 640.217 1733.74 626.825 1754.162 626.825 1780.109 C 626.825 1805.888 640.886 1824.301 667.335 1824.301 C 689.097 1824.301 702.321 1811.747 705.501 1790.655 L 690.938 1790.655 C 689.097 1803.711 680.894 1811.747 667.168 1811.747 C 649.089 1811.747 641.891 1796.011 641.891 1780.109 C 641.891 1762.532 648.252 1746.294 668.842 1746.294 C 680.559 1746.294 688.092 1752.655 690.268 1763.536 L 704.999 1763.536 Z  M 721.404 1822.293 L 735.633 1822.293 L 735.633 1773.413 C 735.633 1757.845 744.003 1746.294 761.245 1746.294 C 772.125 1746.294 778.821 1753.158 778.821 1763.704 L 778.821 1822.293 L 793.05 1822.293 L 793.05 1765.378 C 793.05 1746.797 786.019 1733.74 763.253 1733.74 C 752.875 1733.74 740.655 1738.092 735.968 1748.471 L 735.633 1748.471 L 735.633 1702.771 L 721.404 1702.771 L 721.404 1822.293 Z  M 874.237 1794.839 C 871.726 1806.055 863.524 1811.747 851.806 1811.747 C 832.89 1811.747 824.353 1798.355 824.855 1783.289 L 889.638 1783.289 C 890.475 1762.365 881.101 1733.74 850.467 1733.74 C 826.864 1733.74 809.79 1752.823 809.79 1778.769 C 810.627 1805.218 823.683 1824.301 851.304 1824.301 C 870.722 1824.301 884.448 1813.923 888.299 1794.839 L 874.237 1794.839 Z  M 824.855 1770.734 C 825.86 1757.51 834.732 1746.294 849.63 1746.294 C 863.691 1746.294 873.902 1757.175 874.572 1770.734 L 824.855 1770.734 Z  M 904.369 1822.293 L 918.597 1822.293 L 918.597 1768.391 C 918.597 1761.862 924.791 1746.294 941.698 1746.294 C 954.42 1746.294 957.936 1754.329 957.936 1765.545 L 957.936 1822.293 L 972.164 1822.293 L 972.164 1768.391 C 972.164 1754.999 981.036 1746.294 994.763 1746.294 C 1008.657 1746.294 1011.503 1754.832 1011.503 1765.545 L 1011.503 1822.293 L 1025.731 1822.293 L 1025.731 1758.849 C 1025.731 1740.938 1014.181 1733.74 996.939 1733.74 C 985.891 1733.74 975.68 1739.264 969.821 1748.471 C 966.306 1737.925 956.597 1733.74 946.051 1733.74 C 934.165 1733.74 924.456 1738.762 918.095 1748.471 L 917.76 1748.471 L 917.76 1735.748 L 904.369 1735.748 L 904.369 1822.293 Z  M 1100.725 1792.161 C 1100.725 1800.029 1093.025 1811.747 1074.276 1811.747 C 1065.572 1811.747 1057.537 1808.399 1057.537 1799.024 C 1057.537 1788.478 1065.572 1785.13 1074.946 1783.456 C 1084.488 1781.783 1095.201 1781.615 1100.725 1777.598 L 1100.725 1792.161 Z  M 1123.826 1810.91 C 1121.984 1811.579 1120.645 1811.747 1119.474 1811.747 C 1114.954 1811.747 1114.954 1808.733 1114.954 1802.038 L 1114.954 1757.51 C 1114.954 1737.255 1098.047 1733.74 1082.479 1733.74 C 1063.228 1733.74 1046.656 1741.273 1045.819 1762.699 L 1060.048 1762.699 C 1060.717 1749.977 1069.589 1746.294 1081.642 1746.294 C 1090.681 1746.294 1100.892 1748.303 1100.892 1760.691 C 1100.892 1771.404 1087.501 1770.4 1071.765 1773.413 C 1057.035 1776.258 1042.471 1780.443 1042.471 1800.029 C 1042.471 1817.271 1055.361 1824.301 1071.096 1824.301 C 1083.148 1824.301 1093.694 1820.116 1101.562 1810.91 C 1101.562 1820.284 1106.249 1824.301 1113.615 1824.301 C 1118.134 1824.301 1121.315 1823.464 1123.826 1821.958 L 1123.826 1810.91 Z  M 1131.526 1795.007 C 1132.363 1816.434 1148.768 1824.301 1168.186 1824.301 C 1185.763 1824.301 1205.013 1817.605 1205.013 1797.016 C 1205.013 1780.276 1190.952 1775.589 1176.723 1772.408 C 1163.499 1769.228 1148.433 1767.554 1148.433 1757.343 C 1148.433 1748.638 1158.309 1746.294 1166.847 1746.294 C 1176.221 1746.294 1185.93 1749.81 1186.934 1760.858 L 1201.163 1760.858 C 1199.991 1739.766 1184.758 1733.74 1165.675 1733.74 C 1150.609 1733.74 1133.367 1740.938 1133.367 1758.347 C 1133.367 1774.919 1147.596 1779.606 1161.657 1782.787 C 1175.886 1785.967 1189.947 1787.809 1189.947 1798.857 C 1189.947 1809.738 1177.895 1811.747 1169.023 1811.747 C 1157.305 1811.747 1146.257 1807.729 1145.755 1795.007 L 1131.526 1795.007 Z " fill-rule="evenodd" fill="rgb(255,255,255)"/><path d=" M 318.146 1142.307 L 354.471 1142.307 C 367.862 1142.307 380.417 1146.659 380.417 1162.227 C 380.417 1175.284 371.712 1183.654 357.986 1183.654 L 318.146 1183.654 L 318.146 1142.307 Z  M 302.243 1197.046 L 359.995 1197.046 C 383.765 1197.046 396.32 1180.306 396.32 1162.73 C 396.32 1147.999 388.285 1136.95 373.554 1133.937 L 373.554 1133.603 C 384.602 1129.083 391.298 1119.541 391.298 1106.819 C 391.298 1095.101 385.104 1086.564 377.237 1081.877 C 370.038 1077.525 356.145 1077.525 345.599 1077.525 L 302.243 1077.525 L 302.243 1197.046 Z  M 318.146 1090.916 L 349.951 1090.916 C 363.677 1090.916 375.395 1093.26 375.395 1109.832 C 375.395 1122.387 368.03 1128.915 349.951 1128.915 L 318.146 1128.915 L 318.146 1090.916 Z  M 415.403 1197.046 L 429.632 1197.046 L 429.632 1110.502 L 415.403 1110.502 L 415.403 1197.046 Z  M 429.632 1077.525 L 415.403 1077.525 L 415.403 1094.934 L 429.632 1094.934 L 429.632 1077.525 Z  M 447.041 1153.858 C 447.041 1179.134 461.604 1199.055 489.058 1199.055 C 516.511 1199.055 531.074 1179.134 531.074 1153.858 C 531.074 1128.413 516.511 1108.493 489.058 1108.493 C 461.604 1108.493 447.041 1128.413 447.041 1153.858 Z  M 462.107 1153.858 C 462.107 1132.766 474.159 1121.048 489.058 1121.048 C 503.956 1121.048 516.008 1132.766 516.008 1153.858 C 516.008 1174.782 503.956 1186.5 489.058 1186.5 C 474.159 1186.5 462.107 1174.782 462.107 1153.858 Z  M 542.29 1169.76 C 543.127 1191.187 559.532 1199.055 578.95 1199.055 C 596.526 1199.055 615.777 1192.359 615.777 1171.769 C 615.777 1155.029 601.716 1150.342 587.487 1147.162 C 574.262 1143.981 559.197 1142.307 559.197 1132.096 C 559.197 1123.391 569.073 1121.048 577.61 1121.048 C 586.985 1121.048 596.694 1124.563 597.698 1135.611 L 611.927 1135.611 C 610.755 1114.519 595.522 1108.493 576.439 1108.493 C 561.373 1108.493 544.131 1115.691 544.131 1133.1 C 544.131 1149.673 558.36 1154.36 572.421 1157.54 C 586.65 1160.721 600.711 1162.562 600.711 1173.61 C 600.711 1184.491 588.659 1186.5 579.787 1186.5 C 568.069 1186.5 557.021 1182.482 556.518 1169.76 L 542.29 1169.76 Z  M 704.999 1138.29 C 702.991 1117.7 687.255 1108.493 667.67 1108.493 C 640.217 1108.493 626.825 1128.915 626.825 1154.862 C 626.825 1180.641 640.886 1199.055 667.335 1199.055 C 689.097 1199.055 702.321 1186.5 705.501 1165.408 L 690.938 1165.408 C 689.097 1178.465 680.894 1186.5 667.168 1186.5 C 649.089 1186.5 641.891 1170.765 641.891 1154.862 C 641.891 1137.285 648.252 1121.048 668.842 1121.048 C 680.559 1121.048 688.092 1127.409 690.268 1138.29 L 704.999 1138.29 Z  M 721.404 1197.046 L 735.633 1197.046 L 735.633 1148.166 C 735.633 1132.598 744.003 1121.048 761.245 1121.048 C 772.125 1121.048 778.821 1127.911 778.821 1138.457 L 778.821 1197.046 L 793.05 1197.046 L 793.05 1140.131 C 793.05 1121.55 786.019 1108.493 763.253 1108.493 C 752.875 1108.493 740.655 1112.845 735.968 1123.224 L 735.633 1123.224 L 735.633 1077.525 L 721.404 1077.525 L 721.404 1197.046 Z  M 874.237 1169.593 C 871.726 1180.808 863.524 1186.5 851.806 1186.5 C 832.89 1186.5 824.353 1173.108 824.855 1158.042 L 889.638 1158.042 C 890.475 1137.118 881.101 1108.493 850.467 1108.493 C 826.864 1108.493 809.79 1127.576 809.79 1153.523 C 810.627 1179.971 823.683 1199.055 851.304 1199.055 C 870.722 1199.055 884.448 1188.676 888.299 1169.593 L 874.237 1169.593 Z  M 824.855 1145.488 C 825.86 1132.263 834.732 1121.048 849.63 1121.048 C 863.691 1121.048 873.902 1131.929 874.572 1145.488 L 824.855 1145.488 Z  M 904.369 1197.046 L 918.597 1197.046 L 918.597 1143.144 C 918.597 1136.616 924.791 1121.048 941.698 1121.048 C 954.42 1121.048 957.936 1129.083 957.936 1140.298 L 957.936 1197.046 L 972.164 1197.046 L 972.164 1143.144 C 972.164 1129.752 981.036 1121.048 994.763 1121.048 C 1008.657 1121.048 1011.503 1129.585 1011.503 1140.298 L 1011.503 1197.046 L 1025.731 1197.046 L 1025.731 1133.603 C 1025.731 1115.691 1014.181 1108.493 996.939 1108.493 C 985.891 1108.493 975.68 1114.017 969.821 1123.224 C 966.306 1112.678 956.597 1108.493 946.051 1108.493 C 934.165 1108.493 924.456 1113.515 918.095 1123.224 L 917.76 1123.224 L 917.76 1110.502 L 904.369 1110.502 L 904.369 1197.046 Z  M 1100.725 1166.914 C 1100.725 1174.782 1093.025 1186.5 1074.276 1186.5 C 1065.572 1186.5 1057.537 1183.152 1057.537 1173.778 C 1057.537 1163.232 1065.572 1159.884 1074.946 1158.21 C 1084.488 1156.536 1095.201 1156.368 1100.725 1152.351 L 1100.725 1166.914 Z  M 1123.826 1185.663 C 1121.984 1186.332 1120.645 1186.5 1119.474 1186.5 C 1114.954 1186.5 1114.954 1183.487 1114.954 1176.791 L 1114.954 1132.263 C 1114.954 1112.008 1098.047 1108.493 1082.479 1108.493 C 1063.228 1108.493 1046.656 1116.026 1045.819 1137.453 L 1060.048 1137.453 C 1060.717 1124.73 1069.589 1121.048 1081.642 1121.048 C 1090.681 1121.048 1100.892 1123.057 1100.892 1135.444 C 1100.892 1146.157 1087.501 1145.153 1071.765 1148.166 C 1057.035 1151.012 1042.471 1155.197 1042.471 1174.782 C 1042.471 1192.024 1055.361 1199.055 1071.096 1199.055 C 1083.148 1199.055 1093.694 1194.87 1101.562 1185.663 C 1101.562 1195.037 1106.249 1199.055 1113.615 1199.055 C 1118.134 1199.055 1121.315 1198.218 1123.826 1196.711 L 1123.826 1185.663 Z  M 1131.526 1169.76 C 1132.363 1191.187 1148.768 1199.055 1168.186 1199.055 C 1185.763 1199.055 1205.013 1192.359 1205.013 1171.769 C 1205.013 1155.029 1190.952 1150.342 1176.723 1147.162 C 1163.499 1143.981 1148.433 1142.307 1148.433 1132.096 C 1148.433 1123.391 1158.309 1121.048 1166.847 1121.048 C 1176.221 1121.048 1185.93 1124.563 1186.934 1135.611 L 1201.163 1135.611 C 1199.991 1114.519 1184.758 1108.493 1165.675 1108.493 C 1150.609 1108.493 1133.367 1115.691 1133.367 1133.1 C 1133.367 1149.673 1147.596 1154.36 1161.657 1157.54 C 1175.886 1160.721 1189.947 1162.562 1189.947 1173.61 C 1189.947 1184.491 1177.895 1186.5 1169.023 1186.5 C 1157.305 1186.5 1146.257 1182.482 1145.755 1169.76 L 1131.526 1169.76 Z " fill-rule="evenodd" fill="rgb(255,255,255)"/><path d=" M 285.28 147.41 L 321.605 147.41 C 334.996 147.41 347.551 151.762 347.551 167.33 C 347.551 180.387 338.847 188.757 325.12 188.757 L 285.28 188.757 L 285.28 147.41 Z  M 269.377 202.148 L 327.129 202.148 C 350.899 202.148 363.454 185.409 363.454 167.832 C 363.454 153.101 355.419 142.053 340.688 139.04 L 340.688 138.705 C 351.736 134.185 358.432 124.644 358.432 111.922 C 358.432 100.204 352.238 91.667 344.371 86.979 C 337.173 82.627 323.279 82.627 312.733 82.627 L 269.377 82.627 L 269.377 202.148 Z  M 285.28 96.019 L 317.085 96.019 C 330.812 96.019 342.529 98.362 342.529 114.935 C 342.529 127.489 335.164 134.018 317.085 134.018 L 285.28 134.018 L 285.28 96.019 Z  M 382.537 202.148 L 396.766 202.148 L 396.766 115.604 L 382.537 115.604 L 382.537 202.148 Z  M 396.766 82.627 L 382.537 82.627 L 382.537 100.036 L 396.766 100.036 L 396.766 82.627 Z  M 414.175 158.96 C 414.175 184.237 428.739 204.157 456.192 204.157 C 483.645 204.157 498.208 184.237 498.208 158.96 C 498.208 133.516 483.645 113.596 456.192 113.596 C 428.739 113.596 414.175 133.516 414.175 158.96 Z  M 429.241 158.96 C 429.241 137.868 441.293 126.15 456.192 126.15 C 471.09 126.15 483.143 137.868 483.143 158.96 C 483.143 179.885 471.09 191.602 456.192 191.602 C 441.293 191.602 429.241 179.885 429.241 158.96 Z  M 509.424 174.863 C 510.261 196.289 526.666 204.157 546.084 204.157 C 563.66 204.157 582.911 197.461 582.911 176.871 C 582.911 160.132 568.85 155.445 554.621 152.264 C 541.397 149.084 526.331 147.41 526.331 137.198 C 526.331 128.494 536.207 126.15 544.745 126.15 C 554.119 126.15 563.828 129.666 564.832 140.714 L 579.061 140.714 C 577.889 119.622 562.656 113.596 543.573 113.596 C 528.507 113.596 511.265 120.794 511.265 138.203 C 511.265 154.775 525.494 159.462 539.555 162.643 C 553.784 165.823 567.845 167.665 567.845 178.713 C 567.845 189.594 555.793 191.602 546.921 191.602 C 535.203 191.602 524.155 187.585 523.653 174.863 L 509.424 174.863 Z  M 672.133 143.392 C 670.125 122.802 654.389 113.596 634.804 113.596 C 607.351 113.596 593.959 134.018 593.959 159.964 C 593.959 185.743 608.02 204.157 634.469 204.157 C 656.231 204.157 669.455 191.602 672.636 170.51 L 658.072 170.51 C 656.231 183.567 648.028 191.602 634.302 191.602 C 616.223 191.602 609.025 175.867 609.025 159.964 C 609.025 142.388 615.386 126.15 635.976 126.15 C 647.693 126.15 655.226 132.511 657.403 143.392 L 672.133 143.392 Z  M 688.538 202.148 L 702.767 202.148 L 702.767 153.269 C 702.767 137.701 711.137 126.15 728.379 126.15 C 739.26 126.15 745.955 133.014 745.955 143.56 L 745.955 202.148 L 760.184 202.148 L 760.184 145.233 C 760.184 126.652 753.153 113.596 730.388 113.596 C 720.009 113.596 707.789 117.948 703.102 128.326 L 702.767 128.326 L 702.767 82.627 L 688.538 82.627 L 688.538 202.148 Z  M 841.372 174.695 C 838.86 185.911 830.658 191.602 818.94 191.602 C 800.025 191.602 791.487 178.211 791.989 163.145 L 856.772 163.145 C 857.609 142.22 848.235 113.596 817.601 113.596 C 793.998 113.596 776.924 132.679 776.924 158.625 C 777.761 185.074 790.818 204.157 818.438 204.157 C 837.856 204.157 851.583 193.779 855.433 174.695 L 841.372 174.695 Z  M 791.989 150.59 C 792.994 137.366 801.866 126.15 816.764 126.15 C 830.826 126.15 841.037 137.031 841.706 150.59 L 791.989 150.59 Z  M 871.503 202.148 L 885.732 202.148 L 885.732 148.247 C 885.732 141.718 891.925 126.15 908.832 126.15 C 921.554 126.15 925.07 134.185 925.07 145.401 L 925.07 202.148 L 939.299 202.148 L 939.299 148.247 C 939.299 134.855 948.171 126.15 961.897 126.15 C 975.791 126.15 978.637 134.687 978.637 145.401 L 978.637 202.148 L 992.865 202.148 L 992.865 138.705 C 992.865 120.794 981.315 113.596 964.073 113.596 C 953.025 113.596 942.814 119.12 936.955 128.326 C 933.44 117.78 923.731 113.596 913.185 113.596 C 901.299 113.596 891.591 118.617 885.229 128.326 L 884.895 128.326 L 884.895 115.604 L 871.503 115.604 L 871.503 202.148 Z  M 1067.859 172.017 C 1067.859 179.885 1060.159 191.602 1041.411 191.602 C 1032.706 191.602 1024.671 188.254 1024.671 178.88 C 1024.671 168.334 1032.706 164.986 1042.08 163.312 C 1051.622 161.638 1062.335 161.471 1067.859 157.453 L 1067.859 172.017 Z  M 1090.96 190.765 C 1089.119 191.435 1087.779 191.602 1086.608 191.602 C 1082.088 191.602 1082.088 188.589 1082.088 181.893 L 1082.088 137.366 C 1082.088 117.111 1065.181 113.596 1049.613 113.596 C 1030.362 113.596 1013.79 121.128 1012.953 142.555 L 1027.182 142.555 C 1027.851 129.833 1036.723 126.15 1048.776 126.15 C 1057.815 126.15 1068.027 128.159 1068.027 140.546 C 1068.027 151.26 1054.635 150.255 1038.9 153.269 C 1024.169 156.114 1009.605 160.299 1009.605 179.885 C 1009.605 197.126 1022.495 204.157 1038.23 204.157 C 1050.283 204.157 1060.828 199.972 1068.696 190.765 C 1068.696 200.14 1073.383 204.157 1080.749 204.157 C 1085.268 204.157 1088.449 203.32 1090.96 201.814 L 1090.96 190.765 Z  M 1098.66 174.863 C 1099.497 196.289 1115.902 204.157 1135.32 204.157 C 1152.897 204.157 1172.147 197.461 1172.147 176.871 C 1172.147 160.132 1158.086 155.445 1143.857 152.264 C 1130.633 149.084 1115.567 147.41 1115.567 137.198 C 1115.567 128.494 1125.444 126.15 1133.981 126.15 C 1143.355 126.15 1153.064 129.666 1154.068 140.714 L 1168.297 140.714 C 1167.125 119.622 1151.892 113.596 1132.809 113.596 C 1117.743 113.596 1100.502 120.794 1100.502 138.203 C 1100.502 154.775 1114.73 159.462 1128.792 162.643 C 1143.02 165.823 1157.082 167.665 1157.082 178.713 C 1157.082 189.594 1145.029 191.602 1136.157 191.602 C 1124.439 191.602 1113.391 187.585 1112.889 174.863 L 1098.66 174.863 Z " fill-rule="evenodd" fill="rgb(69,70,71)"/><path d=" M 322.366 837.41 L 358.692 837.41 C 372.083 837.41 384.638 841.762 384.638 857.33 C 384.638 870.387 375.933 878.757 362.207 878.757 L 322.366 878.757 L 322.366 837.41 Z  M 306.464 892.148 L 364.216 892.148 C 387.986 892.148 400.541 875.409 400.541 857.832 C 400.541 843.101 392.506 832.053 377.775 829.04 L 377.775 828.705 C 388.823 824.185 395.519 814.644 395.519 801.922 C 395.519 790.204 389.325 781.667 381.457 776.979 C 374.259 772.627 360.365 772.627 349.819 772.627 L 306.464 772.627 L 306.464 892.148 Z  M 322.366 786.019 L 354.172 786.019 C 367.898 786.019 379.616 788.362 379.616 804.935 C 379.616 817.489 372.251 824.018 354.172 824.018 L 322.366 824.018 L 322.366 786.019 Z  M 419.624 892.148 L 433.853 892.148 L 433.853 805.604 L 419.624 805.604 L 419.624 892.148 Z  M 433.853 772.627 L 419.624 772.627 L 419.624 790.036 L 433.853 790.036 L 433.853 772.627 Z  M 451.262 848.96 C 451.262 874.237 465.825 894.157 493.278 894.157 C 520.732 894.157 535.295 874.237 535.295 848.96 C 535.295 823.516 520.732 803.596 493.278 803.596 C 465.825 803.596 451.262 823.516 451.262 848.96 Z  M 466.328 848.96 C 466.328 827.868 478.38 816.15 493.278 816.15 C 508.177 816.15 520.229 827.868 520.229 848.96 C 520.229 869.885 508.177 881.602 493.278 881.602 C 478.38 881.602 466.328 869.885 466.328 848.96 Z  M 546.511 864.863 C 547.348 886.289 563.752 894.157 583.17 894.157 C 600.747 894.157 619.998 887.461 619.998 866.871 C 619.998 850.132 605.936 845.445 591.708 842.264 C 578.483 839.084 563.418 837.41 563.418 827.198 C 563.418 818.494 573.294 816.15 581.831 816.15 C 591.206 816.15 600.915 819.666 601.919 830.714 L 616.148 830.714 C 614.976 809.622 599.743 803.596 580.66 803.596 C 565.594 803.596 548.352 810.794 548.352 828.203 C 548.352 844.775 562.581 849.462 576.642 852.643 C 590.871 855.823 604.932 857.665 604.932 868.713 C 604.932 879.594 592.879 881.602 584.007 881.602 C 572.29 881.602 561.242 877.585 560.739 864.863 L 546.511 864.863 Z  M 709.22 833.392 C 707.211 812.802 691.476 803.596 671.891 803.596 C 644.438 803.596 631.046 824.018 631.046 849.964 C 631.046 875.743 645.107 894.157 671.556 894.157 C 693.318 894.157 706.542 881.602 709.722 860.51 L 695.159 860.51 C 693.318 873.567 685.115 881.602 671.389 881.602 C 653.31 881.602 646.112 865.867 646.112 849.964 C 646.112 832.388 652.473 816.15 673.063 816.15 C 684.78 816.15 692.313 822.511 694.489 833.392 L 709.22 833.392 Z  M 725.625 892.148 L 739.854 892.148 L 739.854 843.269 C 739.854 827.701 748.224 816.15 765.466 816.15 C 776.346 816.15 783.042 823.014 783.042 833.56 L 783.042 892.148 L 797.271 892.148 L 797.271 835.233 C 797.271 816.652 790.24 803.596 767.474 803.596 C 757.096 803.596 744.876 807.948 740.189 818.326 L 739.854 818.326 L 739.854 772.627 L 725.625 772.627 L 725.625 892.148 Z  M 878.458 864.695 C 875.947 875.911 867.745 881.602 856.027 881.602 C 837.111 881.602 828.574 868.211 829.076 853.145 L 893.859 853.145 C 894.696 832.22 885.322 803.596 854.688 803.596 C 831.085 803.596 814.011 822.679 814.011 848.625 C 814.847 875.074 827.904 894.157 855.525 894.157 C 874.943 894.157 888.669 883.779 892.52 864.695 L 878.458 864.695 Z  M 829.076 840.59 C 830.081 827.366 838.953 816.15 853.851 816.15 C 867.912 816.15 878.123 827.031 878.793 840.59 L 829.076 840.59 Z  M 908.59 892.148 L 922.818 892.148 L 922.818 838.247 C 922.818 831.718 929.012 816.15 945.919 816.15 C 958.641 816.15 962.157 824.185 962.157 835.401 L 962.157 892.148 L 976.385 892.148 L 976.385 838.247 C 976.385 824.855 985.257 816.15 998.984 816.15 C 1012.878 816.15 1015.724 824.687 1015.724 835.401 L 1015.724 892.148 L 1029.952 892.148 L 1029.952 828.705 C 1029.952 810.794 1018.402 803.596 1001.16 803.596 C 990.112 803.596 979.901 809.12 974.042 818.326 C 970.526 807.78 960.817 803.596 950.271 803.596 C 938.386 803.596 928.677 808.617 922.316 818.326 L 921.981 818.326 L 921.981 805.604 L 908.59 805.604 L 908.59 892.148 Z  M 1104.946 862.017 C 1104.946 869.885 1097.246 881.602 1078.497 881.602 C 1069.793 881.602 1061.758 878.254 1061.758 868.88 C 1061.758 858.334 1069.793 854.986 1079.167 853.312 C 1088.708 851.638 1099.422 851.471 1104.946 847.453 L 1104.946 862.017 Z  M 1128.047 880.765 C 1126.205 881.435 1124.866 881.602 1123.694 881.602 C 1119.175 881.602 1119.175 878.589 1119.175 871.893 L 1119.175 827.366 C 1119.175 807.111 1102.268 803.596 1086.7 803.596 C 1067.449 803.596 1050.877 811.128 1050.04 832.555 L 1064.269 832.555 C 1064.938 819.833 1073.81 816.15 1085.863 816.15 C 1094.902 816.15 1105.113 818.159 1105.113 830.546 C 1105.113 841.26 1091.722 840.255 1075.986 843.269 C 1061.255 846.114 1046.692 850.299 1046.692 869.885 C 1046.692 887.126 1059.581 894.157 1075.317 894.157 C 1087.369 894.157 1097.915 889.972 1105.783 880.765 C 1105.783 890.14 1110.47 894.157 1117.836 894.157 C 1122.355 894.157 1125.536 893.32 1128.047 891.814 L 1128.047 880.765 Z  M 1135.747 864.863 C 1136.584 886.289 1152.989 894.157 1172.407 894.157 C 1189.983 894.157 1209.234 887.461 1209.234 866.871 C 1209.234 850.132 1195.173 845.445 1180.944 842.264 C 1167.72 839.084 1152.654 837.41 1152.654 827.198 C 1152.654 818.494 1162.53 816.15 1171.068 816.15 C 1180.442 816.15 1190.151 819.666 1191.155 830.714 L 1205.384 830.714 C 1204.212 809.622 1188.979 803.596 1169.896 803.596 C 1154.83 803.596 1137.588 810.794 1137.588 828.203 C 1137.588 844.775 1151.817 849.462 1165.878 852.643 C 1180.107 855.823 1194.168 857.665 1194.168 868.713 C 1194.168 879.594 1182.116 881.602 1173.244 881.602 C 1161.526 881.602 1150.478 877.585 1149.976 864.863 L 1135.747 864.863 Z " fill-rule="evenodd" fill="rgb(69,70,71)"/><polygon points="238.489,514.105,124.189,580.096,9.89,514.105,9.89,382.123,124.189,316.132,238.489,382.123" fill="rgb(235,235,235)"/><path d=" M 124.189 448.114 L 9.89 514.105 L 9.89 382.123 L 124.189 448.114 Z " fill="rgb(191,76,76)"/><path d=" M 369.59 440.267 L 255.29 506.258 L 255.29 374.276 L 369.59 440.267 Z " fill="rgb(11,121,75)" vector-effect="non-scaling-stroke" stroke-width="6" stroke="rgb(255,255,255)" stroke-linejoin="miter" stroke-linecap="square" stroke-miterlimit="3"/><path d=" M 124.189 448.114 L 238.489 514.105 L 238.489 382.123 L 124.189 448.114 Z " fill="rgb(191,76,76)"/><path d=" M 369.59 440.267 L 483.89 506.258 L 483.89 374.276 L 369.59 440.267 Z " fill="rgb(43,181,115)" vector-effect="non-scaling-stroke" stroke-width="6" stroke="rgb(255,255,255)" stroke-linejoin="miter" stroke-linecap="square" stroke-miterlimit="3"/><path d=" M 124.189 448.114 L 124.189 580.096 L 9.89 514.105 L 124.189 448.114 Z " fill="rgb(191,76,76)"/><path d=" M 369.59 440.267 L 369.59 572.249 L 255.29 506.258 L 369.59 440.267 Z " fill="rgb(43,181,115)" vector-effect="non-scaling-stroke" stroke-width="6" stroke="rgb(255,255,255)" stroke-linejoin="miter" stroke-linecap="square" stroke-miterlimit="3"/><path d=" M 124.189 448.114 L 238.489 382.123 L 124.189 316.132 L 124.189 448.114 Z " fill="rgb(191,76,76)"/><path d=" M 369.59 440.267 L 483.89 374.276 L 369.59 308.285 L 369.59 440.267 Z " fill="rgb(11,121,75)" vector-effect="non-scaling-stroke" stroke-width="6" stroke="rgb(255,255,255)" stroke-linejoin="miter" stroke-linecap="square" stroke-miterlimit="3"/><path d=" M 124.189 448.114 L 9.89 382.123 L 124.189 316.132 L 124.189 448.114 Z " fill="rgb(191,76,76)"/><path d=" M 369.59 440.267 L 255.29 374.276 L 369.59 308.285 L 369.59 440.267 Z " fill="rgb(43,181,115)" vector-effect="non-scaling-stroke" stroke-width="6" stroke="rgb(255,255,255)" stroke-linejoin="miter" stroke-linecap="square" stroke-miterlimit="3"/><path d=" M 124.189 448.114 L 124.189 580.096 L 238.489 514.105 L 124.189 448.114 Z " fill="rgb(191,76,76)"/><path d=" M 369.59 440.267 L 369.59 572.249 L 483.89 506.258 L 369.59 440.267 Z " fill="rgb(11,121,75)" vector-effect="non-scaling-stroke" stroke-width="6" stroke="rgb(255,255,255)" stroke-linejoin="miter" stroke-linecap="square" stroke-miterlimit="3"/><path d=" M 369.59 440.267 L 324.576 466.256 L 324.576 414.278 L 369.59 440.267 Z " fill="rgb(69,70,71)"/><path d=" M 659.092 440.267 L 614.078 466.256 L 614.078 414.278 L 659.092 440.267 Z " fill="rgb(69,70,71)"/><path d=" M 369.59 440.267 L 414.604 466.256 L 414.604 414.278 L 369.59 440.267 Z " fill="rgb(69,70,71)"/><path d=" M 659.092 440.267 L 704.106 466.256 L 704.106 414.278 L 659.092 440.267 Z " fill="rgb(69,70,71)"/><path d=" M 369.59 440.267 L 369.59 492.244 L 324.576 466.256 L 369.59 440.267 Z " fill="rgb(69,70,71)"/><path d=" M 659.092 440.267 L 659.092 492.244 L 614.078 466.256 L 659.092 440.267 Z " fill="rgb(69,70,71)"/><path d=" M 369.59 440.267 L 414.604 414.278 L 369.59 388.29 L 369.59 440.267 Z " fill="rgb(69,70,71)"/><path d=" M 659.092 440.267 L 704.106 414.278 L 659.092 388.29 L 659.092 440.267 Z " fill="rgb(69,70,71)"/><path d=" M 369.59 440.267 L 324.576 414.278 L 369.59 388.29 L 369.59 440.267 Z " fill="rgb(69,70,71)"/><path d=" M 659.108 440.285 L 614.088 414.293 L 659.108 388.3 L 659.108 440.285 Z " fill="rgb(69,70,71)"/><path d=" M 369.59 440.267 L 369.59 492.244 L 414.604 466.256 L 369.59 440.267 Z " fill="rgb(69,70,71)"/><path d=" M 659.108 440.285 L 659.108 492.248 L 704.109 466.267 L 659.108 440.285 Z " fill="rgb(69,70,71)"/><path d=" M 1243.373 308.262 Q 1278.418 333.06 1298.546 344.681 Q 1318.675 356.302 1357.672 374.253 L 1357.672 374.253 Q 1357.672 374.253 1357.672 374.253 Q 1357.672 374.253 1357.672 374.253 L 1357.672 374.253 Q 1353.72 417.002 1353.72 440.244 Q 1353.72 463.486 1357.672 506.235 L 1357.672 506.235 Q 1357.672 506.235 1357.672 506.235 Q 1357.672 506.235 1357.672 506.235 L 1357.672 506.235 Q 1318.675 524.187 1298.546 535.808 Q 1278.418 547.429 1243.373 572.226 Q 1243.373 572.226 1243.373 572.226 Q 1243.373 572.226 1243.373 572.226 L 1243.373 572.226 Q 1208.327 547.429 1188.199 535.808 Q 1168.071 524.187 1129.073 506.235 L 1129.073 506.235 Q 1129.073 506.235 1129.073 506.235 Q 1129.073 506.235 1129.073 506.235 L 1129.073 506.235 Q 1133.025 463.486 1133.025 440.244 Q 1133.025 417.002 1129.073 374.253 L 1129.073 374.253 Q 1129.073 374.253 1129.073 374.253 Q 1129.073 374.253 1129.073 374.253 L 1129.073 374.253 Q 1168.071 356.302 1188.199 344.681 Q 1208.327 333.06 1243.373 308.262 Q 1243.373 308.262 1243.373 308.262 Q 1243.373 308.262 1243.373 308.262 L 1243.373 308.262 Z " fill="rgb(191,76,76)"/><path d=" M 1243.373 388.132 Q 1257.21 397.923 1265.158 402.512 Q 1273.105 407.1 1288.503 414.188 L 1288.503 414.188 Q 1288.503 414.188 1288.503 414.188 Q 1288.503 414.188 1288.503 414.188 L 1288.503 414.188 Q 1286.943 431.067 1286.943 440.244 Q 1286.943 449.421 1288.503 466.301 L 1288.503 466.301 Q 1288.503 466.301 1288.503 466.301 Q 1288.503 466.301 1288.503 466.301 L 1288.503 466.301 Q 1273.105 473.389 1265.158 477.977 Q 1257.21 482.566 1243.373 492.357 Q 1243.373 492.357 1243.373 492.357 Q 1243.373 492.357 1243.373 492.357 L 1243.373 492.357 Q 1229.535 482.566 1221.588 477.977 Q 1213.64 473.389 1198.242 466.301 L 1198.242 466.301 Q 1198.242 466.301 1198.242 466.301 Q 1198.242 466.301 1198.242 466.301 L 1198.242 466.301 Q 1199.803 449.421 1199.803 440.244 Q 1199.803 431.067 1198.242 414.188 L 1198.242 414.188 Q 1198.242 414.188 1198.242 414.188 Q 1198.242 414.188 1198.242 414.188 L 1198.242 414.188 Q 1213.64 407.1 1221.588 402.512 Q 1229.535 397.923 1243.373 388.132 Q 1243.373 388.132 1243.373 388.132 Q 1243.373 388.132 1243.373 388.132 L 1243.373 388.132 Z " fill="rgb(69,70,71)"/><path d=" M 1238.852 448.096 L 1090.383 533.815 L 1085.863 525.986 L 1234.316 440.276 L 1085.863 354.566 L 1090.383 346.737 L 1238.852 432.456 L 1238.852 261 L 1247.893 261 L 1247.893 432.438 L 1396.362 346.719 L 1400.883 354.548 L 1252.398 440.276 L 1400.883 526.004 L 1396.362 533.833 L 1247.893 448.114 L 1247.893 619.534 L 1238.852 619.534 L 1238.852 448.096 Z " fill="rgb(235,235,235)"/><path d=" M 1467.192 371.951 Q 1502.514 355.548 1521.336 344.681 Q 1540.148 333.82 1571.99 311.45 L 1571.99 432.456 L 1467.192 371.951 Z  M 1462.708 500.751 Q 1466.162 461.973 1466.162 440.244 Q 1466.162 418.535 1462.714 379.805 L 1567.454 440.276 L 1462.708 500.751 Z  M 1571.99 569.039 Q 1540.148 546.669 1521.336 535.808 Q 1502.53 524.951 1467.252 508.567 L 1571.99 448.096 L 1571.99 569.039 Z  M 1685.75 508.575 Q 1650.485 524.953 1631.684 535.808 Q 1612.872 546.669 1581.03 569.039 L 1581.03 448.114 L 1685.75 508.575 Z  M 1690.307 379.786 Q 1686.858 418.529 1686.858 440.244 Q 1686.858 461.978 1690.313 500.77 L 1585.535 440.276 L 1690.307 379.786 Z  M 1581.03 311.45 Q 1612.872 333.82 1631.684 344.681 Q 1650.501 355.545 1685.811 371.942 L 1581.03 432.438 L 1581.03 311.45 Z " fill-rule="evenodd" fill="rgb(191,76,76)"/><path d=" M 1536.345 411.876 Q 1548.113 406.329 1554.725 402.512 Q 1561.326 398.701 1571.99 391.301 L 1571.99 432.456 L 1536.345 411.876 Z  M 1531.861 460.825 Q 1532.94 447.873 1532.94 440.244 Q 1532.94 432.635 1531.867 419.73 L 1567.454 440.276 L 1531.861 460.825 Z  M 1571.99 489.188 Q 1561.326 481.788 1554.725 477.977 Q 1548.13 474.17 1536.405 468.641 L 1571.99 448.096 L 1571.99 489.188 Z  M 1616.598 468.649 Q 1604.885 474.173 1598.295 477.977 Q 1591.694 481.788 1581.03 489.188 L 1581.03 448.114 L 1616.598 468.649 Z  M 1621.155 419.711 Q 1620.08 432.629 1620.08 440.244 Q 1620.08 447.879 1621.16 460.844 L 1585.535 440.276 L 1621.155 419.711 Z  M 1581.03 391.301 Q 1591.694 398.701 1598.295 402.512 Q 1604.902 406.326 1616.658 411.868 L 1581.03 432.438 L 1581.03 391.301 Z " fill-rule="evenodd" fill="rgb(69,70,71)"/><g id="Group"><path d=" M 47.949 1393.242 Q 83.272 1376.839 102.094 1365.972 Q 120.906 1355.111 152.747 1332.741 L 152.747 1453.748 L 47.949 1393.242 Z " fill="rgb(43,181,115)"/><path d=" M 43.466 1522.043 Q 46.92 1483.265 46.92 1461.536 Q 46.92 1439.826 43.472 1401.096 L 148.211 1461.568 L 43.466 1522.043 Z " fill="rgb(11,121,75)"/><path d=" M 152.747 1590.331 Q 120.906 1567.961 102.094 1557.1 Q 83.288 1546.242 48.01 1529.858 L 152.747 1469.388 L 152.747 1590.331 Z " fill="rgb(43,181,115)"/><path d=" M 266.508 1529.866 Q 231.243 1546.245 212.441 1557.1 Q 193.63 1567.961 161.788 1590.331 L 161.788 1469.406 L 266.508 1529.866 Z " fill="rgb(11,121,75)"/><path d=" M 271.065 1401.077 Q 267.615 1439.821 267.615 1461.536 Q 267.615 1483.27 271.071 1522.062 L 166.293 1461.568 L 271.065 1401.077 Z " fill="rgb(43,181,115)"/><path d=" M 161.788 1332.741 Q 193.63 1355.111 212.441 1365.972 Q 231.259 1376.837 266.569 1393.234 L 161.788 1453.729 L 161.788 1332.741 Z " fill="rgb(11,121,75)"/><path d=" M 117.103 1433.168 Q 128.871 1427.621 135.483 1423.803 Q 142.083 1419.992 152.747 1412.593 L 152.747 1453.748 L 117.103 1433.168 Z  M 112.619 1482.117 Q 113.698 1469.165 113.698 1461.536 Q 113.698 1453.927 112.625 1441.022 L 148.211 1461.568 L 112.619 1482.117 Z  M 152.747 1510.48 Q 142.083 1503.08 135.483 1499.269 Q 128.888 1495.462 117.163 1489.933 L 152.747 1469.388 L 152.747 1510.48 Z  M 197.355 1489.941 Q 185.643 1495.464 179.053 1499.269 Q 172.452 1503.08 161.788 1510.48 L 161.788 1469.406 L 197.355 1489.941 Z  M 201.912 1441.003 Q 200.838 1453.921 200.838 1461.536 Q 200.838 1469.171 201.918 1482.136 L 166.293 1461.568 L 201.912 1441.003 Z  M 161.788 1412.593 Q 172.452 1419.992 179.053 1423.803 Q 185.66 1427.618 197.415 1433.16 L 161.788 1453.729 L 161.788 1412.593 Z " fill-rule="evenodd" fill="rgb(69,70,71)"/></g><g id="Group"><path d=" M 47.949 1695.242 Q 83.272 1678.839 102.094 1667.972 Q 120.906 1657.111 152.747 1634.741 L 152.747 1755.748 L 47.949 1695.242 Z " fill="rgb(255,255,255)"/><path d=" M 43.466 1824.043 Q 46.92 1785.265 46.92 1763.536 Q 46.92 1741.826 43.472 1703.096 L 148.211 1763.568 L 43.466 1824.043 Z " fill="rgb(255,255,255)"/><path d=" M 152.747 1892.331 Q 120.906 1869.961 102.094 1859.1 Q 83.288 1848.242 48.01 1831.858 L 152.747 1771.388 L 152.747 1892.331 Z " fill="rgb(255,255,255)"/><path d=" M 266.508 1831.866 Q 231.243 1848.245 212.441 1859.1 Q 193.63 1869.961 161.788 1892.331 L 161.788 1771.406 L 266.508 1831.866 Z " fill="rgb(255,255,255)"/><path d=" M 271.065 1703.077 Q 267.615 1741.821 267.615 1763.536 Q 267.615 1785.27 271.071 1824.062 L 166.293 1763.568 L 271.065 1703.077 Z " fill="rgb(255,255,255)"/><path d=" M 161.788 1634.741 Q 193.63 1657.111 212.441 1667.972 Q 231.259 1678.837 266.569 1695.234 L 161.788 1755.729 L 161.788 1634.741 Z " fill="rgb(255,255,255)"/><path d=" M 117.103 1735.168 Q 128.871 1729.621 135.483 1725.803 Q 142.083 1721.992 152.747 1714.593 L 152.747 1755.748 L 117.103 1735.168 Z  M 112.619 1784.117 Q 113.698 1771.165 113.698 1763.536 Q 113.698 1755.927 112.625 1743.022 L 148.211 1763.568 L 112.619 1784.117 Z  M 152.747 1812.48 Q 142.083 1805.08 135.483 1801.269 Q 128.888 1797.462 117.163 1791.933 L 152.747 1771.388 L 152.747 1812.48 Z  M 197.355 1791.941 Q 185.643 1797.464 179.053 1801.269 Q 172.452 1805.08 161.788 1812.48 L 161.788 1771.406 L 197.355 1791.941 Z  M 201.912 1743.003 Q 200.838 1755.921 200.838 1763.536 Q 200.838 1771.171 201.918 1784.136 L 166.293 1763.568 L 201.912 1743.003 Z  M 161.788 1714.593 Q 172.452 1721.992 179.053 1725.803 Q 185.66 1729.618 197.415 1735.16 L 161.788 1755.729 L 161.788 1714.593 Z " fill-rule="evenodd" fill="rgb(69,70,71)"/></g><path d=" M 115.157 272.753 L 9.89 211.977 L 115.157 151.202 L 115.157 272.753 Z " fill="rgb(43,181,115)"/><path d=" M 152.243 962.753 L 46.976 901.977 L 152.243 841.202 L 152.243 962.753 Z " fill="rgb(43,181,115)"/><path d=" M 152.243 1267.666 L 46.976 1206.89 L 152.243 1146.114 L 152.243 1267.666 Z " fill="rgb(255,255,255)"/><path d=" M 124.221 272.731 L 229.448 211.977 L 124.221 151.224 L 124.221 272.731 Z " fill="rgb(11,121,75)"/><path d=" M 161.307 962.731 L 266.535 901.977 L 161.307 841.224 L 161.307 962.731 Z " fill="rgb(11,121,75)"/><path d=" M 161.307 1267.644 L 266.535 1206.89 L 161.307 1146.137 L 161.307 1267.644 Z " fill="rgb(255,255,255)"/><path d=" M 233.984 204.157 L 233.984 82.614 L 128.725 143.386 L 233.984 204.157 Z " fill="rgb(43,181,115)"/><path d=" M 271.071 894.157 L 271.071 772.614 L 165.812 833.386 L 271.071 894.157 Z " fill="rgb(43,181,115)"/><path d=" M 271.071 1199.07 L 271.071 1077.527 L 165.812 1138.299 L 271.071 1199.07 Z " fill="rgb(255,255,255)"/><path d=" M 229.448 74.776 L 124.189 14 L 124.197 135.543 L 229.448 74.776 Z " fill="rgb(11,121,75)"/><path d=" M 266.535 764.776 L 161.276 704 L 161.284 825.543 L 266.535 764.776 Z " fill="rgb(11,121,75)"/><path d=" M 266.535 1069.689 L 161.276 1008.913 L 161.284 1130.456 L 266.535 1069.689 Z " fill="rgb(255,255,255)"/><path d=" M 9.882 74.78 L 115.157 14 L 115.157 135.561 L 9.882 74.78 Z " fill="rgb(43,181,115)"/><path d=" M 46.969 764.78 L 152.243 704 L 152.243 825.561 L 46.969 764.78 Z " fill="rgb(43,181,115)"/><path d=" M 46.969 1069.693 L 152.243 1008.913 L 152.243 1130.474 L 46.969 1069.693 Z " fill="rgb(255,255,255)"/><path d=" M 5.377 204.144 L 5.377 82.619 L 110.621 143.381 L 5.377 204.144 Z " fill="rgb(11,121,75)"/><path d=" M 42.464 894.144 L 42.464 772.619 L 147.707 833.381 L 42.464 894.144 Z " fill="rgb(11,121,75)"/><path d=" M 42.464 1199.057 L 42.464 1077.532 L 147.707 1138.294 L 42.464 1199.057 Z " fill="rgb(255,255,255)"/><path d=" M 74.671 164.155 L 74.671 122.617 L 110.644 143.386 L 74.671 164.155 Z " fill="rgb(69,70,71)"/><path d=" M 111.758 854.155 L 111.758 812.617 L 147.731 833.386 L 111.758 854.155 Z " fill="rgb(69,70,71)"/><path d=" M 111.758 1159.068 L 111.758 1117.53 L 147.731 1138.299 L 111.758 1159.068 Z " fill="rgb(69,70,71)"/><path d=" M 115.18 192.753 L 79.199 171.98 L 115.18 151.206 L 115.18 192.753 Z " fill="rgb(69,70,71)"/><path d=" M 152.267 882.753 L 116.286 861.98 L 152.267 841.206 L 152.267 882.753 Z " fill="rgb(69,70,71)"/><path d=" M 152.267 1187.666 L 116.286 1166.893 L 152.267 1146.119 L 152.267 1187.666 Z " fill="rgb(69,70,71)"/><path d=" M 124.221 192.748 L 160.181 171.986 L 124.221 151.224 L 124.221 192.748 Z " fill="rgb(69,70,71)"/><path d=" M 161.307 882.748 L 197.268 861.986 L 161.307 841.224 L 161.307 882.748 Z " fill="rgb(69,70,71)"/><path d=" M 161.307 1187.661 L 197.268 1166.899 L 161.307 1146.137 L 161.307 1187.661 Z " fill="rgb(69,70,71)"/><path d=" M 164.698 164.155 L 164.698 122.617 L 128.725 143.386 L 164.698 164.155 Z " fill="rgb(69,70,71)"/><path d=" M 201.785 854.155 L 201.785 812.617 L 165.812 833.386 L 201.785 854.155 Z " fill="rgb(69,70,71)"/><path d=" M 201.785 1159.068 L 201.785 1117.53 L 165.812 1138.299 L 201.785 1159.068 Z " fill="rgb(69,70,71)"/><path d=" M 160.186 114.783 L 124.221 94.018 L 124.221 135.547 L 160.186 114.783 Z " fill="rgb(69,70,71)"/><path d=" M 197.273 804.783 L 161.307 784.018 L 161.307 825.547 L 197.273 804.783 Z " fill="rgb(69,70,71)"/><path d=" M 197.273 1109.696 L 161.307 1088.931 L 161.307 1130.46 L 197.273 1109.696 Z " fill="rgb(69,70,71)"/><path d=" M 79.204 114.77 L 115.183 93.997 L 115.183 135.543 L 79.204 114.77 Z " fill="rgb(69,70,71)"/><path d=" M 116.29 804.77 L 152.27 783.997 L 152.27 825.543 L 116.29 804.77 Z " fill="rgb(69,70,71)"/><path d=" M 116.29 1109.683 L 152.27 1088.91 L 152.27 1130.456 L 116.29 1109.683 Z " fill="rgb(69,70,71)"/><defs><clipPath id="_clipPath_OSMyTOMuXA6UHjfhiW3FHn0cmG4FeIiy"><rect width="1166.77" height="258.753"/></clipPath></defs><g clip-path="url(#_clipPath_OSMyTOMuXA6UHjfhiW3FHn0cmG4FeIiy)"><path d=" M 279.903 133.394 L 316.228 133.394 C 329.619 133.394 342.174 137.747 342.174 153.314 C 342.174 166.371 333.469 174.741 319.743 174.741 L 279.903 174.741 L 279.903 133.394 Z  M 264 188.133 L 321.752 188.133 C 345.522 188.133 358.077 171.393 358.077 153.817 C 358.077 139.086 350.042 128.038 335.311 125.024 L 335.311 124.69 C 346.359 120.17 353.055 110.628 353.055 97.906 C 353.055 86.188 346.861 77.651 338.994 72.964 C 331.796 68.612 317.902 68.612 307.356 68.612 L 264 68.612 L 264 188.133 Z  M 279.903 82.003 L 311.708 82.003 C 325.434 82.003 337.152 84.347 337.152 100.919 C 337.152 113.474 329.787 120.002 311.708 120.002 L 279.903 120.002 L 279.903 82.003 Z  M 377.16 188.133 L 391.389 188.133 L 391.389 101.589 L 377.16 101.589 L 377.16 188.133 Z  M 391.389 68.612 L 377.16 68.612 L 377.16 86.021 L 391.389 86.021 L 391.389 68.612 Z  M 408.798 144.945 C 408.798 170.221 423.362 190.142 450.815 190.142 C 478.268 190.142 492.831 170.221 492.831 144.945 C 492.831 119.5 478.268 99.58 450.815 99.58 C 423.362 99.58 408.798 119.5 408.798 144.945 Z  M 423.864 144.945 C 423.864 123.853 435.916 112.135 450.815 112.135 C 465.713 112.135 477.765 123.853 477.765 144.945 C 477.765 165.869 465.713 177.587 450.815 177.587 C 435.916 177.587 423.864 165.869 423.864 144.945 Z  M 504.047 160.847 C 504.884 182.274 521.289 190.142 540.707 190.142 C 558.283 190.142 577.534 183.446 577.534 162.856 C 577.534 146.116 563.473 141.429 549.244 138.249 C 536.019 135.068 520.954 133.394 520.954 123.183 C 520.954 114.478 530.83 112.135 539.367 112.135 C 548.742 112.135 558.451 115.65 559.455 126.698 L 573.684 126.698 C 572.512 105.606 557.279 99.58 538.196 99.58 C 523.13 99.58 505.888 106.778 505.888 124.187 C 505.888 140.76 520.117 145.447 534.178 148.627 C 548.407 151.808 562.468 153.649 562.468 164.697 C 562.468 175.578 550.416 177.587 541.544 177.587 C 529.826 177.587 518.778 173.569 518.275 160.847 L 504.047 160.847 Z  M 666.756 129.377 C 664.748 108.787 649.012 99.58 629.427 99.58 C 601.974 99.58 588.582 120.002 588.582 145.949 C 588.582 171.728 602.643 190.142 629.092 190.142 C 650.854 190.142 664.078 177.587 667.258 156.495 L 652.695 156.495 C 650.854 169.552 642.651 177.587 628.925 177.587 C 610.846 177.587 603.648 161.852 603.648 145.949 C 603.648 128.372 610.009 112.135 630.599 112.135 C 642.316 112.135 649.849 118.496 652.025 129.377 L 666.756 129.377 Z  M 683.161 188.133 L 697.39 188.133 L 697.39 139.253 C 697.39 123.685 705.76 112.135 723.002 112.135 C 733.882 112.135 740.578 118.998 740.578 129.544 L 740.578 188.133 L 754.807 188.133 L 754.807 131.218 C 754.807 112.637 747.776 99.58 725.01 99.58 C 714.632 99.58 702.412 103.932 697.725 114.311 L 697.39 114.311 L 697.39 68.612 L 683.161 68.612 L 683.161 188.133 Z  M 835.994 160.68 C 833.483 171.895 825.281 177.587 813.563 177.587 C 794.647 177.587 786.11 164.195 786.612 149.129 L 851.395 149.129 C 852.232 128.205 842.858 99.58 812.224 99.58 C 788.621 99.58 771.547 118.663 771.547 144.61 C 772.384 171.058 785.441 190.142 813.061 190.142 C 832.479 190.142 846.206 179.763 850.056 160.68 L 835.994 160.68 Z  M 786.612 136.575 C 787.617 123.35 796.489 112.135 811.387 112.135 C 825.448 112.135 835.66 123.016 836.329 136.575 L 786.612 136.575 Z  M 866.126 188.133 L 880.354 188.133 L 880.354 134.231 C 880.354 127.703 886.548 112.135 903.455 112.135 C 916.177 112.135 919.693 120.17 919.693 131.385 L 919.693 188.133 L 933.921 188.133 L 933.921 134.231 C 933.921 120.839 942.793 112.135 956.52 112.135 C 970.414 112.135 973.26 120.672 973.26 131.385 L 973.26 188.133 L 987.488 188.133 L 987.488 124.69 C 987.488 106.778 975.938 99.58 958.696 99.58 C 947.648 99.58 937.437 105.104 931.578 114.311 C 928.063 103.765 918.354 99.58 907.808 99.58 C 895.922 99.58 886.213 104.602 879.852 114.311 L 879.517 114.311 L 879.517 101.589 L 866.126 101.589 L 866.126 188.133 Z  M 1062.482 158.002 C 1062.482 165.869 1054.782 177.587 1036.033 177.587 C 1027.329 177.587 1019.294 174.239 1019.294 164.865 C 1019.294 154.319 1027.329 150.971 1036.703 149.297 C 1046.245 147.623 1056.958 147.456 1062.482 143.438 L 1062.482 158.002 Z  M 1085.583 176.75 C 1083.741 177.42 1082.402 177.587 1081.231 177.587 C 1076.711 177.587 1076.711 174.574 1076.711 167.878 L 1076.711 123.35 C 1076.711 103.095 1059.804 99.58 1044.236 99.58 C 1024.985 99.58 1008.413 107.113 1007.576 128.54 L 1021.805 128.54 C 1022.474 115.818 1031.346 112.135 1043.399 112.135 C 1052.438 112.135 1062.649 114.144 1062.649 126.531 C 1062.649 137.244 1049.258 136.24 1033.522 139.253 C 1018.792 142.099 1004.228 146.284 1004.228 165.869 C 1004.228 183.111 1017.118 190.142 1032.853 190.142 C 1044.905 190.142 1055.451 185.957 1063.319 176.75 C 1063.319 186.124 1068.006 190.142 1075.372 190.142 C 1079.891 190.142 1083.072 189.305 1085.583 187.798 L 1085.583 176.75 Z  M 1093.283 160.847 C 1094.12 182.274 1110.525 190.142 1129.943 190.142 C 1147.52 190.142 1166.77 183.446 1166.77 162.856 C 1166.77 146.116 1152.709 141.429 1138.48 138.249 C 1125.256 135.068 1110.19 133.394 1110.19 123.183 C 1110.19 114.478 1120.067 112.135 1128.604 112.135 C 1137.978 112.135 1147.687 115.65 1148.691 126.698 L 1162.92 126.698 C 1161.748 105.606 1146.515 99.58 1127.432 99.58 C 1112.366 99.58 1095.124 106.778 1095.124 124.187 C 1095.124 140.76 1109.353 145.447 1123.414 148.627 C 1137.643 151.808 1151.704 153.649 1151.704 164.697 C 1151.704 175.578 1139.652 177.587 1130.78 177.587 C 1119.062 177.587 1108.014 173.569 1107.512 160.847 L 1093.283 160.847 Z " fill-rule="evenodd" fill="rgb(69,70,71)"/><g id="Group"><path d=" M 109.779 258.753 L 4.512 197.977 L 109.779 137.202 L 109.779 258.753 Z " fill="rgb(43,181,115)"/><path d=" M 118.843 258.731 L 224.071 197.977 L 118.843 137.224 L 118.843 258.731 Z " fill="rgb(11,121,75)"/><path d=" M 228.607 190.157 L 228.607 68.614 L 123.348 129.386 L 228.607 190.157 Z " fill="rgb(43,181,115)"/><path d=" M 224.071 60.776 L 118.82 0.009 L 118.82 121.543 L 224.071 60.776 Z " fill="rgb(11,121,75)"/><path d=" M 4.505 60.78 L 109.779 0 L 109.779 121.561 L 4.505 60.78 Z " fill="rgb(43,181,115)"/><path d=" M 0 190.144 L 0 68.619 L 105.244 129.381 L 0 190.144 Z " fill="rgb(11,121,75)"/><path d=" M 69.294 150.155 L 69.294 108.617 L 105.267 129.386 L 69.294 150.155 Z " fill="rgb(69,70,71)"/><path d=" M 109.803 178.753 L 73.822 157.98 L 109.803 137.206 L 109.803 178.753 Z " fill="rgb(69,70,71)"/><path d=" M 118.843 178.748 L 154.804 157.986 L 118.843 137.224 L 118.843 178.748 Z " fill="rgb(69,70,71)"/><path d=" M 159.321 150.155 L 159.321 108.617 L 123.348 129.386 L 159.321 150.155 Z " fill="rgb(69,70,71)"/><path d=" M 154.809 100.783 L 118.843 80.018 L 118.843 121.547 L 154.809 100.783 Z " fill="rgb(69,70,71)"/><path d=" M 73.827 100.77 L 109.806 79.997 L 109.806 121.543 L 73.827 100.77 Z " fill="rgb(69,70,71)"/></g></g><defs><clipPath id="_clipPath_bL0js5DwJjwl9K58fMGrzH5tOaMDL1TD"><rect width="1331.265" height="304"/></clipPath></defs><g clip-path="url(#_clipPath_bL0js5DwJjwl9K58fMGrzH5tOaMDL1TD)"><path d=" M 347.193 155.554 L 383.518 155.554 C 396.91 155.554 409.464 159.906 409.464 175.474 C 409.464 188.531 400.76 196.901 387.033 196.901 L 347.193 196.901 L 347.193 155.554 Z  M 331.29 210.293 L 389.042 210.293 C 412.812 210.293 425.367 193.553 425.367 175.976 C 425.367 161.245 417.332 150.197 402.601 147.184 L 402.601 146.849 C 413.649 142.329 420.345 132.788 420.345 120.066 C 420.345 108.348 414.151 99.811 406.284 95.124 C 399.086 90.771 385.192 90.771 374.646 90.771 L 331.29 90.771 L 331.29 210.293 Z  M 347.193 104.163 L 378.998 104.163 C 392.725 104.163 404.442 106.507 404.442 123.079 C 404.442 135.634 397.077 142.162 378.998 142.162 L 347.193 142.162 L 347.193 104.163 Z  M 444.45 210.293 L 458.679 210.293 L 458.679 123.748 L 444.45 123.748 L 444.45 210.293 Z  M 458.679 90.771 L 444.45 90.771 L 444.45 108.181 L 458.679 108.181 L 458.679 90.771 Z  M 476.088 167.104 C 476.088 192.381 490.652 212.301 518.105 212.301 C 545.558 212.301 560.121 192.381 560.121 167.104 C 560.121 141.66 545.558 121.74 518.105 121.74 C 490.652 121.74 476.088 141.66 476.088 167.104 Z  M 491.154 167.104 C 491.154 146.012 503.206 134.294 518.105 134.294 C 533.003 134.294 545.056 146.012 545.056 167.104 C 545.056 188.029 533.003 199.747 518.105 199.747 C 503.206 199.747 491.154 188.029 491.154 167.104 Z  M 571.337 183.007 C 572.174 204.434 588.579 212.301 607.997 212.301 C 625.573 212.301 644.824 205.605 644.824 185.016 C 644.824 168.276 630.763 163.589 616.534 160.408 C 603.31 157.228 588.244 155.554 588.244 145.343 C 588.244 136.638 598.12 134.294 606.658 134.294 C 616.032 134.294 625.741 137.81 626.745 148.858 L 640.974 148.858 C 639.802 127.766 624.569 121.74 605.486 121.74 C 590.42 121.74 573.178 128.938 573.178 146.347 C 573.178 162.919 587.407 167.606 601.468 170.787 C 615.697 173.967 629.758 175.809 629.758 186.857 C 629.758 197.738 617.706 199.747 608.834 199.747 C 597.116 199.747 586.068 195.729 585.566 183.007 L 571.337 183.007 Z  M 734.047 151.536 C 732.038 130.946 716.302 121.74 696.717 121.74 C 669.264 121.74 655.872 142.162 655.872 168.109 C 655.872 193.888 669.934 212.301 696.382 212.301 C 718.144 212.301 731.368 199.747 734.549 178.655 L 719.985 178.655 C 718.144 191.711 709.941 199.747 696.215 199.747 C 678.136 199.747 670.938 184.011 670.938 168.109 C 670.938 150.532 677.299 134.294 697.889 134.294 C 709.607 134.294 717.139 140.655 719.316 151.536 L 734.047 151.536 Z  M 750.451 210.293 L 764.68 210.293 L 764.68 161.413 C 764.68 145.845 773.05 134.294 790.292 134.294 C 801.173 134.294 807.868 141.158 807.868 151.704 L 807.868 210.293 L 822.097 210.293 L 822.097 153.378 C 822.097 134.797 815.066 121.74 792.301 121.74 C 781.922 121.74 769.702 126.092 765.015 136.471 L 764.68 136.471 L 764.68 90.771 L 750.451 90.771 L 750.451 210.293 Z  M 903.285 182.839 C 900.774 194.055 892.571 199.747 880.853 199.747 C 861.938 199.747 853.4 186.355 853.903 171.289 L 918.685 171.289 C 919.522 150.365 910.148 121.74 879.514 121.74 C 855.911 121.74 838.837 140.823 838.837 166.769 C 839.674 193.218 852.731 212.301 880.351 212.301 C 899.769 212.301 913.496 201.923 917.346 182.839 L 903.285 182.839 Z  M 853.903 158.734 C 854.907 145.51 863.779 134.294 878.677 134.294 C 892.739 134.294 902.95 145.175 903.619 158.734 L 853.903 158.734 Z  M 933.416 210.293 L 947.645 210.293 L 947.645 156.391 C 947.645 149.862 953.838 134.294 970.745 134.294 C 983.468 134.294 986.983 142.329 986.983 153.545 L 986.983 210.293 L 1001.212 210.293 L 1001.212 156.391 C 1001.212 142.999 1010.084 134.294 1023.81 134.294 C 1037.704 134.294 1040.55 142.832 1040.55 153.545 L 1040.55 210.293 L 1054.779 210.293 L 1054.779 146.849 C 1054.779 128.938 1043.228 121.74 1025.986 121.74 C 1014.938 121.74 1004.727 127.264 998.868 136.471 C 995.353 125.925 985.644 121.74 975.098 121.74 C 963.213 121.74 953.504 126.762 947.143 136.471 L 946.808 136.471 L 946.808 123.748 L 933.416 123.748 L 933.416 210.293 Z  M 1129.772 180.161 C 1129.772 188.029 1122.072 199.747 1103.324 199.747 C 1094.619 199.747 1086.584 196.399 1086.584 187.024 C 1086.584 176.478 1094.619 173.13 1103.993 171.456 C 1113.535 169.783 1124.248 169.615 1129.772 165.598 L 1129.772 180.161 Z  M 1152.873 198.91 C 1151.032 199.579 1149.692 199.747 1148.521 199.747 C 1144.001 199.747 1144.001 196.733 1144.001 190.038 L 1144.001 145.51 C 1144.001 125.255 1127.094 121.74 1111.526 121.74 C 1092.275 121.74 1075.703 129.273 1074.866 150.699 L 1089.095 150.699 C 1089.765 137.977 1098.637 134.294 1110.689 134.294 C 1119.729 134.294 1129.94 136.303 1129.94 148.691 C 1129.94 159.404 1116.548 158.4 1100.813 161.413 C 1086.082 164.258 1071.518 168.443 1071.518 188.029 C 1071.518 205.271 1084.408 212.301 1100.143 212.301 C 1112.196 212.301 1122.742 208.116 1130.609 198.91 C 1130.609 208.284 1135.296 212.301 1142.662 212.301 C 1147.182 212.301 1150.362 211.464 1152.873 209.958 L 1152.873 198.91 Z  M 1160.573 183.007 C 1161.41 204.434 1177.815 212.301 1197.233 212.301 C 1214.81 212.301 1234.06 205.605 1234.06 185.016 C 1234.06 168.276 1219.999 163.589 1205.77 160.408 C 1192.546 157.228 1177.48 155.554 1177.48 145.343 C 1177.48 136.638 1187.357 134.294 1195.894 134.294 C 1205.268 134.294 1214.977 137.81 1215.982 148.858 L 1230.21 148.858 C 1229.039 127.766 1213.805 121.74 1194.722 121.74 C 1179.657 121.74 1162.415 128.938 1162.415 146.347 C 1162.415 162.919 1176.643 167.606 1190.705 170.787 C 1204.933 173.967 1218.995 175.809 1218.995 186.857 C 1218.995 197.738 1206.942 199.747 1198.07 199.747 C 1186.352 199.747 1175.304 195.729 1174.802 183.007 L 1160.573 183.007 Z " fill-rule="evenodd" fill="rgb(255,255,255)"/><path d=" M 181.291 280.913 L 76.024 220.137 L 181.291 159.361 L 181.291 280.913 Z " fill="rgb(255,255,255)"/><path d=" M 190.355 280.89 L 295.583 220.137 L 190.355 159.384 L 190.355 280.89 Z " fill="rgb(255,255,255)"/><path d=" M 300.118 212.317 L 300.118 90.774 L 194.859 151.545 L 300.118 212.317 Z " fill="rgb(255,255,255)"/><path d=" M 295.583 82.936 L 190.323 22.16 L 190.331 143.702 L 295.583 82.936 Z " fill="rgb(255,255,255)"/><path d=" M 76.016 82.94 L 181.291 22.16 L 181.291 143.72 L 76.016 82.94 Z " fill="rgb(255,255,255)"/><path d=" M 71.511 212.303 L 71.511 90.778 L 176.755 151.541 L 71.511 212.303 Z " fill="rgb(255,255,255)"/><path d=" M 140.805 172.314 L 140.805 130.776 L 176.778 151.545 L 140.805 172.314 Z " fill="rgb(69,70,71)"/><path d=" M 181.314 200.913 L 145.333 180.139 L 181.314 159.366 L 181.314 200.913 Z " fill="rgb(69,70,71)"/><path d=" M 190.355 200.908 L 226.316 180.146 L 190.355 159.384 L 190.355 200.908 Z " fill="rgb(69,70,71)"/><path d=" M 230.832 172.314 L 230.832 130.776 L 194.859 151.545 L 230.832 172.314 Z " fill="rgb(69,70,71)"/><path d=" M 226.32 122.942 L 190.355 102.178 L 190.355 143.707 L 226.32 122.942 Z " fill="rgb(69,70,71)"/><path d=" M 145.338 122.93 L 181.317 102.157 L 181.317 143.702 L 145.338 122.93 Z " fill="rgb(69,70,71)"/></g><defs><clipPath id="_clipPath_cldwWse06jCPXI2lGpTCIZhUSpX7QIC6"><rect width="228.607" height="258.753"/></clipPath></defs><g clip-path="url(#_clipPath_cldwWse06jCPXI2lGpTCIZhUSpX7QIC6)"><g id="Group"><path d=" M 109.779 258.753 L 4.512 197.977 L 109.779 137.202 L 109.779 258.753 Z " fill="rgb(43,181,115)"/><path d=" M 118.843 258.731 L 224.071 197.977 L 118.843 137.224 L 118.843 258.731 Z " fill="rgb(11,121,75)"/><path d=" M 228.607 190.157 L 228.607 68.614 L 123.348 129.386 L 228.607 190.157 Z " fill="rgb(43,181,115)"/><path d=" M 224.071 60.776 L 118.82 0.009 L 118.82 121.543 L 224.071 60.776 Z " fill="rgb(11,121,75)"/><path d=" M 4.505 60.78 L 109.779 0 L 109.779 121.561 L 4.505 60.78 Z " fill="rgb(43,181,115)"/><path d=" M 0 190.144 L 0 68.619 L 105.244 129.381 L 0 190.144 Z " fill="rgb(11,121,75)"/><path d=" M 69.294 150.155 L 69.294 108.617 L 105.267 129.386 L 69.294 150.155 Z " fill="rgb(69,70,71)"/><path d=" M 109.803 178.753 L 73.822 157.98 L 109.803 137.206 L 109.803 178.753 Z " fill="rgb(69,70,71)"/><path d=" M 118.843 178.748 L 154.804 157.986 L 118.843 137.224 L 118.843 178.748 Z " fill="rgb(69,70,71)"/><path d=" M 159.321 150.155 L 159.321 108.617 L 123.348 129.386 L 159.321 150.155 Z " fill="rgb(69,70,71)"/><path d=" M 154.809 100.783 L 118.843 80.018 L 118.843 121.547 L 154.809 100.783 Z " fill="rgb(69,70,71)"/><path d=" M 73.827 100.77 L 109.806 79.997 L 109.806 121.543 L 73.827 100.77 Z " fill="rgb(69,70,71)"/></g></g><defs><clipPath id="_clipPath_T036n3XQnTyG4T73Kft727fAGQMSwIl5"><rect width="228.607" height="258.753"/></clipPath></defs><g clip-path="url(#_clipPath_T036n3XQnTyG4T73Kft727fAGQMSwIl5)"><path d=" M 109.779 258.753 L 4.512 197.977 L 109.779 137.202 L 109.779 258.753 Z " fill="rgb(255,255,255)"/><path d=" M 118.843 258.731 L 224.071 197.977 L 118.843 137.224 L 118.843 258.731 Z " fill="rgb(255,255,255)"/><path d=" M 228.607 190.157 L 228.607 68.614 L 123.348 129.386 L 228.607 190.157 Z " fill="rgb(255,255,255)"/><path d=" M 224.071 60.776 L 118.812 0 L 118.82 121.543 L 224.071 60.776 Z " fill="rgb(255,255,255)"/><path d=" M 4.505 60.78 L 109.779 0 L 109.779 121.561 L 4.505 60.78 Z " fill="rgb(255,255,255)"/><path d=" M 0 190.144 L 0 68.619 L 105.244 129.381 L 0 190.144 Z " fill="rgb(255,255,255)"/><path d=" M 69.294 150.155 L 69.294 108.617 L 105.267 129.386 L 69.294 150.155 Z " fill="rgb(69,70,71)"/><path d=" M 109.803 178.753 L 73.822 157.98 L 109.803 137.206 L 109.803 178.753 Z " fill="rgb(69,70,71)"/><path d=" M 118.843 178.748 L 154.804 157.986 L 118.843 137.224 L 118.843 178.748 Z " fill="rgb(69,70,71)"/><path d=" M 159.321 150.155 L 159.321 108.617 L 123.348 129.386 L 159.321 150.155 Z " fill="rgb(69,70,71)"/><path d=" M 154.809 100.783 L 118.843 80.018 L 118.843 121.547 L 154.809 100.783 Z " fill="rgb(69,70,71)"/><path d=" M 73.827 100.77 L 109.806 79.997 L 109.806 121.543 L 73.827 100.77 Z " fill="rgb(69,70,71)"/></g><g id="Group"><path d=" M 318.146 1465.554 L 354.471 1465.554 C 367.862 1465.554 380.417 1469.906 380.417 1485.474 C 380.417 1498.531 371.712 1506.901 357.986 1506.901 L 318.146 1506.901 L 318.146 1465.554 Z  M 302.243 1520.293 L 359.995 1520.293 C 383.765 1520.293 396.32 1503.553 396.32 1485.976 C 396.32 1471.245 388.285 1460.197 373.554 1457.184 L 373.554 1456.849 C 384.602 1452.329 391.298 1442.788 391.298 1430.066 C 391.298 1418.348 385.104 1409.811 377.237 1405.124 C 370.038 1400.771 356.145 1400.771 345.599 1400.771 L 302.243 1400.771 L 302.243 1520.293 Z  M 318.146 1414.163 L 349.951 1414.163 C 363.677 1414.163 375.395 1416.507 375.395 1433.079 C 375.395 1445.634 368.03 1452.162 349.951 1452.162 L 318.146 1452.162 L 318.146 1414.163 Z  M 415.403 1520.293 L 429.632 1520.293 L 429.632 1433.748 L 415.403 1433.748 L 415.403 1520.293 Z  M 429.632 1400.771 L 415.403 1400.771 L 415.403 1418.181 L 429.632 1418.181 L 429.632 1400.771 Z  M 447.041 1477.104 C 447.041 1502.381 461.604 1522.301 489.058 1522.301 C 516.511 1522.301 531.074 1502.381 531.074 1477.104 C 531.074 1451.66 516.511 1431.74 489.058 1431.74 C 461.604 1431.74 447.041 1451.66 447.041 1477.104 Z  M 462.107 1477.104 C 462.107 1456.012 474.159 1444.294 489.058 1444.294 C 503.956 1444.294 516.008 1456.012 516.008 1477.104 C 516.008 1498.029 503.956 1509.747 489.058 1509.747 C 474.159 1509.747 462.107 1498.029 462.107 1477.104 Z  M 542.29 1493.007 C 543.127 1514.434 559.532 1522.301 578.95 1522.301 C 596.526 1522.301 615.777 1515.605 615.777 1495.016 C 615.777 1478.276 601.716 1473.589 587.487 1470.408 C 574.262 1467.228 559.197 1465.554 559.197 1455.343 C 559.197 1446.638 569.073 1444.294 577.61 1444.294 C 586.985 1444.294 596.694 1447.81 597.698 1458.858 L 611.927 1458.858 C 610.755 1437.766 595.522 1431.74 576.439 1431.74 C 561.373 1431.74 544.131 1438.938 544.131 1456.347 C 544.131 1472.919 558.36 1477.606 572.421 1480.787 C 586.65 1483.967 600.711 1485.809 600.711 1496.857 C 600.711 1507.738 588.659 1509.747 579.787 1509.747 C 568.069 1509.747 557.021 1505.729 556.518 1493.007 L 542.29 1493.007 Z  M 704.999 1461.536 C 702.991 1440.946 687.255 1431.74 667.67 1431.74 C 640.217 1431.74 626.825 1452.162 626.825 1478.109 C 626.825 1503.888 640.886 1522.301 667.335 1522.301 C 689.097 1522.301 702.321 1509.747 705.501 1488.655 L 690.938 1488.655 C 689.097 1501.711 680.894 1509.747 667.168 1509.747 C 649.089 1509.747 641.891 1494.011 641.891 1478.109 C 641.891 1460.532 648.252 1444.294 668.842 1444.294 C 680.559 1444.294 688.092 1450.655 690.268 1461.536 L 704.999 1461.536 Z  M 721.404 1520.293 L 735.633 1520.293 L 735.633 1471.413 C 735.633 1455.845 744.003 1444.294 761.245 1444.294 C 772.125 1444.294 778.821 1451.158 778.821 1461.704 L 778.821 1520.293 L 793.05 1520.293 L 793.05 1463.378 C 793.05 1444.797 786.019 1431.74 763.253 1431.74 C 752.875 1431.74 740.655 1436.092 735.968 1446.471 L 735.633 1446.471 L 735.633 1400.771 L 721.404 1400.771 L 721.404 1520.293 Z  M 874.237 1492.839 C 871.726 1504.055 863.524 1509.747 851.806 1509.747 C 832.89 1509.747 824.353 1496.355 824.855 1481.289 L 889.638 1481.289 C 890.475 1460.365 881.101 1431.74 850.467 1431.74 C 826.864 1431.74 809.79 1450.823 809.79 1476.769 C 810.627 1503.218 823.683 1522.301 851.304 1522.301 C 870.722 1522.301 884.448 1511.923 888.299 1492.839 L 874.237 1492.839 Z  M 824.855 1468.734 C 825.86 1455.51 834.732 1444.294 849.63 1444.294 C 863.691 1444.294 873.902 1455.175 874.572 1468.734 L 824.855 1468.734 Z  M 904.369 1520.293 L 918.597 1520.293 L 918.597 1466.391 C 918.597 1459.862 924.791 1444.294 941.698 1444.294 C 954.42 1444.294 957.936 1452.329 957.936 1463.545 L 957.936 1520.293 L 972.164 1520.293 L 972.164 1466.391 C 972.164 1452.999 981.036 1444.294 994.763 1444.294 C 1008.657 1444.294 1011.503 1452.832 1011.503 1463.545 L 1011.503 1520.293 L 1025.731 1520.293 L 1025.731 1456.849 C 1025.731 1438.938 1014.181 1431.74 996.939 1431.74 C 985.891 1431.74 975.68 1437.264 969.821 1446.471 C 966.306 1435.925 956.597 1431.74 946.051 1431.74 C 934.165 1431.74 924.456 1436.762 918.095 1446.471 L 917.76 1446.471 L 917.76 1433.748 L 904.369 1433.748 L 904.369 1520.293 Z  M 1100.725 1490.161 C 1100.725 1498.029 1093.025 1509.747 1074.276 1509.747 C 1065.572 1509.747 1057.537 1506.399 1057.537 1497.024 C 1057.537 1486.478 1065.572 1483.13 1074.946 1481.456 C 1084.488 1479.783 1095.201 1479.615 1100.725 1475.598 L 1100.725 1490.161 Z  M 1123.826 1508.91 C 1121.984 1509.579 1120.645 1509.747 1119.474 1509.747 C 1114.954 1509.747 1114.954 1506.733 1114.954 1500.038 L 1114.954 1455.51 C 1114.954 1435.255 1098.047 1431.74 1082.479 1431.74 C 1063.228 1431.74 1046.656 1439.273 1045.819 1460.699 L 1060.048 1460.699 C 1060.717 1447.977 1069.589 1444.294 1081.642 1444.294 C 1090.681 1444.294 1100.892 1446.303 1100.892 1458.691 C 1100.892 1469.404 1087.501 1468.4 1071.765 1471.413 C 1057.035 1474.258 1042.471 1478.443 1042.471 1498.029 C 1042.471 1515.271 1055.361 1522.301 1071.096 1522.301 C 1083.148 1522.301 1093.694 1518.116 1101.562 1508.91 C 1101.562 1518.284 1106.249 1522.301 1113.615 1522.301 C 1118.134 1522.301 1121.315 1521.464 1123.826 1519.958 L 1123.826 1508.91 Z  M 1131.526 1493.007 C 1132.363 1514.434 1148.768 1522.301 1168.186 1522.301 C 1185.763 1522.301 1205.013 1515.605 1205.013 1495.016 C 1205.013 1478.276 1190.952 1473.589 1176.723 1470.408 C 1163.499 1467.228 1148.433 1465.554 1148.433 1455.343 C 1148.433 1446.638 1158.309 1444.294 1166.847 1444.294 C 1176.221 1444.294 1185.93 1447.81 1186.934 1458.858 L 1201.163 1458.858 C 1199.991 1437.766 1184.758 1431.74 1165.675 1431.74 C 1150.609 1431.74 1133.367 1438.938 1133.367 1456.347 C 1133.367 1472.919 1147.596 1477.606 1161.657 1480.787 C 1175.886 1483.967 1189.947 1485.809 1189.947 1496.857 C 1189.947 1507.738 1177.895 1509.747 1169.023 1509.747 C 1157.305 1509.747 1146.257 1505.729 1145.755 1493.007 L 1131.526 1493.007 Z " fill-rule="evenodd" fill="rgb(69,70,71)"/><g id="Group"><path d=" M 47.949 1393.242 Q 83.272 1376.839 102.094 1365.972 Q 120.906 1355.111 152.747 1332.741 L 152.747 1453.748 L 47.949 1393.242 Z " fill="rgb(43,181,115)"/><path d=" M 43.466 1522.043 Q 46.92 1483.265 46.92 1461.536 Q 46.92 1439.826 43.472 1401.096 L 148.211 1461.568 L 43.466 1522.043 Z " fill="rgb(11,121,75)"/><path d=" M 152.747 1590.331 Q 120.906 1567.961 102.094 1557.1 Q 83.288 1546.242 48.01 1529.858 L 152.747 1469.388 L 152.747 1590.331 Z " fill="rgb(43,181,115)"/><path d=" M 266.508 1529.866 Q 231.243 1546.245 212.441 1557.1 Q 193.63 1567.961 161.788 1590.331 L 161.788 1469.406 L 266.508 1529.866 Z " fill="rgb(11,121,75)"/><path d=" M 271.065 1401.077 Q 267.615 1439.821 267.615 1461.536 Q 267.615 1483.27 271.071 1522.062 L 166.293 1461.568 L 271.065 1401.077 Z " fill="rgb(43,181,115)"/><path d=" M 161.788 1332.741 Q 193.63 1355.111 212.441 1365.972 Q 231.259 1376.837 266.569 1393.234 L 161.788 1453.729 L 161.788 1332.741 Z " fill="rgb(11,121,75)"/><path d=" M 117.103 1433.168 Q 128.871 1427.621 135.483 1423.803 Q 142.083 1419.992 152.747 1412.593 L 152.747 1453.748 L 117.103 1433.168 Z  M 112.619 1482.117 Q 113.698 1469.165 113.698 1461.536 Q 113.698 1453.927 112.625 1441.022 L 148.211 1461.568 L 112.619 1482.117 Z  M 152.747 1510.48 Q 142.083 1503.08 135.483 1499.269 Q 128.888 1495.462 117.163 1489.933 L 152.747 1469.388 L 152.747 1510.48 Z  M 197.355 1489.941 Q 185.643 1495.464 179.053 1499.269 Q 172.452 1503.08 161.788 1510.48 L 161.788 1469.406 L 197.355 1489.941 Z  M 201.912 1441.003 Q 200.838 1453.921 200.838 1461.536 Q 200.838 1469.171 201.918 1482.136 L 166.293 1461.568 L 201.912 1441.003 Z  M 161.788 1412.593 Q 172.452 1419.992 179.053 1423.803 Q 185.66 1427.618 197.415 1433.16 L 161.788 1453.729 L 161.788 1412.593 Z " fill-rule="evenodd" fill="rgb(69,70,71)"/></g></g><g id="Group"><path d=" M 1522.483 1393.242 Q 1557.806 1376.839 1576.628 1365.972 Q 1595.44 1355.111 1627.281 1332.741 L 1627.281 1453.748 L 1522.483 1393.242 Z " fill="rgb(43,181,115)"/><path d=" M 1518 1522.043 Q 1521.454 1483.265 1521.454 1461.536 Q 1521.454 1439.826 1518.006 1401.096 L 1622.746 1461.568 L 1518 1522.043 Z " fill="rgb(11,121,75)"/><path d=" M 1627.281 1590.331 Q 1595.44 1567.961 1576.628 1557.1 Q 1557.822 1546.242 1522.544 1529.858 L 1627.281 1469.388 L 1627.281 1590.331 Z " fill="rgb(43,181,115)"/><path d=" M 1741.042 1529.866 Q 1705.777 1546.245 1686.976 1557.1 Q 1668.164 1567.961 1636.322 1590.331 L 1636.322 1469.406 L 1741.042 1529.866 Z " fill="rgb(11,121,75)"/><path d=" M 1745.599 1401.077 Q 1742.149 1439.821 1742.149 1461.536 Q 1742.149 1483.27 1745.605 1522.062 L 1640.827 1461.568 L 1745.599 1401.077 Z " fill="rgb(43,181,115)"/><path d=" M 1636.322 1332.741 Q 1668.164 1355.111 1686.976 1365.972 Q 1705.793 1376.837 1741.103 1393.234 L 1636.322 1453.729 L 1636.322 1332.741 Z " fill="rgb(11,121,75)"/><path d=" M 1591.637 1433.168 Q 1603.405 1427.621 1610.017 1423.803 Q 1616.618 1419.992 1627.281 1412.593 L 1627.281 1453.748 L 1591.637 1433.168 Z  M 1587.153 1482.117 Q 1588.232 1469.165 1588.232 1461.536 Q 1588.232 1453.927 1587.159 1441.022 L 1622.746 1461.568 L 1587.153 1482.117 Z  M 1627.281 1510.48 Q 1616.618 1503.08 1610.017 1499.269 Q 1603.422 1495.462 1591.697 1489.933 L 1627.281 1469.388 L 1627.281 1510.48 Z  M 1671.889 1489.941 Q 1660.177 1495.464 1653.587 1499.269 Q 1646.986 1503.08 1636.322 1510.48 L 1636.322 1469.406 L 1671.889 1489.941 Z  M 1676.446 1441.003 Q 1675.372 1453.921 1675.372 1461.536 Q 1675.372 1469.171 1676.452 1482.136 L 1640.827 1461.568 L 1676.446 1441.003 Z  M 1636.322 1412.593 Q 1646.986 1419.992 1653.587 1423.803 Q 1660.194 1427.618 1671.95 1433.16 L 1636.322 1453.729 L 1636.322 1412.593 Z " fill-rule="evenodd" fill="rgb(69,70,71)"/></g><g id="Group"><path d=" M 318.146 1767.554 L 354.471 1767.554 C 367.862 1767.554 380.417 1771.906 380.417 1787.474 C 380.417 1800.531 371.712 1808.901 357.986 1808.901 L 318.146 1808.901 L 318.146 1767.554 Z  M 302.243 1822.293 L 359.995 1822.293 C 383.765 1822.293 396.32 1805.553 396.32 1787.976 C 396.32 1773.245 388.285 1762.197 373.554 1759.184 L 373.554 1758.849 C 384.602 1754.329 391.298 1744.788 391.298 1732.066 C 391.298 1720.348 385.104 1711.811 377.237 1707.124 C 370.038 1702.771 356.145 1702.771 345.599 1702.771 L 302.243 1702.771 L 302.243 1822.293 Z  M 318.146 1716.163 L 349.951 1716.163 C 363.677 1716.163 375.395 1718.507 375.395 1735.079 C 375.395 1747.634 368.03 1754.162 349.951 1754.162 L 318.146 1754.162 L 318.146 1716.163 Z  M 415.403 1822.293 L 429.632 1822.293 L 429.632 1735.748 L 415.403 1735.748 L 415.403 1822.293 Z  M 429.632 1702.771 L 415.403 1702.771 L 415.403 1720.181 L 429.632 1720.181 L 429.632 1702.771 Z  M 447.041 1779.104 C 447.041 1804.381 461.604 1824.301 489.058 1824.301 C 516.511 1824.301 531.074 1804.381 531.074 1779.104 C 531.074 1753.66 516.511 1733.74 489.058 1733.74 C 461.604 1733.74 447.041 1753.66 447.041 1779.104 Z  M 462.107 1779.104 C 462.107 1758.012 474.159 1746.294 489.058 1746.294 C 503.956 1746.294 516.008 1758.012 516.008 1779.104 C 516.008 1800.029 503.956 1811.747 489.058 1811.747 C 474.159 1811.747 462.107 1800.029 462.107 1779.104 Z  M 542.29 1795.007 C 543.127 1816.434 559.532 1824.301 578.95 1824.301 C 596.526 1824.301 615.777 1817.605 615.777 1797.016 C 615.777 1780.276 601.716 1775.589 587.487 1772.408 C 574.262 1769.228 559.197 1767.554 559.197 1757.343 C 559.197 1748.638 569.073 1746.294 577.61 1746.294 C 586.985 1746.294 596.694 1749.81 597.698 1760.858 L 611.927 1760.858 C 610.755 1739.766 595.522 1733.74 576.439 1733.74 C 561.373 1733.74 544.131 1740.938 544.131 1758.347 C 544.131 1774.919 558.36 1779.606 572.421 1782.787 C 586.65 1785.967 600.711 1787.809 600.711 1798.857 C 600.711 1809.738 588.659 1811.747 579.787 1811.747 C 568.069 1811.747 557.021 1807.729 556.518 1795.007 L 542.29 1795.007 Z  M 704.999 1763.536 C 702.991 1742.946 687.255 1733.74 667.67 1733.74 C 640.217 1733.74 626.825 1754.162 626.825 1780.109 C 626.825 1805.888 640.886 1824.301 667.335 1824.301 C 689.097 1824.301 702.321 1811.747 705.501 1790.655 L 690.938 1790.655 C 689.097 1803.711 680.894 1811.747 667.168 1811.747 C 649.089 1811.747 641.891 1796.011 641.891 1780.109 C 641.891 1762.532 648.252 1746.294 668.842 1746.294 C 680.559 1746.294 688.092 1752.655 690.268 1763.536 L 704.999 1763.536 Z  M 721.404 1822.293 L 735.633 1822.293 L 735.633 1773.413 C 735.633 1757.845 744.003 1746.294 761.245 1746.294 C 772.125 1746.294 778.821 1753.158 778.821 1763.704 L 778.821 1822.293 L 793.05 1822.293 L 793.05 1765.378 C 793.05 1746.797 786.019 1733.74 763.253 1733.74 C 752.875 1733.74 740.655 1738.092 735.968 1748.471 L 735.633 1748.471 L 735.633 1702.771 L 721.404 1702.771 L 721.404 1822.293 Z  M 874.237 1794.839 C 871.726 1806.055 863.524 1811.747 851.806 1811.747 C 832.89 1811.747 824.353 1798.355 824.855 1783.289 L 889.638 1783.289 C 890.475 1762.365 881.101 1733.74 850.467 1733.74 C 826.864 1733.74 809.79 1752.823 809.79 1778.769 C 810.627 1805.218 823.683 1824.301 851.304 1824.301 C 870.722 1824.301 884.448 1813.923 888.299 1794.839 L 874.237 1794.839 Z  M 824.855 1770.734 C 825.86 1757.51 834.732 1746.294 849.63 1746.294 C 863.691 1746.294 873.902 1757.175 874.572 1770.734 L 824.855 1770.734 Z  M 904.369 1822.293 L 918.597 1822.293 L 918.597 1768.391 C 918.597 1761.862 924.791 1746.294 941.698 1746.294 C 954.42 1746.294 957.936 1754.329 957.936 1765.545 L 957.936 1822.293 L 972.164 1822.293 L 972.164 1768.391 C 972.164 1754.999 981.036 1746.294 994.763 1746.294 C 1008.657 1746.294 1011.503 1754.832 1011.503 1765.545 L 1011.503 1822.293 L 1025.731 1822.293 L 1025.731 1758.849 C 1025.731 1740.938 1014.181 1733.74 996.939 1733.74 C 985.891 1733.74 975.68 1739.264 969.821 1748.471 C 966.306 1737.925 956.597 1733.74 946.051 1733.74 C 934.165 1733.74 924.456 1738.762 918.095 1748.471 L 917.76 1748.471 L 917.76 1735.748 L 904.369 1735.748 L 904.369 1822.293 Z  M 1100.725 1792.161 C 1100.725 1800.029 1093.025 1811.747 1074.276 1811.747 C 1065.572 1811.747 1057.537 1808.399 1057.537 1799.024 C 1057.537 1788.478 1065.572 1785.13 1074.946 1783.456 C 1084.488 1781.783 1095.201 1781.615 1100.725 1777.598 L 1100.725 1792.161 Z  M 1123.826 1810.91 C 1121.984 1811.579 1120.645 1811.747 1119.474 1811.747 C 1114.954 1811.747 1114.954 1808.733 1114.954 1802.038 L 1114.954 1757.51 C 1114.954 1737.255 1098.047 1733.74 1082.479 1733.74 C 1063.228 1733.74 1046.656 1741.273 1045.819 1762.699 L 1060.048 1762.699 C 1060.717 1749.977 1069.589 1746.294 1081.642 1746.294 C 1090.681 1746.294 1100.892 1748.303 1100.892 1760.691 C 1100.892 1771.404 1087.501 1770.4 1071.765 1773.413 C 1057.035 1776.258 1042.471 1780.443 1042.471 1800.029 C 1042.471 1817.271 1055.361 1824.301 1071.096 1824.301 C 1083.148 1824.301 1093.694 1820.116 1101.562 1810.91 C 1101.562 1820.284 1106.249 1824.301 1113.615 1824.301 C 1118.134 1824.301 1121.315 1823.464 1123.826 1821.958 L 1123.826 1810.91 Z  M 1131.526 1795.007 C 1132.363 1816.434 1148.768 1824.301 1168.186 1824.301 C 1185.763 1824.301 1205.013 1817.605 1205.013 1797.016 C 1205.013 1780.276 1190.952 1775.589 1176.723 1772.408 C 1163.499 1769.228 1148.433 1767.554 1148.433 1757.343 C 1148.433 1748.638 1158.309 1746.294 1166.847 1746.294 C 1176.221 1746.294 1185.93 1749.81 1186.934 1760.858 L 1201.163 1760.858 C 1199.991 1739.766 1184.758 1733.74 1165.675 1733.74 C 1150.609 1733.74 1133.367 1740.938 1133.367 1758.347 C 1133.367 1774.919 1147.596 1779.606 1161.657 1782.787 C 1175.886 1785.967 1189.947 1787.809 1189.947 1798.857 C 1189.947 1809.738 1177.895 1811.747 1169.023 1811.747 C 1157.305 1811.747 1146.257 1807.729 1145.755 1795.007 L 1131.526 1795.007 Z " fill-rule="evenodd" fill="rgb(255,255,255)"/><g id="Group"><path d=" M 47.949 1695.242 Q 83.272 1678.839 102.094 1667.972 Q 120.906 1657.111 152.747 1634.741 L 152.747 1755.748 L 47.949 1695.242 Z " fill="rgb(255,255,255)"/><path d=" M 43.466 1824.043 Q 46.92 1785.265 46.92 1763.536 Q 46.92 1741.826 43.472 1703.096 L 148.211 1763.568 L 43.466 1824.043 Z " fill="rgb(255,255,255)"/><path d=" M 152.747 1892.331 Q 120.906 1869.961 102.094 1859.1 Q 83.288 1848.242 48.01 1831.858 L 152.747 1771.388 L 152.747 1892.331 Z " fill="rgb(255,255,255)"/><path d=" M 266.508 1831.866 Q 231.243 1848.245 212.441 1859.1 Q 193.63 1869.961 161.788 1892.331 L 161.788 1771.406 L 266.508 1831.866 Z " fill="rgb(255,255,255)"/><path d=" M 271.065 1703.077 Q 267.615 1741.821 267.615 1763.536 Q 267.615 1785.27 271.071 1824.062 L 166.293 1763.568 L 271.065 1703.077 Z " fill="rgb(255,255,255)"/><path d=" M 161.788 1634.741 Q 193.63 1657.111 212.441 1667.972 Q 231.259 1678.837 266.569 1695.234 L 161.788 1755.729 L 161.788 1634.741 Z " fill="rgb(255,255,255)"/><path d=" M 117.103 1735.168 Q 128.871 1729.621 135.483 1725.803 Q 142.083 1721.992 152.747 1714.593 L 152.747 1755.748 L 117.103 1735.168 Z  M 112.619 1784.117 Q 113.698 1771.165 113.698 1763.536 Q 113.698 1755.927 112.625 1743.022 L 148.211 1763.568 L 112.619 1784.117 Z  M 152.747 1812.48 Q 142.083 1805.08 135.483 1801.269 Q 128.888 1797.462 117.163 1791.933 L 152.747 1771.388 L 152.747 1812.48 Z  M 197.355 1791.941 Q 185.643 1797.464 179.053 1801.269 Q 172.452 1805.08 161.788 1812.48 L 161.788 1771.406 L 197.355 1791.941 Z  M 201.912 1743.003 Q 200.838 1755.921 200.838 1763.536 Q 200.838 1771.171 201.918 1784.136 L 166.293 1763.568 L 201.912 1743.003 Z  M 161.788 1714.593 Q 172.452 1721.992 179.053 1725.803 Q 185.66 1729.618 197.415 1735.16 L 161.788 1755.729 L 161.788 1714.593 Z " fill-rule="evenodd" fill="rgb(69,70,71)"/></g></g><g id="Group"><path d=" M 1522.483 1695.242 Q 1557.806 1678.839 1576.628 1667.972 Q 1595.44 1657.111 1627.281 1634.741 L 1627.281 1755.748 L 1522.483 1695.242 Z " fill="rgb(255,255,255)"/><path d=" M 1518 1824.043 Q 1521.454 1785.265 1521.454 1763.536 Q 1521.454 1741.826 1518.006 1703.096 L 1622.746 1763.568 L 1518 1824.043 Z " fill="rgb(255,255,255)"/><path d=" M 1627.281 1892.331 Q 1595.44 1869.961 1576.628 1859.1 Q 1557.822 1848.242 1522.544 1831.858 L 1627.281 1771.388 L 1627.281 1892.331 Z " fill="rgb(255,255,255)"/><path d=" M 1741.042 1831.866 Q 1705.777 1848.245 1686.976 1859.1 Q 1668.164 1869.961 1636.322 1892.331 L 1636.322 1771.406 L 1741.042 1831.866 Z " fill="rgb(255,255,255)"/><path d=" M 1745.599 1703.077 Q 1742.149 1741.821 1742.149 1763.536 Q 1742.149 1785.27 1745.605 1824.062 L 1640.827 1763.568 L 1745.599 1703.077 Z " fill="rgb(255,255,255)"/><path d=" M 1636.322 1634.741 Q 1668.164 1657.111 1686.976 1667.972 Q 1705.793 1678.837 1741.103 1695.234 L 1636.322 1755.729 L 1636.322 1634.741 Z " fill="rgb(255,255,255)"/><path d=" M 1591.637 1735.168 Q 1603.405 1729.621 1610.017 1725.803 Q 1616.618 1721.992 1627.281 1714.593 L 1627.281 1755.748 L 1591.637 1735.168 Z  M 1587.153 1784.117 Q 1588.232 1771.165 1588.232 1763.536 Q 1588.232 1755.927 1587.159 1743.022 L 1622.746 1763.568 L 1587.153 1784.117 Z  M 1627.281 1812.48 Q 1616.618 1805.08 1610.017 1801.269 Q 1603.422 1797.462 1591.697 1791.933 L 1627.281 1771.388 L 1627.281 1812.48 Z  M 1671.889 1791.941 Q 1660.177 1797.464 1653.587 1801.269 Q 1646.986 1805.08 1636.322 1812.48 L 1636.322 1771.406 L 1671.889 1791.941 Z  M 1676.446 1743.003 Q 1675.372 1755.921 1675.372 1763.536 Q 1675.372 1771.171 1676.452 1784.136 L 1640.827 1763.568 L 1676.446 1743.003 Z  M 1636.322 1714.593 Q 1646.986 1721.992 1653.587 1725.803 Q 1660.194 1729.618 1671.95 1735.16 L 1636.322 1755.729 L 1636.322 1714.593 Z " fill-rule="evenodd" fill="rgb(69,70,71)"/></g><g id="Group"><path d=" M 322.366 837.419 L 358.692 837.419 C 372.083 837.419 384.638 841.771 384.638 857.339 C 384.638 870.396 375.933 878.766 362.207 878.766 L 322.366 878.766 L 322.366 837.419 Z  M 306.464 892.157 L 364.216 892.157 C 387.986 892.157 400.541 875.418 400.541 857.841 C 400.541 843.11 392.506 832.062 377.775 829.049 L 377.775 828.714 C 388.823 824.194 395.519 814.653 395.519 801.931 C 395.519 790.213 389.325 781.676 381.457 776.988 C 374.259 772.636 360.365 772.636 349.819 772.636 L 306.464 772.636 L 306.464 892.157 Z  M 322.366 786.028 L 354.172 786.028 C 367.898 786.028 379.616 788.371 379.616 804.944 C 379.616 817.498 372.251 824.027 354.172 824.027 L 322.366 824.027 L 322.366 786.028 Z  M 419.624 892.157 L 433.853 892.157 L 433.853 805.613 L 419.624 805.613 L 419.624 892.157 Z  M 433.853 772.636 L 419.624 772.636 L 419.624 790.045 L 433.853 790.045 L 433.853 772.636 Z  M 451.262 848.969 C 451.262 874.246 465.825 894.166 493.278 894.166 C 520.732 894.166 535.295 874.246 535.295 848.969 C 535.295 823.525 520.732 803.605 493.278 803.605 C 465.825 803.605 451.262 823.525 451.262 848.969 Z  M 466.328 848.969 C 466.328 827.877 478.38 816.159 493.278 816.159 C 508.177 816.159 520.229 827.877 520.229 848.969 C 520.229 869.894 508.177 881.611 493.278 881.611 C 478.38 881.611 466.328 869.894 466.328 848.969 Z  M 546.511 864.872 C 547.348 886.298 563.752 894.166 583.17 894.166 C 600.747 894.166 619.998 887.47 619.998 866.88 C 619.998 850.141 605.936 845.454 591.708 842.273 C 578.483 839.093 563.418 837.419 563.418 827.207 C 563.418 818.503 573.294 816.159 581.831 816.159 C 591.206 816.159 600.915 819.675 601.919 830.723 L 616.148 830.723 C 614.976 809.631 599.743 803.605 580.66 803.605 C 565.594 803.605 548.352 810.803 548.352 828.212 C 548.352 844.784 562.581 849.471 576.642 852.652 C 590.871 855.832 604.932 857.674 604.932 868.722 C 604.932 879.603 592.879 881.611 584.007 881.611 C 572.29 881.611 561.242 877.594 560.739 864.872 L 546.511 864.872 Z  M 709.22 833.401 C 707.211 812.811 691.476 803.605 671.891 803.605 C 644.438 803.605 631.046 824.027 631.046 849.973 C 631.046 875.753 645.107 894.166 671.556 894.166 C 693.318 894.166 706.542 881.611 709.722 860.519 L 695.159 860.519 C 693.318 873.576 685.115 881.611 671.389 881.611 C 653.31 881.611 646.112 865.876 646.112 849.973 C 646.112 832.397 652.473 816.159 673.063 816.159 C 684.78 816.159 692.313 822.52 694.489 833.401 L 709.22 833.401 Z  M 725.625 892.157 L 739.854 892.157 L 739.854 843.278 C 739.854 827.71 748.224 816.159 765.466 816.159 C 776.346 816.159 783.042 823.023 783.042 833.569 L 783.042 892.157 L 797.271 892.157 L 797.271 835.243 C 797.271 816.661 790.24 803.605 767.474 803.605 C 757.096 803.605 744.876 807.957 740.189 818.335 L 739.854 818.335 L 739.854 772.636 L 725.625 772.636 L 725.625 892.157 Z  M 878.458 864.704 C 875.947 875.92 867.745 881.611 856.027 881.611 C 837.111 881.611 828.574 868.22 829.076 853.154 L 893.859 853.154 C 894.696 832.229 885.322 803.605 854.688 803.605 C 831.085 803.605 814.011 822.688 814.011 848.634 C 814.847 875.083 827.904 894.166 855.525 894.166 C 874.943 894.166 888.669 883.788 892.52 864.704 L 878.458 864.704 Z  M 829.076 840.599 C 830.081 827.375 838.953 816.159 853.851 816.159 C 867.912 816.159 878.123 827.04 878.793 840.599 L 829.076 840.599 Z  M 908.59 892.157 L 922.818 892.157 L 922.818 838.256 C 922.818 831.727 929.012 816.159 945.919 816.159 C 958.641 816.159 962.157 824.194 962.157 835.41 L 962.157 892.157 L 976.385 892.157 L 976.385 838.256 C 976.385 824.864 985.257 816.159 998.984 816.159 C 1012.878 816.159 1015.724 824.697 1015.724 835.41 L 1015.724 892.157 L 1029.952 892.157 L 1029.952 828.714 C 1029.952 810.803 1018.402 803.605 1001.16 803.605 C 990.112 803.605 979.901 809.129 974.042 818.335 C 970.526 807.789 960.817 803.605 950.271 803.605 C 938.386 803.605 928.677 808.626 922.316 818.335 L 921.981 818.335 L 921.981 805.613 L 908.59 805.613 L 908.59 892.157 Z  M 1104.946 862.026 C 1104.946 869.894 1097.246 881.611 1078.497 881.611 C 1069.793 881.611 1061.758 878.263 1061.758 868.889 C 1061.758 858.343 1069.793 854.995 1079.167 853.321 C 1088.708 851.647 1099.422 851.48 1104.946 847.462 L 1104.946 862.026 Z  M 1128.047 880.774 C 1126.205 881.444 1124.866 881.611 1123.694 881.611 C 1119.175 881.611 1119.175 878.598 1119.175 871.902 L 1119.175 827.375 C 1119.175 807.12 1102.268 803.605 1086.7 803.605 C 1067.449 803.605 1050.877 811.137 1050.04 832.564 L 1064.269 832.564 C 1064.938 819.842 1073.81 816.159 1085.863 816.159 C 1094.902 816.159 1105.113 818.168 1105.113 830.555 C 1105.113 841.269 1091.722 840.264 1075.986 843.278 C 1061.255 846.123 1046.692 850.308 1046.692 869.894 C 1046.692 887.135 1059.581 894.166 1075.317 894.166 C 1087.369 894.166 1097.915 889.981 1105.783 880.774 C 1105.783 890.149 1110.47 894.166 1117.836 894.166 C 1122.355 894.166 1125.536 893.329 1128.047 891.823 L 1128.047 880.774 Z  M 1135.747 864.872 C 1136.584 886.298 1152.989 894.166 1172.407 894.166 C 1189.983 894.166 1209.234 887.47 1209.234 866.88 C 1209.234 850.141 1195.173 845.454 1180.944 842.273 C 1167.72 839.093 1152.654 837.419 1152.654 827.207 C 1152.654 818.503 1162.53 816.159 1171.068 816.159 C 1180.442 816.159 1190.151 819.675 1191.155 830.723 L 1205.384 830.723 C 1204.212 809.631 1188.979 803.605 1169.896 803.605 C 1154.83 803.605 1137.588 810.803 1137.588 828.212 C 1137.588 844.784 1151.817 849.471 1165.878 852.652 C 1180.107 855.832 1194.168 857.674 1194.168 868.722 C 1194.168 879.603 1182.116 881.611 1173.244 881.611 C 1161.526 881.611 1150.478 877.594 1149.976 864.872 L 1135.747 864.872 Z " fill-rule="evenodd" fill="rgb(69,70,71)"/><g id="Group"><path d=" M 152.243 962.762 L 46.976 901.986 L 152.243 841.211 L 152.243 962.762 Z " fill="rgb(43,181,115)"/><path d=" M 161.307 962.74 L 266.535 901.986 L 161.307 841.233 L 161.307 962.74 Z " fill="rgb(11,121,75)"/><path d=" M 271.071 894.166 L 271.071 772.623 L 165.812 833.395 L 271.071 894.166 Z " fill="rgb(43,181,115)"/><path d=" M 266.535 764.785 L 161.276 704.009 L 161.284 825.552 L 266.535 764.785 Z " fill="rgb(11,121,75)"/><path d=" M 46.969 764.789 L 152.243 704.009 L 152.243 825.57 L 46.969 764.789 Z " fill="rgb(43,181,115)"/><path d=" M 42.464 894.153 L 42.464 772.628 L 147.707 833.39 L 42.464 894.153 Z " fill="rgb(11,121,75)"/><path d=" M 111.758 854.164 L 111.758 812.626 L 147.731 833.395 L 111.758 854.164 Z " fill="rgb(69,70,71)"/><path d=" M 152.267 882.762 L 116.286 861.989 L 152.267 841.215 L 152.267 882.762 Z " fill="rgb(69,70,71)"/><path d=" M 161.307 882.757 L 197.268 861.995 L 161.307 841.233 L 161.307 882.757 Z " fill="rgb(69,70,71)"/><path d=" M 201.785 854.164 L 201.785 812.626 L 165.812 833.395 L 201.785 854.164 Z " fill="rgb(69,70,71)"/><path d=" M 197.273 804.792 L 161.307 784.027 L 161.307 825.556 L 197.273 804.792 Z " fill="rgb(69,70,71)"/><path d=" M 116.29 804.779 L 152.27 784.006 L 152.27 825.552 L 116.29 804.779 Z " fill="rgb(69,70,71)"/></g></g><g id="Group"><path d=" M 1626.778 962.753 L 1521.511 901.977 L 1626.778 841.202 L 1626.778 962.753 Z " fill="rgb(43,181,115)"/><path d=" M 1635.842 962.731 L 1741.069 901.977 L 1635.842 841.224 L 1635.842 962.731 Z " fill="rgb(11,121,75)"/><path d=" M 1745.605 894.157 L 1745.605 772.614 L 1640.346 833.386 L 1745.605 894.157 Z " fill="rgb(43,181,115)"/><path d=" M 1741.069 764.776 L 1635.81 704 L 1635.818 825.543 L 1741.069 764.776 Z " fill="rgb(11,121,75)"/><path d=" M 1521.503 764.78 L 1626.778 704 L 1626.778 825.561 L 1521.503 764.78 Z " fill="rgb(43,181,115)"/><path d=" M 1516.998 894.144 L 1516.998 772.619 L 1622.242 833.381 L 1516.998 894.144 Z " fill="rgb(11,121,75)"/><path d=" M 1586.292 854.155 L 1586.292 812.617 L 1622.265 833.386 L 1586.292 854.155 Z " fill="rgb(69,70,71)"/><path d=" M 1626.801 882.753 L 1590.82 861.98 L 1626.801 841.206 L 1626.801 882.753 Z " fill="rgb(69,70,71)"/><path d=" M 1635.842 882.748 L 1671.802 861.986 L 1635.842 841.224 L 1635.842 882.748 Z " fill="rgb(69,70,71)"/><path d=" M 1676.319 854.155 L 1676.319 812.617 L 1640.346 833.386 L 1676.319 854.155 Z " fill="rgb(69,70,71)"/><path d=" M 1671.807 804.783 L 1635.842 784.018 L 1635.842 825.547 L 1671.807 804.783 Z " fill="rgb(69,70,71)"/><path d=" M 1590.825 804.77 L 1626.804 783.997 L 1626.804 825.543 L 1590.825 804.77 Z " fill="rgb(69,70,71)"/></g><g id="Group"><path d=" M 318.146 1142.307 L 354.471 1142.307 C 367.862 1142.307 380.417 1146.659 380.417 1162.227 C 380.417 1175.284 371.712 1183.654 357.986 1183.654 L 318.146 1183.654 L 318.146 1142.307 Z  M 302.243 1197.046 L 359.995 1197.046 C 383.765 1197.046 396.32 1180.306 396.32 1162.73 C 396.32 1147.999 388.285 1136.95 373.554 1133.937 L 373.554 1133.603 C 384.602 1129.083 391.298 1119.541 391.298 1106.819 C 391.298 1095.101 385.104 1086.564 377.237 1081.877 C 370.038 1077.525 356.145 1077.525 345.599 1077.525 L 302.243 1077.525 L 302.243 1197.046 Z  M 318.146 1090.916 L 349.951 1090.916 C 363.677 1090.916 375.395 1093.26 375.395 1109.832 C 375.395 1122.387 368.03 1128.915 349.951 1128.915 L 318.146 1128.915 L 318.146 1090.916 Z  M 415.403 1197.046 L 429.632 1197.046 L 429.632 1110.502 L 415.403 1110.502 L 415.403 1197.046 Z  M 429.632 1077.525 L 415.403 1077.525 L 415.403 1094.934 L 429.632 1094.934 L 429.632 1077.525 Z  M 447.041 1153.858 C 447.041 1179.134 461.604 1199.055 489.058 1199.055 C 516.511 1199.055 531.074 1179.134 531.074 1153.858 C 531.074 1128.413 516.511 1108.493 489.058 1108.493 C 461.604 1108.493 447.041 1128.413 447.041 1153.858 Z  M 462.107 1153.858 C 462.107 1132.766 474.159 1121.048 489.058 1121.048 C 503.956 1121.048 516.008 1132.766 516.008 1153.858 C 516.008 1174.782 503.956 1186.5 489.058 1186.5 C 474.159 1186.5 462.107 1174.782 462.107 1153.858 Z  M 542.29 1169.76 C 543.127 1191.187 559.532 1199.055 578.95 1199.055 C 596.526 1199.055 615.777 1192.359 615.777 1171.769 C 615.777 1155.029 601.716 1150.342 587.487 1147.162 C 574.262 1143.981 559.197 1142.307 559.197 1132.096 C 559.197 1123.391 569.073 1121.048 577.61 1121.048 C 586.985 1121.048 596.694 1124.563 597.698 1135.611 L 611.927 1135.611 C 610.755 1114.519 595.522 1108.493 576.439 1108.493 C 561.373 1108.493 544.131 1115.691 544.131 1133.1 C 544.131 1149.673 558.36 1154.36 572.421 1157.54 C 586.65 1160.721 600.711 1162.562 600.711 1173.61 C 600.711 1184.491 588.659 1186.5 579.787 1186.5 C 568.069 1186.5 557.021 1182.482 556.518 1169.76 L 542.29 1169.76 Z  M 704.999 1138.29 C 702.991 1117.7 687.255 1108.493 667.67 1108.493 C 640.217 1108.493 626.825 1128.915 626.825 1154.862 C 626.825 1180.641 640.886 1199.055 667.335 1199.055 C 689.097 1199.055 702.321 1186.5 705.501 1165.408 L 690.938 1165.408 C 689.097 1178.465 680.894 1186.5 667.168 1186.5 C 649.089 1186.5 641.891 1170.765 641.891 1154.862 C 641.891 1137.285 648.252 1121.048 668.842 1121.048 C 680.559 1121.048 688.092 1127.409 690.268 1138.29 L 704.999 1138.29 Z  M 721.404 1197.046 L 735.633 1197.046 L 735.633 1148.166 C 735.633 1132.598 744.003 1121.048 761.245 1121.048 C 772.125 1121.048 778.821 1127.911 778.821 1138.457 L 778.821 1197.046 L 793.05 1197.046 L 793.05 1140.131 C 793.05 1121.55 786.019 1108.493 763.253 1108.493 C 752.875 1108.493 740.655 1112.845 735.968 1123.224 L 735.633 1123.224 L 735.633 1077.525 L 721.404 1077.525 L 721.404 1197.046 Z  M 874.237 1169.593 C 871.726 1180.808 863.524 1186.5 851.806 1186.5 C 832.89 1186.5 824.353 1173.108 824.855 1158.042 L 889.638 1158.042 C 890.475 1137.118 881.101 1108.493 850.467 1108.493 C 826.864 1108.493 809.79 1127.576 809.79 1153.523 C 810.627 1179.971 823.683 1199.055 851.304 1199.055 C 870.722 1199.055 884.448 1188.676 888.299 1169.593 L 874.237 1169.593 Z  M 824.855 1145.488 C 825.86 1132.263 834.732 1121.048 849.63 1121.048 C 863.691 1121.048 873.902 1131.929 874.572 1145.488 L 824.855 1145.488 Z  M 904.369 1197.046 L 918.597 1197.046 L 918.597 1143.144 C 918.597 1136.616 924.791 1121.048 941.698 1121.048 C 954.42 1121.048 957.936 1129.083 957.936 1140.298 L 957.936 1197.046 L 972.164 1197.046 L 972.164 1143.144 C 972.164 1129.752 981.036 1121.048 994.763 1121.048 C 1008.657 1121.048 1011.503 1129.585 1011.503 1140.298 L 1011.503 1197.046 L 1025.731 1197.046 L 1025.731 1133.603 C 1025.731 1115.691 1014.181 1108.493 996.939 1108.493 C 985.891 1108.493 975.68 1114.017 969.821 1123.224 C 966.306 1112.678 956.597 1108.493 946.051 1108.493 C 934.165 1108.493 924.456 1113.515 918.095 1123.224 L 917.76 1123.224 L 917.76 1110.502 L 904.369 1110.502 L 904.369 1197.046 Z  M 1100.725 1166.914 C 1100.725 1174.782 1093.025 1186.5 1074.276 1186.5 C 1065.572 1186.5 1057.537 1183.152 1057.537 1173.778 C 1057.537 1163.232 1065.572 1159.884 1074.946 1158.21 C 1084.488 1156.536 1095.201 1156.368 1100.725 1152.351 L 1100.725 1166.914 Z  M 1123.826 1185.663 C 1121.984 1186.332 1120.645 1186.5 1119.474 1186.5 C 1114.954 1186.5 1114.954 1183.487 1114.954 1176.791 L 1114.954 1132.263 C 1114.954 1112.008 1098.047 1108.493 1082.479 1108.493 C 1063.228 1108.493 1046.656 1116.026 1045.819 1137.453 L 1060.048 1137.453 C 1060.717 1124.73 1069.589 1121.048 1081.642 1121.048 C 1090.681 1121.048 1100.892 1123.057 1100.892 1135.444 C 1100.892 1146.157 1087.501 1145.153 1071.765 1148.166 C 1057.035 1151.012 1042.471 1155.197 1042.471 1174.782 C 1042.471 1192.024 1055.361 1199.055 1071.096 1199.055 C 1083.148 1199.055 1093.694 1194.87 1101.562 1185.663 C 1101.562 1195.037 1106.249 1199.055 1113.615 1199.055 C 1118.134 1199.055 1121.315 1198.218 1123.826 1196.711 L 1123.826 1185.663 Z  M 1131.526 1169.76 C 1132.363 1191.187 1148.768 1199.055 1168.186 1199.055 C 1185.763 1199.055 1205.013 1192.359 1205.013 1171.769 C 1205.013 1155.029 1190.952 1150.342 1176.723 1147.162 C 1163.499 1143.981 1148.433 1142.307 1148.433 1132.096 C 1148.433 1123.391 1158.309 1121.048 1166.847 1121.048 C 1176.221 1121.048 1185.93 1124.563 1186.934 1135.611 L 1201.163 1135.611 C 1199.991 1114.519 1184.758 1108.493 1165.675 1108.493 C 1150.609 1108.493 1133.367 1115.691 1133.367 1133.1 C 1133.367 1149.673 1147.596 1154.36 1161.657 1157.54 C 1175.886 1160.721 1189.947 1162.562 1189.947 1173.61 C 1189.947 1184.491 1177.895 1186.5 1169.023 1186.5 C 1157.305 1186.5 1146.257 1182.482 1145.755 1169.76 L 1131.526 1169.76 Z " fill-rule="evenodd" fill="rgb(255,255,255)"/><g id="Group"><path d=" M 152.243 1267.666 L 46.976 1206.89 L 152.243 1146.114 L 152.243 1267.666 Z " fill="rgb(255,255,255)"/><path d=" M 161.307 1267.644 L 266.535 1206.89 L 161.307 1146.137 L 161.307 1267.644 Z " fill="rgb(255,255,255)"/><path d=" M 271.071 1199.07 L 271.071 1077.527 L 165.812 1138.299 L 271.071 1199.07 Z " fill="rgb(255,255,255)"/><path d=" M 266.535 1069.689 L 161.276 1008.913 L 161.284 1130.456 L 266.535 1069.689 Z " fill="rgb(255,255,255)"/><path d=" M 46.969 1069.693 L 152.243 1008.913 L 152.243 1130.474 L 46.969 1069.693 Z " fill="rgb(255,255,255)"/><path d=" M 42.464 1199.057 L 42.464 1077.532 L 147.707 1138.294 L 42.464 1199.057 Z " fill="rgb(255,255,255)"/><path d=" M 111.758 1159.068 L 111.758 1117.53 L 147.731 1138.299 L 111.758 1159.068 Z " fill="rgb(69,70,71)"/><path d=" M 152.267 1187.666 L 116.286 1166.893 L 152.267 1146.119 L 152.267 1187.666 Z " fill="rgb(69,70,71)"/><path d=" M 161.307 1187.661 L 197.268 1166.899 L 161.307 1146.137 L 161.307 1187.661 Z " fill="rgb(69,70,71)"/><path d=" M 201.785 1159.068 L 201.785 1117.53 L 165.812 1138.299 L 201.785 1159.068 Z " fill="rgb(69,70,71)"/><path d=" M 197.273 1109.696 L 161.307 1088.931 L 161.307 1130.46 L 197.273 1109.696 Z " fill="rgb(69,70,71)"/><path d=" M 116.29 1109.683 L 152.27 1088.91 L 152.27 1130.456 L 116.29 1109.683 Z " fill="rgb(69,70,71)"/></g></g><g id="Group"><path d=" M 1627.779 1267.666 L 1522.512 1206.89 L 1627.779 1146.114 L 1627.779 1267.666 Z " fill="rgb(255,255,255)"/><path d=" M 1636.843 1267.644 L 1742.071 1206.89 L 1636.843 1146.137 L 1636.843 1267.644 Z " fill="rgb(255,255,255)"/><path d=" M 1746.607 1199.07 L 1746.607 1077.527 L 1641.348 1138.299 L 1746.607 1199.07 Z " fill="rgb(255,255,255)"/><path d=" M 1742.071 1069.689 L 1636.812 1008.913 L 1636.82 1130.456 L 1742.071 1069.689 Z " fill="rgb(255,255,255)"/><path d=" M 1522.505 1069.693 L 1627.779 1008.913 L 1627.779 1130.474 L 1522.505 1069.693 Z " fill="rgb(255,255,255)"/><path d=" M 1518 1199.057 L 1518 1077.532 L 1623.244 1138.294 L 1518 1199.057 Z " fill="rgb(255,255,255)"/><path d=" M 1587.294 1159.068 L 1587.294 1117.53 L 1623.267 1138.299 L 1587.294 1159.068 Z " fill="rgb(69,70,71)"/><path d=" M 1627.803 1187.666 L 1591.822 1166.893 L 1627.803 1146.119 L 1627.803 1187.666 Z " fill="rgb(69,70,71)"/><path d=" M 1636.843 1187.661 L 1672.804 1166.899 L 1636.843 1146.137 L 1636.843 1187.661 Z " fill="rgb(69,70,71)"/><path d=" M 1677.321 1159.068 L 1677.321 1117.53 L 1641.348 1138.299 L 1677.321 1159.068 Z " fill="rgb(69,70,71)"/><path d=" M 1672.809 1109.696 L 1636.843 1088.931 L 1636.843 1130.46 L 1672.809 1109.696 Z " fill="rgb(69,70,71)"/><path d=" M 1591.827 1109.683 L 1627.806 1088.91 L 1627.806 1130.456 L 1591.827 1109.683 Z " fill="rgb(69,70,71)"/></g></svg>