<?xml version="1.0" encoding="UTF-8" standalone="no"?>
<!-- Created with Inkscape (http://www.inkscape.org/) -->

<svg
   xmlns:dc="http://purl.org/dc/elements/1.1/"
   xmlns:cc="http://creativecommons.org/ns#"
   xmlns:rdf="http://www.w3.org/1999/02/22-rdf-syntax-ns#"
   xmlns:svg="http://www.w3.org/2000/svg"
   xmlns="http://www.w3.org/2000/svg"
   xmlns:sodipodi="http://sodipodi.sourceforge.net/DTD/sodipodi-0.dtd"
   xmlns:inkscape="http://www.inkscape.org/namespaces/inkscape"
   width="103.16579mm"
   height="95.827194mm"
   viewBox="0 0 103.16579 95.827194"
   version="1.1"
   id="svg8"
   sodipodi:docname="COVID19-dmap-project.svg"
   inkscape:version="0.92.2 5c3e80d, 2017-08-06"
   inkscape:export-filename="/Users/marek/Work/Projects/_Disease maps/COVID19/paper/COVID19-Dmap-logo.png"
   inkscape:export-xdpi="300"
   inkscape:export-ydpi="300">
  <defs
     id="defs2">
    <marker
       inkscape:stockid="DotS"
       orient="auto"
       refY="0"
       refX="0"
       id="marker10402"
       style="overflow:visible"
       inkscape:isstock="true">
      <path
         id="path10400"
         d="m -2.5,-1 c 0,2.76 -2.24,5 -5,5 -2.76,0 -5,-2.24 -5,-5 0,-2.76 2.24,-5 5,-5 2.76,0 5,2.24 5,5 z"
         style="fill:#000000;fill-opacity:1;fill-rule:evenodd;stroke:#000000;stroke-width:1.00000003pt;stroke-opacity:1"
         transform="matrix(0.2,0,0,0.2,1.48,0.2)"
         inkscape:connector-curvature="0" />
    </marker>
    <marker
       inkscape:stockid="DotS"
       orient="auto"
       refY="0"
       refX="0"
       id="marker10380"
       style="overflow:visible"
       inkscape:isstock="true">
      <path
         id="path10378"
         d="m -2.5,-1 c 0,2.76 -2.24,5 -5,5 -2.76,0 -5,-2.24 -5,-5 0,-2.76 2.24,-5 5,-5 2.76,0 5,2.24 5,5 z"
         style="fill:#000000;fill-opacity:1;fill-rule:evenodd;stroke:#000000;stroke-width:1.00000003pt;stroke-opacity:1"
         transform="matrix(0.2,0,0,0.2,1.48,0.2)"
         inkscape:connector-curvature="0" />
    </marker>
    <marker
       inkscape:stockid="DotS"
       orient="auto"
       refY="0"
       refX="0"
       id="marker10118"
       style="overflow:visible"
       inkscape:isstock="true">
      <path
         id="path10116"
         d="m -2.5,-1 c 0,2.76 -2.24,5 -5,5 -2.76,0 -5,-2.24 -5,-5 0,-2.76 2.24,-5 5,-5 2.76,0 5,2.24 5,5 z"
         style="fill:#000000;fill-opacity:1;fill-rule:evenodd;stroke:#000000;stroke-width:1.00000003pt;stroke-opacity:1"
         transform="matrix(0.2,0,0,0.2,1.48,0.2)"
         inkscape:connector-curvature="0" />
    </marker>
    <marker
       inkscape:stockid="DotS"
       orient="auto"
       refY="0"
       refX="0"
       id="marker10108"
       style="overflow:visible"
       inkscape:isstock="true">
      <path
         id="path10106"
         d="m -2.5,-1 c 0,2.76 -2.24,5 -5,5 -2.76,0 -5,-2.24 -5,-5 0,-2.76 2.24,-5 5,-5 2.76,0 5,2.24 5,5 z"
         style="fill:#000000;fill-opacity:1;fill-rule:evenodd;stroke:#000000;stroke-width:1.00000003pt;stroke-opacity:1"
         transform="matrix(0.2,0,0,0.2,1.48,0.2)"
         inkscape:connector-curvature="0" />
    </marker>
    <marker
       inkscape:isstock="true"
       style="overflow:visible"
       id="marker9584"
       refX="0"
       refY="0"
       orient="auto"
       inkscape:stockid="DotS">
      <path
         transform="matrix(0.2,0,0,0.2,1.48,0.2)"
         style="fill:#000000;fill-opacity:1;fill-rule:evenodd;stroke:#000000;stroke-width:1.00000003pt;stroke-opacity:1"
         d="m -2.5,-1 c 0,2.76 -2.24,5 -5,5 -2.76,0 -5,-2.24 -5,-5 0,-2.76 2.24,-5 5,-5 2.76,0 5,2.24 5,5 z"
         id="path9582"
         inkscape:connector-curvature="0" />
    </marker>
    <marker
       inkscape:isstock="true"
       style="overflow:visible"
       id="marker9340"
       refX="0"
       refY="0"
       orient="auto"
       inkscape:stockid="DotS">
      <path
         transform="matrix(0.2,0,0,0.2,1.48,0.2)"
         style="fill:#000000;fill-opacity:1;fill-rule:evenodd;stroke:#000000;stroke-width:1.00000003pt;stroke-opacity:1"
         d="m -2.5,-1 c 0,2.76 -2.24,5 -5,5 -2.76,0 -5,-2.24 -5,-5 0,-2.76 2.24,-5 5,-5 2.76,0 5,2.24 5,5 z"
         id="path9338"
         inkscape:connector-curvature="0" />
    </marker>
    <marker
       inkscape:isstock="true"
       style="overflow:visible"
       id="marker9102"
       refX="0"
       refY="0"
       orient="auto"
       inkscape:stockid="DotS">
      <path
         transform="matrix(0.2,0,0,0.2,1.48,0.2)"
         style="fill:#000000;fill-opacity:1;fill-rule:evenodd;stroke:#000000;stroke-width:1.00000003pt;stroke-opacity:1"
         d="m -2.5,-1 c 0,2.76 -2.24,5 -5,5 -2.76,0 -5,-2.24 -5,-5 0,-2.76 2.24,-5 5,-5 2.76,0 5,2.24 5,5 z"
         id="path9100"
         inkscape:connector-curvature="0" />
    </marker>
    <marker
       inkscape:isstock="true"
       style="overflow:visible"
       id="marker8870"
       refX="0"
       refY="0"
       orient="auto"
       inkscape:stockid="DotS">
      <path
         transform="matrix(0.2,0,0,0.2,1.48,0.2)"
         style="fill:#000000;fill-opacity:1;fill-rule:evenodd;stroke:#000000;stroke-width:1.00000003pt;stroke-opacity:1"
         d="m -2.5,-1 c 0,2.76 -2.24,5 -5,5 -2.76,0 -5,-2.24 -5,-5 0,-2.76 2.24,-5 5,-5 2.76,0 5,2.24 5,5 z"
         id="path8868"
         inkscape:connector-curvature="0" />
    </marker>
    <marker
       inkscape:isstock="true"
       style="overflow:visible"
       id="marker8324"
       refX="0"
       refY="0"
       orient="auto"
       inkscape:stockid="DotM">
      <path
         inkscape:connector-curvature="0"
         transform="matrix(0.4,0,0,0.4,2.96,0.4)"
         style="fill:#000000;fill-opacity:1;fill-rule:evenodd;stroke:#000000;stroke-width:1.00000003pt;stroke-opacity:1"
         d="m -2.5,-1 c 0,2.76 -2.24,5 -5,5 -2.76,0 -5,-2.24 -5,-5 0,-2.76 2.24,-5 5,-5 2.76,0 5,2.24 5,5 z"
         id="path8322" />
    </marker>
    <marker
       inkscape:isstock="true"
       style="overflow:visible"
       id="marker8080"
       refX="0"
       refY="0"
       orient="auto"
       inkscape:stockid="DotM">
      <path
         inkscape:connector-curvature="0"
         transform="matrix(0.4,0,0,0.4,2.96,0.4)"
         style="fill:#000000;fill-opacity:1;fill-rule:evenodd;stroke:#000000;stroke-width:1.00000003pt;stroke-opacity:1"
         d="m -2.5,-1 c 0,2.76 -2.24,5 -5,5 -2.76,0 -5,-2.24 -5,-5 0,-2.76 2.24,-5 5,-5 2.76,0 5,2.24 5,5 z"
         id="path8078" />
    </marker>
    <marker
       inkscape:stockid="DotM"
       orient="auto"
       refY="0"
       refX="0"
       id="marker5482"
       style="overflow:visible"
       inkscape:isstock="true">
      <path
         id="path5480"
         d="m -2.5,-1 c 0,2.76 -2.24,5 -5,5 -2.76,0 -5,-2.24 -5,-5 0,-2.76 2.24,-5 5,-5 2.76,0 5,2.24 5,5 z"
         style="fill:#000000;fill-opacity:1;fill-rule:evenodd;stroke:#000000;stroke-width:1.00000003pt;stroke-opacity:1"
         transform="matrix(0.4,0,0,0.4,2.96,0.4)"
         inkscape:connector-curvature="0" />
    </marker>
    <marker
       inkscape:stockid="DotM"
       orient="auto"
       refY="0"
       refX="0"
       id="marker5280"
       style="overflow:visible"
       inkscape:isstock="true">
      <path
         id="path5278"
         d="m -2.5,-1 c 0,2.76 -2.24,5 -5,5 -2.76,0 -5,-2.24 -5,-5 0,-2.76 2.24,-5 5,-5 2.76,0 5,2.24 5,5 z"
         style="fill:#000000;fill-opacity:1;fill-rule:evenodd;stroke:#000000;stroke-width:1.00000003pt;stroke-opacity:1"
         transform="matrix(0.4,0,0,0.4,2.96,0.4)"
         inkscape:connector-curvature="0" />
    </marker>
    <marker
       inkscape:stockid="DotM"
       orient="auto"
       refY="0"
       refX="0"
       id="marker5084"
       style="overflow:visible"
       inkscape:isstock="true">
      <path
         id="path5082"
         d="m -2.5,-1 c 0,2.76 -2.24,5 -5,5 -2.76,0 -5,-2.24 -5,-5 0,-2.76 2.24,-5 5,-5 2.76,0 5,2.24 5,5 z"
         style="fill:#000000;fill-opacity:1;fill-rule:evenodd;stroke:#000000;stroke-width:1.00000003pt;stroke-opacity:1"
         transform="matrix(0.4,0,0,0.4,2.96,0.4)"
         inkscape:connector-curvature="0" />
    </marker>
    <marker
       inkscape:stockid="DotM"
       orient="auto"
       refY="0"
       refX="0"
       id="marker4894"
       style="overflow:visible"
       inkscape:isstock="true">
      <path
         id="path4892"
         d="m -2.5,-1 c 0,2.76 -2.24,5 -5,5 -2.76,0 -5,-2.24 -5,-5 0,-2.76 2.24,-5 5,-5 2.76,0 5,2.24 5,5 z"
         style="fill:#000000;fill-opacity:1;fill-rule:evenodd;stroke:#000000;stroke-width:1.00000003pt;stroke-opacity:1"
         transform="matrix(0.4,0,0,0.4,2.96,0.4)"
         inkscape:connector-curvature="0" />
    </marker>
    <marker
       inkscape:stockid="DotM"
       orient="auto"
       refY="0"
       refX="0"
       id="marker4710"
       style="overflow:visible"
       inkscape:isstock="true">
      <path
         id="path4708"
         d="m -2.5,-1 c 0,2.76 -2.24,5 -5,5 -2.76,0 -5,-2.24 -5,-5 0,-2.76 2.24,-5 5,-5 2.76,0 5,2.24 5,5 z"
         style="fill:#000000;fill-opacity:1;fill-rule:evenodd;stroke:#000000;stroke-width:1.00000003pt;stroke-opacity:1"
         transform="matrix(0.4,0,0,0.4,2.96,0.4)"
         inkscape:connector-curvature="0" />
    </marker>
    <marker
       inkscape:stockid="DotM"
       orient="auto"
       refY="0"
       refX="0"
       id="marker4334"
       style="overflow:visible"
       inkscape:isstock="true">
      <path
         id="path4332"
         d="m -2.5,-1 c 0,2.76 -2.24,5 -5,5 -2.76,0 -5,-2.24 -5,-5 0,-2.76 2.24,-5 5,-5 2.76,0 5,2.24 5,5 z"
         style="fill:#000000;fill-opacity:1;fill-rule:evenodd;stroke:#000000;stroke-width:1.00000003pt;stroke-opacity:1"
         transform="matrix(0.4,0,0,0.4,2.96,0.4)"
         inkscape:connector-curvature="0" />
    </marker>
    <marker
       inkscape:stockid="DotM"
       orient="auto"
       refY="0"
       refX="0"
       id="marker4150"
       style="overflow:visible"
       inkscape:isstock="true">
      <path
         id="path4148"
         d="m -2.5,-1 c 0,2.76 -2.24,5 -5,5 -2.76,0 -5,-2.24 -5,-5 0,-2.76 2.24,-5 5,-5 2.76,0 5,2.24 5,5 z"
         style="fill:#000000;fill-opacity:1;fill-rule:evenodd;stroke:#000000;stroke-width:1.00000003pt;stroke-opacity:1"
         transform="matrix(0.4,0,0,0.4,2.96,0.4)"
         inkscape:connector-curvature="0" />
    </marker>
    <marker
       inkscape:stockid="DotM"
       orient="auto"
       refY="0"
       refX="0"
       id="marker3978"
       style="overflow:visible"
       inkscape:isstock="true">
      <path
         id="path3976"
         d="m -2.5,-1 c 0,2.76 -2.24,5 -5,5 -2.76,0 -5,-2.24 -5,-5 0,-2.76 2.24,-5 5,-5 2.76,0 5,2.24 5,5 z"
         style="fill:#000000;fill-opacity:1;fill-rule:evenodd;stroke:#000000;stroke-width:1.00000003pt;stroke-opacity:1"
         transform="matrix(0.4,0,0,0.4,2.96,0.4)"
         inkscape:connector-curvature="0" />
    </marker>
    <marker
       inkscape:stockid="DotM"
       orient="auto"
       refY="0"
       refX="0"
       id="marker3812"
       style="overflow:visible"
       inkscape:isstock="true">
      <path
         id="path3810"
         d="m -2.5,-1 c 0,2.76 -2.24,5 -5,5 -2.76,0 -5,-2.24 -5,-5 0,-2.76 2.24,-5 5,-5 2.76,0 5,2.24 5,5 z"
         style="fill:#000000;fill-opacity:1;fill-rule:evenodd;stroke:#000000;stroke-width:1.00000003pt;stroke-opacity:1"
         transform="matrix(0.4,0,0,0.4,2.96,0.4)"
         inkscape:connector-curvature="0" />
    </marker>
    <marker
       inkscape:stockid="DotL"
       orient="auto"
       refY="0"
       refX="0"
       id="marker3486"
       style="overflow:visible"
       inkscape:isstock="true">
      <path
         id="path3484"
         d="m -2.5,-1 c 0,2.76 -2.24,5 -5,5 -2.76,0 -5,-2.24 -5,-5 0,-2.76 2.24,-5 5,-5 2.76,0 5,2.24 5,5 z"
         style="fill:#000000;fill-opacity:1;fill-rule:evenodd;stroke:#000000;stroke-width:1.00000003pt;stroke-opacity:1"
         transform="matrix(0.8,0,0,0.8,5.92,0.8)"
         inkscape:connector-curvature="0" />
    </marker>
    <marker
       inkscape:stockid="DotL"
       orient="auto"
       refY="0"
       refX="0"
       id="marker3332"
       style="overflow:visible"
       inkscape:isstock="true">
      <path
         id="path3330"
         d="m -2.5,-1 c 0,2.76 -2.24,5 -5,5 -2.76,0 -5,-2.24 -5,-5 0,-2.76 2.24,-5 5,-5 2.76,0 5,2.24 5,5 z"
         style="fill:#000000;fill-opacity:1;fill-rule:evenodd;stroke:#000000;stroke-width:1.00000003pt;stroke-opacity:1"
         transform="matrix(0.8,0,0,0.8,5.92,0.8)"
         inkscape:connector-curvature="0" />
    </marker>
    <marker
       inkscape:stockid="DotL"
       orient="auto"
       refY="0"
       refX="0"
       id="marker3184"
       style="overflow:visible"
       inkscape:isstock="true">
      <path
         id="path3182"
         d="m -2.5,-1 c 0,2.76 -2.24,5 -5,5 -2.76,0 -5,-2.24 -5,-5 0,-2.76 2.24,-5 5,-5 2.76,0 5,2.24 5,5 z"
         style="fill:#000000;fill-opacity:1;fill-rule:evenodd;stroke:#000000;stroke-width:1.00000003pt;stroke-opacity:1"
         transform="matrix(0.8,0,0,0.8,5.92,0.8)"
         inkscape:connector-curvature="0" />
    </marker>
    <marker
       inkscape:stockid="DotL"
       orient="auto"
       refY="0"
       refX="0"
       id="marker3042"
       style="overflow:visible"
       inkscape:isstock="true">
      <path
         id="path3040"
         d="m -2.5,-1 c 0,2.76 -2.24,5 -5,5 -2.76,0 -5,-2.24 -5,-5 0,-2.76 2.24,-5 5,-5 2.76,0 5,2.24 5,5 z"
         style="fill:#000000;fill-opacity:1;fill-rule:evenodd;stroke:#000000;stroke-width:1.00000003pt;stroke-opacity:1"
         transform="matrix(0.8,0,0,0.8,5.92,0.8)"
         inkscape:connector-curvature="0" />
    </marker>
    <marker
       inkscape:stockid="DotL"
       orient="auto"
       refY="0"
       refX="0"
       id="marker2906"
       style="overflow:visible"
       inkscape:isstock="true">
      <path
         id="path2904"
         d="m -2.5,-1 c 0,2.76 -2.24,5 -5,5 -2.76,0 -5,-2.24 -5,-5 0,-2.76 2.24,-5 5,-5 2.76,0 5,2.24 5,5 z"
         style="fill:#000000;fill-opacity:1;fill-rule:evenodd;stroke:#000000;stroke-width:1.00000003pt;stroke-opacity:1"
         transform="matrix(0.8,0,0,0.8,5.92,0.8)"
         inkscape:connector-curvature="0" />
    </marker>
    <marker
       inkscape:isstock="true"
       style="overflow:visible"
       id="marker2640"
       refX="0"
       refY="0"
       orient="auto"
       inkscape:stockid="DotL">
      <path
         transform="matrix(0.8,0,0,0.8,5.92,0.8)"
         style="fill:#000000;fill-opacity:1;fill-rule:evenodd;stroke:#000000;stroke-width:1.00000003pt;stroke-opacity:1"
         d="m -2.5,-1 c 0,2.76 -2.24,5 -5,5 -2.76,0 -5,-2.24 -5,-5 0,-2.76 2.24,-5 5,-5 2.76,0 5,2.24 5,5 z"
         id="path2638"
         inkscape:connector-curvature="0" />
    </marker>
    <marker
       inkscape:isstock="true"
       style="overflow:visible"
       id="marker2522"
       refX="0"
       refY="0"
       orient="auto"
       inkscape:stockid="DotL">
      <path
         transform="matrix(0.8,0,0,0.8,5.92,0.8)"
         style="fill:#000000;fill-opacity:1;fill-rule:evenodd;stroke:#000000;stroke-width:1.00000003pt;stroke-opacity:1"
         d="m -2.5,-1 c 0,2.76 -2.24,5 -5,5 -2.76,0 -5,-2.24 -5,-5 0,-2.76 2.24,-5 5,-5 2.76,0 5,2.24 5,5 z"
         id="path2520"
         inkscape:connector-curvature="0" />
    </marker>
    <marker
       inkscape:isstock="true"
       style="overflow:visible"
       id="marker2410"
       refX="0"
       refY="0"
       orient="auto"
       inkscape:stockid="DotL">
      <path
         transform="matrix(0.8,0,0,0.8,5.92,0.8)"
         style="fill:#000000;fill-opacity:1;fill-rule:evenodd;stroke:#000000;stroke-width:1.00000003pt;stroke-opacity:1"
         d="m -2.5,-1 c 0,2.76 -2.24,5 -5,5 -2.76,0 -5,-2.24 -5,-5 0,-2.76 2.24,-5 5,-5 2.76,0 5,2.24 5,5 z"
         id="path2408"
         inkscape:connector-curvature="0" />
    </marker>
    <marker
       inkscape:isstock="true"
       style="overflow:visible"
       id="marker2400"
       refX="0"
       refY="0"
       orient="auto"
       inkscape:stockid="DotL">
      <path
         transform="matrix(0.8,0,0,0.8,5.92,0.8)"
         style="fill:#000000;fill-opacity:1;fill-rule:evenodd;stroke:#000000;stroke-width:1.00000003pt;stroke-opacity:1"
         d="m -2.5,-1 c 0,2.76 -2.24,5 -5,5 -2.76,0 -5,-2.24 -5,-5 0,-2.76 2.24,-5 5,-5 2.76,0 5,2.24 5,5 z"
         id="path2398"
         inkscape:connector-curvature="0" />
    </marker>
    <marker
       inkscape:isstock="true"
       style="overflow:visible"
       id="marker2090"
       refX="0"
       refY="0"
       orient="auto"
       inkscape:stockid="DotM">
      <path
         transform="matrix(0.4,0,0,0.4,2.96,0.4)"
         style="fill:#000000;fill-opacity:1;fill-rule:evenodd;stroke:#000000;stroke-width:1.00000003pt;stroke-opacity:1"
         d="m -2.5,-1 c 0,2.76 -2.24,5 -5,5 -2.76,0 -5,-2.24 -5,-5 0,-2.76 2.24,-5 5,-5 2.76,0 5,2.24 5,5 z"
         id="path2088"
         inkscape:connector-curvature="0" />
    </marker>
    <marker
       inkscape:isstock="true"
       style="overflow:visible"
       id="marker2002"
       refX="0"
       refY="0"
       orient="auto"
       inkscape:stockid="DotM">
      <path
         transform="matrix(0.4,0,0,0.4,2.96,0.4)"
         style="fill:#000000;fill-opacity:1;fill-rule:evenodd;stroke:#000000;stroke-width:1.00000003pt;stroke-opacity:1"
         d="m -2.5,-1 c 0,2.76 -2.24,5 -5,5 -2.76,0 -5,-2.24 -5,-5 0,-2.76 2.24,-5 5,-5 2.76,0 5,2.24 5,5 z"
         id="path2000"
         inkscape:connector-curvature="0" />
    </marker>
    <marker
       inkscape:isstock="true"
       style="overflow:visible"
       id="marker1920"
       refX="0"
       refY="0"
       orient="auto"
       inkscape:stockid="DotM">
      <path
         transform="matrix(0.4,0,0,0.4,2.96,0.4)"
         style="fill:#000000;fill-opacity:1;fill-rule:evenodd;stroke:#000000;stroke-width:1.00000003pt;stroke-opacity:1"
         d="m -2.5,-1 c 0,2.76 -2.24,5 -5,5 -2.76,0 -5,-2.24 -5,-5 0,-2.76 2.24,-5 5,-5 2.76,0 5,2.24 5,5 z"
         id="path1918"
         inkscape:connector-curvature="0" />
    </marker>
    <marker
       inkscape:isstock="true"
       style="overflow:visible"
       id="marker1910"
       refX="0"
       refY="0"
       orient="auto"
       inkscape:stockid="DotM">
      <path
         transform="matrix(0.4,0,0,0.4,2.96,0.4)"
         style="fill:#000000;fill-opacity:1;fill-rule:evenodd;stroke:#000000;stroke-width:1.00000003pt;stroke-opacity:1"
         d="m -2.5,-1 c 0,2.76 -2.24,5 -5,5 -2.76,0 -5,-2.24 -5,-5 0,-2.76 2.24,-5 5,-5 2.76,0 5,2.24 5,5 z"
         id="path1908"
         inkscape:connector-curvature="0" />
    </marker>
    <marker
       inkscape:isstock="true"
       style="overflow:visible"
       id="marker1748"
       refX="0"
       refY="0"
       orient="auto"
       inkscape:stockid="Arrow1Lstart">
      <path
         transform="matrix(0.8,0,0,0.8,10,0)"
         style="fill:#000000;fill-opacity:1;fill-rule:evenodd;stroke:#000000;stroke-width:1.00000003pt;stroke-opacity:1"
         d="M 0,0 5,-5 -12.5,0 5,5 Z"
         id="path1746"
         inkscape:connector-curvature="0" />
    </marker>
    <marker
       inkscape:isstock="true"
       style="overflow:visible"
       id="marker1684"
       refX="0"
       refY="0"
       orient="auto"
       inkscape:stockid="Arrow1Lstart">
      <path
         transform="matrix(0.8,0,0,0.8,10,0)"
         style="fill:#000000;fill-opacity:1;fill-rule:evenodd;stroke:#000000;stroke-width:1.00000003pt;stroke-opacity:1"
         d="M 0,0 5,-5 -12.5,0 5,5 Z"
         id="path1682"
         inkscape:connector-curvature="0" />
    </marker>
    <marker
       inkscape:isstock="true"
       style="overflow:visible"
       id="marker1626"
       refX="0"
       refY="0"
       orient="auto"
       inkscape:stockid="Arrow1Lstart">
      <path
         transform="matrix(0.8,0,0,0.8,10,0)"
         style="fill:#000000;fill-opacity:1;fill-rule:evenodd;stroke:#000000;stroke-width:1.00000003pt;stroke-opacity:1"
         d="M 0,0 5,-5 -12.5,0 5,5 Z"
         id="path1624"
         inkscape:connector-curvature="0" />
    </marker>
    <marker
       inkscape:isstock="true"
       style="overflow:visible"
       id="marker1574"
       refX="0"
       refY="0"
       orient="auto"
       inkscape:stockid="Arrow1Lstart">
      <path
         transform="matrix(0.8,0,0,0.8,10,0)"
         style="fill:#000000;fill-opacity:1;fill-rule:evenodd;stroke:#000000;stroke-width:1.00000003pt;stroke-opacity:1"
         d="M 0,0 5,-5 -12.5,0 5,5 Z"
         id="path1572"
         inkscape:connector-curvature="0" />
    </marker>
    <marker
       inkscape:isstock="true"
       style="overflow:visible"
       id="marker1564"
       refX="0"
       refY="0"
       orient="auto"
       inkscape:stockid="Arrow1Lstart">
      <path
         transform="matrix(0.8,0,0,0.8,10,0)"
         style="fill:#000000;fill-opacity:1;fill-rule:evenodd;stroke:#000000;stroke-width:1.00000003pt;stroke-opacity:1"
         d="M 0,0 5,-5 -12.5,0 5,5 Z"
         id="path1562"
         inkscape:connector-curvature="0" />
    </marker>
    <marker
       inkscape:isstock="true"
       style="overflow:visible"
       id="marker1472"
       refX="0"
       refY="0"
       orient="auto"
       inkscape:stockid="Arrow1Lstart">
      <path
         transform="matrix(0.8,0,0,0.8,10,0)"
         style="fill:#000000;fill-opacity:1;fill-rule:evenodd;stroke:#000000;stroke-width:1.00000003pt;stroke-opacity:1"
         d="M 0,0 5,-5 -12.5,0 5,5 Z"
         id="path1470"
         inkscape:connector-curvature="0" />
    </marker>
    <marker
       inkscape:isstock="true"
       style="overflow:visible"
       id="marker1438"
       refX="0"
       refY="0"
       orient="auto"
       inkscape:stockid="Arrow1Lstart">
      <path
         transform="matrix(0.8,0,0,0.8,10,0)"
         style="fill:#000000;fill-opacity:1;fill-rule:evenodd;stroke:#000000;stroke-width:1.00000003pt;stroke-opacity:1"
         d="M 0,0 5,-5 -12.5,0 5,5 Z"
         id="path1436"
         inkscape:connector-curvature="0" />
    </marker>
    <marker
       inkscape:isstock="true"
       style="overflow:visible"
       id="marker1410"
       refX="0"
       refY="0"
       orient="auto"
       inkscape:stockid="Arrow1Lstart">
      <path
         transform="matrix(0.8,0,0,0.8,10,0)"
         style="fill:#000000;fill-opacity:1;fill-rule:evenodd;stroke:#000000;stroke-width:1.00000003pt;stroke-opacity:1"
         d="M 0,0 5,-5 -12.5,0 5,5 Z"
         id="path1408"
         inkscape:connector-curvature="0" />
    </marker>
    <marker
       inkscape:isstock="true"
       style="overflow:visible"
       id="marker1388"
       refX="0"
       refY="0"
       orient="auto"
       inkscape:stockid="Arrow1Lstart">
      <path
         transform="matrix(0.8,0,0,0.8,10,0)"
         style="fill:#000000;fill-opacity:1;fill-rule:evenodd;stroke:#000000;stroke-width:1.00000003pt;stroke-opacity:1"
         d="M 0,0 5,-5 -12.5,0 5,5 Z"
         id="path1386"
         inkscape:connector-curvature="0" />
    </marker>
  </defs>
  <sodipodi:namedview
     id="base"
     pagecolor="#ffffff"
     bordercolor="#666666"
     borderopacity="1.0"
     inkscape:pageopacity="0.0"
     inkscape:pageshadow="2"
     inkscape:zoom="1.0387876"
     inkscape:cx="-9.1812604"
     inkscape:cy="132.68012"
     inkscape:document-units="mm"
     inkscape:current-layer="layer1"
     showgrid="false"
     inkscape:window-width="1586"
     inkscape:window-height="829"
     inkscape:window-x="-3"
     inkscape:window-y="14"
     inkscape:window-maximized="0"
     fit-margin-top="0"
     fit-margin-left="0"
     fit-margin-right="0"
     fit-margin-bottom="0" />
  <metadata
     id="metadata5">
    <rdf:RDF>
      <cc:Work
         rdf:about="">
        <dc:format>image/svg+xml</dc:format>
        <dc:type
           rdf:resource="http://purl.org/dc/dcmitype/StillImage" />
        <dc:title></dc:title>
      </cc:Work>
    </rdf:RDF>
  </metadata>
  <g
     inkscape:label="Layer 1"
     inkscape:groupmode="layer"
     id="layer1"
     transform="translate(-91.108867,-102.62426)">
    <path
       style="fill:#ffffff;fill-opacity:1;stroke:#4ba7dc;stroke-width:3.0999999;stroke-miterlimit:4;stroke-dasharray:none;stroke-opacity:1"
       d="m 92.658867,106.84039 27.063003,4.23333 45.9398,-6.87917 27.06299,4.7625 v 85.80969 l -27.06299,-4.7625 -45.9398,6.87917 -27.063003,-4.23333 z"
       id="rect5964"
       inkscape:connector-curvature="0"
       sodipodi:nodetypes="ccccccccc" />
    <path
       style="fill:none;stroke:#000000;stroke-width:0.26458332;stroke-linecap:butt;stroke-linejoin:miter;stroke-miterlimit:4;stroke-dasharray:0.26458332, 1.05833327;stroke-dashoffset:0;stroke-opacity:1"
       d="m 120.39563,114.0406 v 81.78447"
       id="path5980"
       inkscape:connector-curvature="0"
       sodipodi:nodetypes="cc" />
    <path
       sodipodi:nodetypes="cc"
       inkscape:connector-curvature="0"
       id="path5982"
       d="m 164.84564,106.63222 v 81.78447"
       style="fill:none;stroke:#000000;stroke-width:0.26458332;stroke-linecap:butt;stroke-linejoin:miter;stroke-miterlimit:4;stroke-dasharray:0.26458332, 1.05833327;stroke-dashoffset:0;stroke-opacity:1" />
    <path
       inkscape:connector-curvature="0"
       style="fill:#000000;fill-opacity:1;fill-rule:evenodd;stroke:#ffffff;stroke-width:1;stroke-miterlimit:4;stroke-dasharray:none;stroke-opacity:1"
       d="m 121.58538,164.81531 c 1.62233,2.80995 0.65844,6.40717 -2.1515,8.0295 -2.80995,1.62233 -6.40718,0.65845 -8.02951,-2.1515 -1.62233,-2.80995 -0.65844,-6.40717 2.1515,-8.0295 2.80995,-1.62233 6.40717,-0.65845 8.02951,2.1515 z"
       id="path11196" />
    <g
       id="g15798"
       transform="matrix(0.98497871,0,0,0.98497871,2.64126,2.0481629)">
      <path
         style="color:#000000;font-style:normal;font-variant:normal;font-weight:normal;font-stretch:normal;font-size:medium;line-height:normal;font-family:sans-serif;font-variant-ligatures:normal;font-variant-position:normal;font-variant-caps:normal;font-variant-numeric:normal;font-variant-alternates:normal;font-feature-settings:normal;text-indent:0;text-align:start;text-decoration:none;text-decoration-line:none;text-decoration-style:solid;text-decoration-color:#000000;letter-spacing:normal;word-spacing:normal;text-transform:none;writing-mode:lr-tb;direction:ltr;text-orientation:mixed;dominant-baseline:auto;baseline-shift:baseline;text-anchor:start;white-space:normal;shape-padding:0;clip-rule:nonzero;display:inline;overflow:visible;visibility:visible;opacity:1;isolation:auto;mix-blend-mode:normal;color-interpolation:sRGB;color-interpolation-filters:linearRGB;solid-color:#000000;solid-opacity:1;vector-effect:none;fill:#dc4335;fill-opacity:1;fill-rule:nonzero;stroke:#ffffff;stroke-width:1;stroke-linecap:butt;stroke-linejoin:miter;stroke-miterlimit:4;stroke-dasharray:none;stroke-dashoffset:0;stroke-opacity:1;color-rendering:auto;image-rendering:auto;shape-rendering:auto;text-rendering:auto;enable-background:accumulate"
         d="m 111.87363,147.1331 v 5.87695 h 70.49609 v -5.87695 z"
         id="path1092"
         inkscape:connector-curvature="0" />
      <path
         id="path11228"
         d="m 117.6349,150.07189 c 0,3.24466 -2.63335,5.878 -5.878,5.878 -3.24466,0 -5.878,-2.63334 -5.878,-5.878 0,-3.24466 2.63334,-5.878 5.878,-5.878 3.24466,0 5.878,2.63334 5.878,5.878 z"
         style="fill:#dc4335;fill-opacity:1;fill-rule:evenodd;stroke:#ffffff;stroke-width:1;stroke-miterlimit:4;stroke-dasharray:none;stroke-opacity:1"
         inkscape:connector-curvature="0" />
      <path
         style="fill:#dc4335;fill-opacity:1;fill-rule:evenodd;stroke:#ffffff;stroke-width:1;stroke-miterlimit:4;stroke-dasharray:none;stroke-opacity:1"
         d="m 188.12943,150.07189 c 0,3.24466 -2.63334,5.878 -5.878,5.878 -3.24466,0 -5.878,-2.63334 -5.878,-5.878 0,-3.24466 2.63334,-5.878 5.878,-5.878 3.24466,0 5.878,2.63334 5.878,5.878 z"
         id="path11230"
         inkscape:connector-curvature="0" />
      <path
         style="color:#000000;font-style:normal;font-variant:normal;font-weight:normal;font-stretch:normal;font-size:medium;line-height:normal;font-family:sans-serif;font-variant-ligatures:normal;font-variant-position:normal;font-variant-caps:normal;font-variant-numeric:normal;font-variant-alternates:normal;font-feature-settings:normal;text-indent:0;text-align:start;text-decoration:none;text-decoration-line:none;text-decoration-style:solid;text-decoration-color:#000000;letter-spacing:normal;word-spacing:normal;text-transform:none;writing-mode:lr-tb;direction:ltr;text-orientation:mixed;dominant-baseline:auto;baseline-shift:baseline;text-anchor:start;white-space:normal;shape-padding:0;clip-rule:nonzero;display:inline;overflow:visible;visibility:visible;opacity:1;isolation:auto;mix-blend-mode:normal;color-interpolation:sRGB;color-interpolation-filters:linearRGB;solid-color:#000000;solid-opacity:1;vector-effect:none;fill:#dc4335;fill-opacity:1;fill-rule:nonzero;stroke:#ffffff;stroke-width:1;stroke-linecap:butt;stroke-linejoin:miter;stroke-miterlimit:4;stroke-dasharray:none;stroke-dashoffset:0;stroke-opacity:1;color-rendering:auto;image-rendering:auto;shape-rendering:auto;text-rendering:auto;enable-background:accumulate"
         d="m 144.18222,114.8245 v 70.49414 h 5.8789 V 114.8245 Z"
         id="path1094"
         inkscape:connector-curvature="0" />
      <path
         id="path11220"
         d="m 147.12172,120.58506 c -3.24466,0 -5.878,-2.63334 -5.878,-5.878 0,-3.24466 2.63335,-5.878 5.878,-5.878 3.24466,0 5.878,2.63334 5.878,5.878 0,3.24466 -2.63334,5.878 -5.878,5.878 z"
         style="fill:#dc4335;fill-opacity:1;fill-rule:evenodd;stroke:#ffffff;stroke-width:1;stroke-miterlimit:4;stroke-dasharray:none;stroke-opacity:1"
         inkscape:connector-curvature="0" />
      <path
         id="path11222"
         d="m 147.12172,191.07961 c -3.24466,0 -5.878,-2.63334 -5.878,-5.878 0,-3.24466 2.63335,-5.878 5.878,-5.878 3.24466,0 5.878,2.63334 5.878,5.878 0,3.24466 -2.63334,5.878 -5.878,5.878 z"
         style="fill:#dc4335;fill-opacity:1;fill-rule:evenodd;stroke:#ffffff;stroke-width:1;stroke-miterlimit:4;stroke-dasharray:none;stroke-opacity:1"
         inkscape:connector-curvature="0" />
      <path
         style="color:#000000;font-style:normal;font-variant:normal;font-weight:normal;font-stretch:normal;font-size:medium;line-height:normal;font-family:sans-serif;font-variant-ligatures:normal;font-variant-position:normal;font-variant-caps:normal;font-variant-numeric:normal;font-variant-alternates:normal;font-feature-settings:normal;text-indent:0;text-align:start;text-decoration:none;text-decoration-line:none;text-decoration-style:solid;text-decoration-color:#000000;letter-spacing:normal;word-spacing:normal;text-transform:none;writing-mode:lr-tb;direction:ltr;text-orientation:mixed;dominant-baseline:auto;baseline-shift:baseline;text-anchor:start;white-space:normal;shape-padding:0;clip-rule:nonzero;display:inline;overflow:visible;visibility:visible;opacity:1;isolation:auto;mix-blend-mode:normal;color-interpolation:sRGB;color-interpolation-filters:linearRGB;solid-color:#000000;solid-opacity:1;vector-effect:none;fill:#dc4335;fill-opacity:1;fill-rule:nonzero;stroke:#ffffff;stroke-width:1;stroke-linecap:butt;stroke-linejoin:miter;stroke-miterlimit:4;stroke-dasharray:none;stroke-dashoffset:0;stroke-opacity:1;color-rendering:auto;image-rendering:auto;shape-rendering:auto;text-rendering:auto;enable-background:accumulate"
         d="m 132.04355,118.07646 -5.08985,2.93945 35.2461,61.05078 5.08984,-2.93945 z"
         id="path1096"
         inkscape:connector-curvature="0" />
      <path
         style="fill:#dc4335;fill-opacity:1;fill-rule:evenodd;stroke:#ffffff;stroke-width:1;stroke-miterlimit:4;stroke-dasharray:none;stroke-opacity:1"
         d="m 132.3783,124.53555 c -2.80995,1.62233 -6.40717,0.65845 -8.0295,-2.1515 -1.62233,-2.80995 -0.65845,-6.40717 2.1515,-8.0295 2.80995,-1.62233 6.40717,-0.65845 8.0295,2.1515 1.62233,2.80995 0.65845,6.40717 -2.1515,8.0295 z"
         id="path11212"
         inkscape:connector-curvature="0" />
      <path
         style="fill:#dc4335;fill-opacity:1;fill-rule:evenodd;stroke:#ffffff;stroke-width:1;stroke-miterlimit:4;stroke-dasharray:none;stroke-opacity:1"
         d="m 167.62557,185.58562 c -2.80995,1.62233 -6.40717,0.65845 -8.0295,-2.1515 -1.62233,-2.80995 -0.65845,-6.40717 2.1515,-8.0295 2.80995,-1.62233 6.40717,-0.65845 8.0295,2.1515 1.62233,2.80995 0.65845,6.40717 -2.1515,8.0295 z"
         id="path11214"
         inkscape:connector-curvature="0" />
      <path
         style="color:#000000;font-style:normal;font-variant:normal;font-weight:normal;font-stretch:normal;font-size:medium;line-height:normal;font-family:sans-serif;font-variant-ligatures:normal;font-variant-position:normal;font-variant-caps:normal;font-variant-numeric:normal;font-variant-alternates:normal;font-feature-settings:normal;text-indent:0;text-align:start;text-decoration:none;text-decoration-line:none;text-decoration-style:solid;text-decoration-color:#000000;letter-spacing:normal;word-spacing:normal;text-transform:none;writing-mode:lr-tb;direction:ltr;text-orientation:mixed;dominant-baseline:auto;baseline-shift:baseline;text-anchor:start;white-space:normal;shape-padding:0;clip-rule:nonzero;display:inline;overflow:visible;visibility:visible;opacity:1;isolation:auto;mix-blend-mode:normal;color-interpolation:sRGB;color-interpolation-filters:linearRGB;solid-color:#000000;solid-opacity:1;vector-effect:none;fill:#dc4335;fill-opacity:1;fill-rule:nonzero;stroke:#ffffff;stroke-width:1;stroke-linecap:butt;stroke-linejoin:miter;stroke-miterlimit:4;stroke-dasharray:none;stroke-dashoffset:0;stroke-opacity:1;color-rendering:auto;image-rendering:auto;shape-rendering:auto;text-rendering:auto;enable-background:accumulate"
         d="m 118.06698,129.90263 -2.93945,5.09179 61.04883,35.2461 2.93946,-5.08985 z"
         id="path1098"
         inkscape:connector-curvature="0" />
      <path
         id="path11204"
         d="m 121.58538,135.32848 c -1.62234,2.80995 -5.21955,3.77383 -8.02951,2.1515 -2.80994,-1.62233 -3.77383,-5.21955 -2.1515,-8.0295 1.62233,-2.80995 5.21955,-3.77383 8.02951,-2.1515 2.80994,1.62233 3.77383,5.21955 2.1515,8.0295 z"
         style="fill:#dc4335;fill-opacity:1;fill-rule:evenodd;stroke:#ffffff;stroke-width:1;stroke-miterlimit:4;stroke-dasharray:none;stroke-opacity:1"
         inkscape:connector-curvature="0" />
      <path
         style="fill:#dc4335;fill-opacity:1;fill-rule:evenodd;stroke:#ffffff;stroke-width:1;stroke-miterlimit:4;stroke-dasharray:none;stroke-opacity:1"
         d="m 182.63544,170.57575 c -1.62233,2.80995 -5.21955,3.77383 -8.0295,2.1515 -2.80995,-1.62233 -3.77382,-5.21955 -2.1515,-8.0295 1.62233,-2.80995 5.21956,-3.77383 8.0295,-2.1515 2.80995,1.62233 3.77383,5.21955 2.1515,8.0295 z"
         id="path11206"
         inkscape:connector-curvature="0" />
      <path
         style="color:#000000;font-style:normal;font-variant:normal;font-weight:normal;font-stretch:normal;font-size:medium;line-height:normal;font-family:sans-serif;font-variant-ligatures:normal;font-variant-position:normal;font-variant-caps:normal;font-variant-numeric:normal;font-variant-alternates:normal;font-feature-settings:normal;text-indent:0;text-align:start;text-decoration:none;text-decoration-line:none;text-decoration-style:solid;text-decoration-color:#000000;letter-spacing:normal;word-spacing:normal;text-transform:none;writing-mode:lr-tb;direction:ltr;text-orientation:mixed;dominant-baseline:auto;baseline-shift:baseline;text-anchor:start;white-space:normal;shape-padding:0;clip-rule:nonzero;display:inline;overflow:visible;visibility:visible;opacity:1;isolation:auto;mix-blend-mode:normal;color-interpolation:sRGB;color-interpolation-filters:linearRGB;solid-color:#000000;solid-opacity:1;vector-effect:none;fill:#dc4335;fill-opacity:1;fill-rule:nonzero;stroke:#ffffff;stroke-width:1;stroke-linecap:butt;stroke-linejoin:miter;stroke-miterlimit:4;stroke-dasharray:none;stroke-dashoffset:0;stroke-opacity:1;color-rendering:auto;image-rendering:auto;shape-rendering:auto;text-rendering:auto;enable-background:accumulate"
         d="m 176.17636,129.90263 -61.04883,35.24804 2.93945,5.08985 61.04883,-35.2461 z"
         id="path1100"
         inkscape:connector-curvature="0" />
      <path
         style="fill:#dc4335;fill-opacity:1;fill-rule:evenodd;stroke:#ffffff;stroke-width:1;stroke-miterlimit:4;stroke-dasharray:none;stroke-opacity:1"
         d="m 182.63544,129.56804 c 1.62233,2.80995 0.65845,6.40717 -2.1515,8.0295 -2.80995,1.62233 -6.40717,0.65845 -8.0295,-2.1515 -1.62232,-2.80995 -0.65845,-6.40717 2.1515,-8.0295 2.80995,-1.62233 6.40717,-0.65845 8.0295,2.1515 z"
         id="path11198"
         inkscape:connector-curvature="0" />
      <path
         style="color:#000000;font-style:normal;font-variant:normal;font-weight:normal;font-stretch:normal;font-size:medium;line-height:normal;font-family:sans-serif;font-variant-ligatures:normal;font-variant-position:normal;font-variant-caps:normal;font-variant-numeric:normal;font-variant-alternates:normal;font-feature-settings:normal;text-indent:0;text-align:start;text-decoration:none;text-decoration-line:none;text-decoration-style:solid;text-decoration-color:#000000;letter-spacing:normal;word-spacing:normal;text-transform:none;writing-mode:lr-tb;direction:ltr;text-orientation:mixed;dominant-baseline:auto;baseline-shift:baseline;text-anchor:start;white-space:normal;shape-padding:0;clip-rule:nonzero;display:inline;overflow:visible;visibility:visible;opacity:1;isolation:auto;mix-blend-mode:normal;color-interpolation:sRGB;color-interpolation-filters:linearRGB;solid-color:#000000;solid-opacity:1;vector-effect:none;fill:#dc4335;fill-opacity:1;fill-rule:nonzero;stroke:#ffffff;stroke-width:1;stroke-linecap:butt;stroke-linejoin:miter;stroke-miterlimit:4;stroke-dasharray:none;stroke-dashoffset:0;stroke-opacity:1;color-rendering:auto;image-rendering:auto;shape-rendering:auto;text-rendering:auto;enable-background:accumulate"
         d="m 162.1998,118.07646 -35.2461,61.05078 5.08985,2.93945 35.24609,-61.05078 z"
         id="path1102"
         inkscape:connector-curvature="0" />
      <path
         id="path11176"
         d="m 132.3783,175.60825 c 2.80995,1.62233 3.77383,5.21955 2.1515,8.0295 -1.62233,2.80995 -5.21955,3.77383 -8.0295,2.1515 -2.80995,-1.62233 -3.77383,-5.21955 -2.1515,-8.0295 1.62233,-2.80995 5.21955,-3.77383 8.0295,-2.1515 z"
         style="fill:#dc4335;fill-opacity:1;fill-rule:evenodd;stroke:#ffffff;stroke-width:1;stroke-miterlimit:4;stroke-dasharray:none;stroke-opacity:1"
         inkscape:connector-curvature="0" />
      <path
         style="fill:#dc4335;fill-opacity:1;fill-rule:evenodd;stroke:#ffffff;stroke-width:1;stroke-miterlimit:4;stroke-dasharray:none;stroke-opacity:1"
         d="m 167.62558,114.55818 c 2.80995,1.62233 3.77383,5.21955 2.1515,8.0295 -1.62233,2.80995 -5.21955,3.77383 -8.0295,2.1515 -2.80995,-1.62233 -3.77383,-5.21955 -2.1515,-8.0295 1.62233,-2.80995 5.21955,-3.77383 8.0295,-2.1515 z"
         id="path11178"
         inkscape:connector-curvature="0" />
      <path
         style="fill:#ffffff;fill-opacity:1;stroke:#dc4335;stroke-width:3.53600001;stroke-miterlimit:4;stroke-dasharray:none;stroke-opacity:1"
         d="m 169.26935,150.07189 a 22.14764,22.14764 0 0 1 -22.14764,22.14764 22.14764,22.14764 0 0 1 -22.14763,-22.14764 22.14764,22.14764 0 0 1 22.14763,-22.14764 22.14764,22.14764 0 0 1 22.14764,22.14764 z"
         id="circle1090"
         inkscape:connector-curvature="0" />
    </g>
    <path
       sodipodi:nodetypes="cccccccssssccc"
       inkscape:connector-curvature="0"
       id="path5955"
       d="m 138.59358,134.5716 c -6.56499,3.80068 -10.23451,10.92903 -8.7706,18.37222 -7.30068,5.70868 -41.507493,12.96497 -31.672344,26.1712 9.835144,13.20623 26.607494,-6.45497 36.816234,-12.86495 0.84357,-0.52965 1.76491,-0.78461 2.19996,-1.60001 5.68044,4.20082 13.31065,4.63512 19.43107,1.10593 6.08822,-3.52197 9.28094,-10.72761 8.51953,-17.71981 l -15.17624,8.76201 c -1.67637,0.96785 -3.80534,0.39774 -4.77319,-1.27863 l -3.66875,-6.35445 c -0.96786,-1.67639 -0.39709,-3.80517 1.27927,-4.77302 l 15.16715,-8.75676 c -5.67179,-4.15349 -13.25945,-4.57042 -19.35203,-1.06362 z"
       style="fill:#ffffff;fill-opacity:1;stroke:#ffffff;stroke-width:2.77322936;stroke-miterlimit:4;stroke-dasharray:none;stroke-opacity:1" />
    <path
       style="fill:#4ba7dc;fill-opacity:1;stroke:none;stroke-width:2.39100313;stroke-miterlimit:4;stroke-dasharray:none;stroke-opacity:1"
       d="m 140.41631,136.04019 c -5.66003,3.27706 -8.82391,9.42272 -7.56177,15.84004 -0.63372,0.0509 -1.0441,0.62268 -1.64545,0.94077 l -30.17105,15.95863 c -2.159614,1.14235 -2.203048,5.00382 -0.98148,7.11963 l 1.67031,2.89305 c 1.22157,2.11582 4.58743,4.00899 6.65652,2.70983 l 28.90596,-18.14982 c 0.72731,-0.45664 1.52166,-0.67646 1.89674,-1.37949 4.89753,3.62184 11.47609,3.99627 16.75294,0.9535 5.24919,-3.03639 8.00178,-9.24905 7.34532,-15.27754 l -13.08455,7.55437 c -1.44532,0.83446 -3.28086,0.34292 -4.11532,-1.1024 l -3.16309,-5.47864 c -0.83446,-1.44532 -0.34237,-3.28071 1.10295,-4.11516 l 13.0767,-7.54984 c -4.88994,-3.58083 -11.43182,-3.9403 -16.68467,-0.91682 z"
       id="path5945"
       inkscape:connector-curvature="0"
       sodipodi:nodetypes="ccsssssscccssssccc" />
  </g>
</svg>
