<?xml version="1.0" encoding="UTF-8" standalone="no"?>
<svg
   xmlns:dc="http://purl.org/dc/elements/1.1/"
   xmlns:cc="http://creativecommons.org/ns#"
   xmlns:rdf="http://www.w3.org/1999/02/22-rdf-syntax-ns#"
   xmlns:svg="http://www.w3.org/2000/svg"
   xmlns="http://www.w3.org/2000/svg"
   xmlns:sodipodi="http://sodipodi.sourceforge.net/DTD/sodipodi-0.dtd"
   xmlns:inkscape="http://www.inkscape.org/namespaces/inkscape"
   version="1.1"
   xml:space="preserve"
   enable-background="new 0 0 160 140"
   viewBox="0 0 118.37144 119.6"
   width="118.37144"
   height="102.51428"
   id="svg3943"
   sodipodi:docname="avatar-knime.svg"
   inkscape:version="0.92.3 (2405546, 2018-03-11)"><metadata
   id="metadata3949"><rdf:RDF><cc:Work
       rdf:about=""><dc:format>image/svg+xml</dc:format><dc:type
         rdf:resource="http://purl.org/dc/dcmitype/StillImage" /></cc:Work></rdf:RDF></metadata><defs
   id="defs3947" /><sodipodi:namedview
   pagecolor="#ffffff"
   bordercolor="#666666"
   borderopacity="1"
   objecttolerance="10"
   gridtolerance="10"
   guidetolerance="10"
   inkscape:pageopacity="0"
   inkscape:pageshadow="2"
   inkscape:window-width="1920"
   inkscape:window-height="1029"
   id="namedview3945"
   showgrid="false"
   inkscape:zoom="6.9833333"
   inkscape:cx="71.545353"
   inkscape:cy="48.712774"
   inkscape:window-x="1920"
   inkscape:window-y="0"
   inkscape:window-maximized="1"
   inkscape:current-layer="layer3" />
<style
   type="text/css"
   id="style3939">
	.st1{fill:#FFD800;}
</style>
	


<g
   inkscape:groupmode="layer"
   id="layer2"
   inkscape:label="Background"
   style="display:inline;opacity:0"
   sodipodi:insensitive="true"
   transform="translate(-24.032735,-7.6940384)" /><g
   inkscape:groupmode="layer"
   id="layer3"
   inkscape:label="Knime Logo"
   style="display:inline;opacity:1"
   transform="translate(-24.032735,-7.6940384)"><path
     class="st1"
     d="M 83.469463,14.35991 21.029552,122.43245 H 145.81901 Z M 69.192318,109.51074 V 68.305825 l 1.265064,-5.692785 35.692848,20.602459 4.33736,3.975913 -35.783209,20.602458 c 0.09035,0 -5.512063,1.71687 -5.512063,1.71687 z m 1.807235,-49.337466 1.716871,-7.771103 25.572356,23.494034 z m -4.156637,50.150716 -7.59038,2.3494 7.59038,-33.885613 z m 45.542274,-21.506068 5.8735,5.331338 -33.162717,10.39159 z m -38.494065,-39.397686 2.439766,-6.50604 29.006089,35.421773 z m -17.710887,63.795324 -6.867486,1.08435 16.174739,-42.741066 z m 64.066412,-16.626539 4.42772,5.331339 -45.090459,7.40966 z m -42.921781,-58.012186 2.530127,-5.240976 30.903684,46.08445 z m -32.259115,77.078505 -5.783146,0.36144 24.48801,-49.789275 c -0.09036,0 -18.704864,49.427835 -18.704864,49.427835 z m 82.861646,-10.66268 3.25301,4.78917 -55.39169,3.70482 z M 114.55387,77.703437 81.120059,27.823796 83.469463,23.757522 Z M 60.336875,63.78774 33.860909,117.73366 h -4.698808 z m 15.000038,53.94592 60.000137,-4.06628 2.3494,4.06628 z"
     id="path3941"
     inkscape:connector-curvature="0"
     style="fill:#ffd800;stroke-width:0.90361667" /></g></svg>